<svg width="1920" height="270" viewBox="0 0 1920 270" fill="none" xmlns="http://www.w3.org/2000/svg">
<g clip-path="url(#clip0_1219_5140)">
<rect width="269" height="1920" transform="translate(0 269.543) rotate(-90)" fill="url(#paint0_linear_1219_5140)"/>
<rect width="269" height="1920" transform="translate(0 269.543) rotate(-90)" fill="#FAF8EB"/>
<path d="M743.84 178.52C747.004 178.52 749.09 180.02 749.114 182.363C749.09 184.684 747.004 186.207 743.84 186.207C740.676 186.207 738.567 184.684 738.567 182.363C738.567 180.02 740.676 178.52 743.84 178.52ZM743.84 179.926C741.754 179.926 740.325 180.887 740.325 182.363C740.325 183.816 741.754 184.801 743.84 184.801C745.95 184.801 747.356 183.816 747.379 182.363C747.356 180.887 745.95 179.926 743.84 179.926ZM753.965 177.605V193.449H752.137V177.605H753.965ZM736.926 187.801C740.84 187.801 746.09 187.777 750.59 187.121L750.731 188.48C748.891 188.797 746.969 188.996 745.082 189.113V192.723H743.254V189.207C741.075 189.312 739 189.324 737.207 189.324L736.926 187.801ZM754.575 196.449V197.996H739.903V191.996H741.731V196.449H754.575ZM774.558 177.605V198.488H772.73V187.004H768.324V185.48H772.73V177.605H774.558ZM767.972 179.527V181.051H760.097V185.387H767.058V186.887H760.097V191.926C763.929 191.926 766.367 191.797 769.238 191.293L769.449 192.816C766.425 193.309 763.871 193.449 759.84 193.449H758.246V179.527H767.972ZM788.05 180.676C788.05 184.238 792.128 187.426 795.761 188.105L794.917 189.652C791.776 188.926 788.46 186.688 787.112 183.605C785.765 186.676 782.46 188.914 779.308 189.652L778.464 188.105C782.073 187.402 786.128 184.262 786.128 180.676V179.082H788.05V180.676ZM796.745 194.082V195.605H777.667V194.082H796.745ZM814.62 178.566V180.09C814.62 181.672 814.62 183.535 814.127 185.973H817.034V187.449H808.432V189.676H814.784V194.504H802.174V196.684H815.51V198.16H800.346V193.121H812.955V191.105H800.299V189.676H806.627V187.449H798.073V185.973H812.276C812.475 185.012 812.592 184.145 812.674 183.348L800.205 183.887L799.971 182.41L812.768 182.035C812.791 181.355 812.791 180.711 812.791 180.09V180.043H800.463V178.566H814.62ZM827.924 177.98C832.564 177.98 835.283 179.246 835.283 181.566C835.283 183.934 832.564 185.199 827.924 185.223C823.283 185.199 820.541 183.934 820.541 181.566C820.541 179.246 823.283 177.98 827.924 177.98ZM827.924 179.363C824.455 179.363 822.439 180.207 822.463 181.566C822.439 183.02 824.455 183.816 827.924 183.816C831.369 183.816 833.408 183.02 833.408 181.566C833.408 180.207 831.369 179.363 827.924 179.363ZM837.416 186.629V188.129H818.431V186.629H837.416ZM834.978 189.934V194.598H822.603V196.754H835.611V198.207H820.775V193.238H833.174V191.34H820.728V189.934H834.978ZM860.602 177.605V185.855H864.094V187.402H860.602V198.488H858.774V177.605H860.602ZM855.118 179.645V181.168H847.219V191.715C850.993 191.715 853.665 191.539 856.758 190.965L856.993 192.559C853.735 193.145 850.993 193.262 847.032 193.262H845.391V179.645H855.118ZM882.156 177.605V198.488H880.305V188.738H873.976V187.215H880.305V184.004H873.976V182.504H880.305V177.605H882.156ZM867.859 179.926V192.043C871.246 192.031 873.836 191.914 876.765 191.316L876.953 192.84C873.859 193.449 871.211 193.637 867.601 193.637H866.008V179.926H867.859ZM902.07 187.379V188.879H895.624V194.27H904.32V195.816H885.241V194.27H893.82V188.879H887.679V179.316H901.859V180.816H889.53V187.379H902.07ZM909.045 194.973L907.217 201.348H905.483L906.772 194.973H909.045ZM929.536 179.855V181.355H917.115V179.855H922.411V177.512H924.24V179.855H929.536ZM923.325 182.434C926.325 182.457 928.318 183.91 928.341 186.207C928.318 188.48 926.325 189.957 923.325 189.957C920.325 189.957 918.286 188.48 918.31 186.207C918.286 183.91 920.325 182.457 923.325 182.434ZM923.325 183.863C921.357 183.887 920.044 184.801 920.068 186.207C920.044 187.59 921.357 188.48 923.325 188.48C925.271 188.48 926.583 187.59 926.607 186.207C926.583 184.801 925.271 183.887 923.325 183.863ZM933.357 177.605V183.395H936.497V184.941H933.357V190.637H931.529V177.605H933.357ZM933.357 191.785V198.441H931.529V193.285H919.716V191.785H933.357ZM954.63 177.629V193.449H952.778V191.293H948.465V189.957H952.778V177.629H954.63ZM955.145 196.449V197.996H940.333V191.902H942.184V196.449H955.145ZM937.333 187.285C941.223 187.262 946.426 187.238 950.903 186.676L951.02 188.012C949.157 188.305 947.212 188.492 945.301 188.598V192.723H943.45V188.691C941.34 188.785 939.337 188.797 937.59 188.785L937.333 187.285ZM944.176 178.473C947.223 178.473 949.309 179.926 949.333 182.105C949.309 184.332 947.223 185.715 944.176 185.715C941.106 185.715 939.02 184.332 939.02 182.105C939.02 179.926 941.106 178.473 944.176 178.473ZM944.176 179.879C942.137 179.855 940.755 180.77 940.778 182.105C940.755 183.465 942.137 184.355 944.176 184.355C946.145 184.355 947.551 183.465 947.575 182.105C947.551 180.77 946.145 179.855 944.176 179.879ZM967.324 177.98C971.965 177.98 974.684 179.246 974.684 181.566C974.684 183.934 971.965 185.199 967.324 185.223C962.684 185.199 959.941 183.934 959.941 181.566C959.941 179.246 962.684 177.98 967.324 177.98ZM967.324 179.363C963.855 179.363 961.84 180.207 961.863 181.566C961.84 183.02 963.855 183.816 967.324 183.816C970.77 183.816 972.809 183.02 972.809 181.566C972.809 180.207 970.77 179.363 967.324 179.363ZM976.816 186.629V188.129H957.832V186.629H976.816ZM974.379 189.934V194.598H962.004V196.754H975.012V198.207H960.176V193.238H972.574V191.34H960.129V189.934H974.379ZM1000 177.605V185.855H1003.49V187.402H1000V198.488H998.175V177.605H1000ZM994.518 179.645V181.168H986.62V191.715C990.393 191.715 993.065 191.539 996.159 190.965L996.393 192.559C993.135 193.145 990.393 193.262 986.432 193.262H984.792V179.645H994.518ZM1021.56 177.605V198.488H1019.71V188.738H1013.38V187.215H1019.71V184.004H1013.38V182.504H1019.71V177.605H1021.56ZM1007.26 179.926V192.043C1010.65 192.031 1013.24 191.914 1016.17 191.316L1016.35 192.84C1013.26 193.449 1010.61 193.637 1007 193.637H1005.41V179.926H1007.26ZM1041.47 187.379V188.879H1035.02V194.27H1043.72V195.816H1024.64V194.27H1033.22V188.879H1027.08V179.316H1041.26V180.816H1028.93V187.379H1041.47ZM1048.45 194.973L1046.62 201.348H1044.88L1046.17 194.973H1048.45ZM1068.02 179.926V181.004C1068 182.645 1068 185.41 1067.41 189.277L1065.56 189.113C1066.12 185.621 1066.17 183.09 1066.17 181.426H1057.43V179.926H1068.02ZM1062.56 185.879V192.207C1064.87 192.125 1067.24 191.973 1069.41 191.715L1069.5 193.098C1065.12 193.777 1060.22 193.871 1056.49 193.848L1056.26 192.324C1057.63 192.312 1059.15 192.301 1060.76 192.254V185.879H1062.56ZM1072.55 177.605V186.324H1075.92V187.918H1072.55V198.441H1070.72V177.605H1072.55ZM1083.67 178.965C1086.95 178.988 1089.27 180.957 1089.27 183.863C1089.27 186.488 1087.37 188.352 1084.58 188.668V192.23C1086.65 192.125 1088.74 191.949 1090.73 191.645L1090.87 193.004C1086.11 193.895 1080.98 193.918 1077.23 193.918L1076.97 192.371C1078.67 192.371 1080.65 192.371 1082.73 192.301V188.668C1079.94 188.34 1078.02 186.488 1078.05 183.863C1078.02 180.957 1080.39 178.988 1083.67 178.965ZM1083.67 180.582C1081.44 180.582 1079.83 181.918 1079.85 183.863C1079.83 185.809 1081.44 187.168 1083.67 187.145C1085.87 187.168 1087.47 185.809 1087.47 183.863C1087.47 181.918 1085.87 180.582 1083.67 180.582ZM1093.94 177.605V198.488H1092.11V177.605H1093.94ZM1116.29 187.285V188.738H1097.21V187.285H1116.29ZM1113.9 190.402V194.832H1101.38V196.824H1114.58V198.16H1099.53V193.566H1112.07V191.785H1099.51V190.402H1113.9ZM1113.83 178.238V182.551H1101.52V184.379H1114.2V185.715H1099.69V181.285H1111.97V179.574H1099.62V178.238H1113.83ZM1139.57 177.605V182.645H1142.71V184.191H1139.57V189.793H1137.74V177.605H1139.57ZM1125.97 178.801V181.988H1132.04V178.801H1133.87V188.48H1124.17V178.801H1125.97ZM1125.97 187.004H1132.04V183.465H1125.97V187.004ZM1139.73 190.965V192.441H1128.32V196.66H1140.13V198.16H1126.49V190.965H1139.73ZM1149.24 179.223C1152.31 179.246 1154.49 182.059 1154.51 186.488C1154.49 190.918 1152.31 193.73 1149.24 193.73C1146.14 193.73 1143.99 190.918 1143.99 186.488C1143.99 182.059 1146.14 179.246 1149.24 179.223ZM1149.24 180.863C1147.18 180.887 1145.72 183.09 1145.72 186.488C1145.72 189.887 1147.18 192.09 1149.24 192.09C1151.32 192.09 1152.73 189.887 1152.73 186.488C1152.73 183.09 1151.32 180.887 1149.24 180.863ZM1159.79 177.605V185.926H1163.28V187.52H1159.79V198.441H1157.96V177.605H1159.79ZM1180.87 187.379V188.879H1174.43V194.27H1183.12V195.816H1164.04V194.27H1172.62V188.879H1166.48V179.316H1180.66V180.816H1168.33V187.379H1180.87ZM757.179 211.887C757.156 214.863 759.265 217.488 762.336 218.52L761.304 219.949C759.008 219.082 757.203 217.395 756.312 215.191C755.41 217.688 753.5 219.633 750.992 220.582L749.984 219.082C753.195 217.957 755.328 215.191 755.351 211.957V209.801H757.179V211.887ZM767.281 208.605V220.957H765.429V214.605H760.789V213.082H765.429V208.605H767.281ZM760.367 221.566C764.703 221.566 767.351 222.996 767.351 225.504C767.351 227.988 764.703 229.395 760.367 229.395C756.031 229.395 753.383 227.988 753.383 225.504C753.383 222.996 756.031 221.566 760.367 221.566ZM760.367 223.02C757.179 223.02 755.187 223.957 755.211 225.504C755.187 227.004 757.179 227.918 760.367 227.918C763.554 227.918 765.523 227.004 765.523 225.504C765.523 223.957 763.554 223.02 760.367 223.02ZM777.632 212.449C777.632 215.168 779.718 217.746 782.765 218.801L781.804 220.254C779.448 219.41 777.632 217.664 776.741 215.52C775.839 217.922 773.917 219.844 771.444 220.746L770.483 219.293C773.554 218.191 775.78 215.402 775.78 212.473V211.559H771.069V210.059H782.296V211.559H777.632V212.449ZM787.663 222.199V229.441H785.812V223.723H773.648V222.199H787.663ZM787.663 208.605V221.098H785.812V215.613H781.64V214.066H785.812V208.605H787.663ZM807.952 208.605V229.488H806.1V208.605H807.952ZM796.866 210.223C799.959 210.246 802.186 213.059 802.186 217.488C802.186 221.918 799.959 224.73 796.866 224.73C793.748 224.73 791.545 221.918 791.545 217.488C791.545 213.059 793.748 210.246 796.866 210.223ZM796.866 211.863C794.78 211.887 793.327 214.09 793.327 217.488C793.327 220.887 794.78 223.09 796.866 223.09C798.952 223.09 800.405 220.887 800.405 217.488C800.405 214.09 798.952 211.887 796.866 211.863ZM826.31 209.965C830.739 209.988 833.927 212.145 833.927 215.426C833.927 218.531 831.161 220.594 827.2 220.84V225.223H835.896V226.77H816.818V225.223H825.396V220.84C821.446 220.582 818.693 218.52 818.693 215.426C818.693 212.145 821.88 209.988 826.31 209.965ZM826.31 211.488C822.935 211.488 820.474 213.082 820.474 215.426C820.474 217.84 822.935 219.387 826.31 219.41C829.685 219.387 832.146 217.84 832.146 215.426C832.146 213.082 829.685 211.488 826.31 211.488ZM856.278 225.27V226.816H837.2V225.27H856.278ZM853.864 210.199V216.504H841.418V219.926H854.356V221.402H839.59V215.004H852.059V211.723H839.543V210.199H853.864ZM865.035 215.004C865.035 218.543 867.613 222.129 870.683 223.465L869.652 224.918C867.215 223.805 865.105 221.402 864.144 218.52C863.16 221.578 861.062 224.238 858.683 225.434L857.582 223.98C860.558 222.551 863.16 218.613 863.183 215.004V212.285H858.262V210.762H870.004V212.285H865.035V215.004ZM874.762 208.605V229.441H872.91V208.605H874.762ZM889.44 209.801C892.557 209.801 894.854 211.793 894.854 214.605C894.854 217.441 892.557 219.41 889.44 219.434C886.323 219.41 884.003 217.441 884.026 214.605C884.003 211.793 886.323 209.801 889.44 209.801ZM889.44 211.348C887.401 211.348 885.807 212.73 885.831 214.605C885.807 216.527 887.401 217.91 889.44 217.91C891.503 217.91 893.049 216.527 893.049 214.605C893.049 212.73 891.503 211.348 889.44 211.348ZM899.917 208.605V213.316H903.057V214.84H899.917V219.035H898.088V208.605H899.917ZM887.635 221.285V227.355C888.842 227.32 890.448 227.145 891.924 226.652L892.206 228.129C890.167 228.809 888.198 228.879 886.838 228.879H885.854V221.285H887.635ZM902.003 221.379V222.809H891.479V221.379H895.862V219.527H897.667V221.379H902.003ZM896.729 223.512C899.003 223.512 900.62 224.66 900.643 226.465C900.62 228.27 899.003 229.395 896.729 229.395C894.432 229.395 892.838 228.27 892.862 226.465C892.838 224.66 894.432 223.512 896.729 223.512ZM896.729 224.848C895.44 224.848 894.503 225.504 894.503 226.465C894.503 227.449 895.44 228.082 896.729 228.082C898.042 228.082 898.956 227.449 898.956 226.465C898.956 225.504 898.042 224.848 896.729 224.848ZM920.861 214.934V216.41H906.588V209.379H908.416V214.934H920.861ZM923.064 219.246V220.746H903.986V219.246H923.064ZM920.978 227.402V228.926H906.471V222.879H908.299V227.402H920.978ZM940.517 208.605V216.855H944.009V218.402H940.517V229.488H938.689V208.605H940.517ZM935.033 210.645V212.168H927.134V222.715C930.908 222.715 933.579 222.539 936.673 221.965L936.908 223.559C933.65 224.145 930.908 224.262 926.947 224.262H925.306V210.645H935.033ZM955.321 210.434V212.285H960.196V208.629H962.048V223.84H960.196V218.285H955.321V220.16H945.758V210.434H955.321ZM947.587 211.957V218.684H953.516V211.957H947.587ZM962.516 227.449V228.996H948.571V222.48H950.423V227.449H962.516ZM955.321 216.762H960.196V213.832H955.321V216.762ZM989.874 219.645V221.145H981.39V225.223H979.562V221.145H970.796V219.645H989.874ZM987.742 227.449V228.996H973.234V223.301H975.062V227.449H987.742ZM975.179 209.285V211.957H985.492V209.285H987.32V217.605H973.351V209.285H975.179ZM975.179 216.105H985.492V213.363H975.179V216.105ZM1008.48 208.605V220.957H1006.62V217.676H1001.75V219.457H992.186V210.199H1001.75V212.004H1006.62V208.605H1008.48ZM994.014 211.699V217.957H999.944V211.699H994.014ZM1001.56 221.566C1005.9 221.566 1008.55 222.996 1008.55 225.504C1008.55 227.988 1005.9 229.395 1001.56 229.395C997.225 229.395 994.577 227.988 994.577 225.504C994.577 222.996 997.225 221.566 1001.56 221.566ZM1001.56 222.996C998.374 223.02 996.382 223.934 996.405 225.504C996.382 227.004 998.374 227.941 1001.56 227.941C1004.75 227.941 1006.72 227.004 1006.72 225.504C1006.72 223.934 1004.75 223.02 1001.56 222.996ZM1001.75 216.129H1006.62V213.527H1001.75V216.129ZM1036.3 219.27V220.793H1027.82V225.059H1025.99V220.793H1017.22V219.27H1036.3ZM1033.82 209.637V216.879H1019.71V209.637H1033.82ZM1021.51 211.09V215.402H1031.99V211.09H1021.51ZM1034.17 227.449V228.996H1019.66V222.996H1021.51V227.449H1034.17ZM1055.44 208.605V229.441H1053.68V208.605H1055.44ZM1051.22 209.121V228.363H1049.49V217.629H1045.97V216.129H1049.49V209.121H1051.22ZM1043.75 214.559C1043.75 218.168 1045.36 221.754 1048.25 223.418L1047.12 224.777C1045.07 223.547 1043.62 221.297 1042.9 218.637C1042.14 221.508 1040.63 223.957 1038.54 225.27L1037.37 223.887C1040.28 222.152 1041.97 218.355 1041.97 214.559V212.59H1037.96V211.066H1047.57V212.59H1043.75V214.559ZM1074.14 208.605V217.09H1077.51V218.637H1074.14V229.441H1072.31V208.605H1074.14ZM1068.75 210.855C1068.75 216.762 1065.98 222.129 1059.18 225.48L1058.15 224.027C1063.54 221.344 1066.47 217.336 1066.89 212.402H1059.11V210.855H1068.75ZM1091.11 222.598C1091.11 224.438 1092.1 226.395 1094.09 227.52C1096.06 226.289 1097.11 224.215 1097.11 222.598V221.449H1098.92V222.598C1098.92 224.73 1100.49 226.887 1103.16 227.801L1102.24 229.16C1100.16 228.422 1098.69 226.969 1097.98 225.223C1097.33 226.91 1096.06 228.504 1094.14 229.324C1092.11 228.551 1090.82 227.016 1090.2 225.27C1089.46 226.957 1088.02 228.41 1086.03 229.16L1085.09 227.801C1087.71 226.816 1089.31 224.59 1089.33 222.598V221.449H1091.11V222.598ZM1101.26 208.629V220.535H1099.43V208.629H1101.26ZM1090.01 209.848C1093.17 209.848 1095.47 211.816 1095.47 214.723C1095.47 217.582 1093.17 219.551 1090.01 219.551C1086.85 219.551 1084.55 217.582 1084.55 214.723C1084.55 211.816 1086.85 209.848 1090.01 209.848ZM1090.01 211.418C1087.88 211.395 1086.33 212.777 1086.35 214.723C1086.33 216.645 1087.88 218.004 1090.01 218.027C1092.12 218.004 1093.67 216.645 1093.67 214.723C1093.67 212.777 1092.12 211.395 1090.01 211.418ZM1108.68 221.121V223.559H1119.09V221.121H1120.94V229.16H1106.85V221.121H1108.68ZM1108.68 227.684H1119.09V225.012H1108.68V227.684ZM1123.42 218.121V219.645H1104.44V218.121H1123.42ZM1114.89 209.824C1114.89 212.402 1118.69 214.699 1122.35 215.168L1121.67 216.645C1118.43 216.164 1115.27 214.512 1113.96 212.168C1112.62 214.523 1109.43 216.164 1106.22 216.645L1105.52 215.168C1109.22 214.676 1112.99 212.473 1112.99 209.824V208.84H1114.89V209.824ZM1142 208.605V229.441H1140.17V208.605H1142ZM1127.99 210.668V222.48C1131.16 222.469 1134.45 222.211 1137.95 221.473L1138.2 223.043C1134.5 223.816 1131.2 224.074 1127.87 224.074H1126.18V210.668H1127.99ZM1161.33 208.605V216.855H1164.82V218.402H1161.33V229.488H1159.5V208.605H1161.33ZM1155.84 210.645V212.168H1147.95V222.715C1151.72 222.715 1154.39 222.539 1157.49 221.965L1157.72 223.559C1154.46 224.145 1151.72 224.262 1147.76 224.262H1146.12V210.645H1155.84ZM1167.79 227.684C1166.97 227.684 1166.27 227.004 1166.29 226.16C1166.27 225.34 1166.97 224.66 1167.79 224.66C1168.61 224.66 1169.29 225.34 1169.29 226.16C1169.29 227.004 1168.61 227.684 1167.79 227.684Z" fill="#0B0B0B"/>
<path d="M759.798 55.9062C759.759 60.8672 763.275 65.2422 768.392 66.9609L766.673 69.3438C762.845 67.8984 759.837 65.0859 758.353 61.4141C756.849 65.5742 753.666 68.8164 749.486 70.3984L747.806 67.8984C753.158 66.0234 756.712 61.4141 756.752 56.0234V52.4297H759.798V55.9062ZM776.634 50.4375V71.0234H773.548V60.4375H765.814V57.8984H773.548V50.4375H776.634ZM765.111 72.0391C772.337 72.0391 776.752 74.4219 776.752 78.6016C776.752 82.7422 772.337 85.0859 765.111 85.0859C757.884 85.0859 753.47 82.7422 753.47 78.6016C753.47 74.4219 757.884 72.0391 765.111 72.0391ZM765.111 74.4609C759.798 74.4609 756.478 76.0234 756.517 78.6016C756.478 81.1016 759.798 82.625 765.111 82.625C770.423 82.625 773.705 81.1016 773.705 78.6016C773.705 76.0234 770.423 74.4609 765.111 74.4609ZM793.886 56.8438C793.886 61.375 797.362 65.6719 802.441 67.4297L800.839 69.8516C796.913 68.4453 793.886 65.5352 792.402 61.9609C790.898 65.9648 787.695 69.168 783.573 70.6719L781.972 68.25C787.089 66.4141 790.8 61.7656 790.8 56.8828V55.3594H782.948V52.8594H801.659V55.3594H793.886V56.8438ZM810.605 73.0938V85.1641H807.519V75.6328H787.245V73.0938H810.605ZM810.605 50.4375V71.2578H807.519V62.1172H800.566V59.5391H807.519V50.4375H810.605ZM842.934 50.4375V61.0234H848.169V63.6016H842.934V76.0625H839.887V50.4375H842.934ZM844.536 81.8438V84.4219H821.216V73.4062H824.223V81.8438H844.536ZM825.552 52.8984C830.747 52.8984 834.653 56.4141 834.692 61.4531C834.653 66.4922 830.747 70.0078 825.552 70.0078C820.356 70.0078 816.411 66.4922 816.45 61.4531C816.411 56.4141 820.356 52.8984 825.552 52.8984ZM825.552 55.5938C822.114 55.5938 819.419 58.0156 819.458 61.4531C819.419 64.8906 822.114 67.3125 825.552 67.3125C829.067 67.3125 831.684 64.8906 831.684 61.4531C831.684 58.0156 829.067 55.5938 825.552 55.5938ZM865.577 52.7031C872.959 52.7422 878.272 56.3359 878.272 61.8047C878.272 66.9805 873.662 70.418 867.061 70.8281V78.1328H881.553V80.7109H849.756V78.1328H864.053V70.8281C857.471 70.3984 852.881 66.9609 852.881 61.8047C852.881 56.3359 858.194 52.7422 865.577 52.7031ZM865.577 55.2422C859.952 55.2422 855.85 57.8984 855.85 61.8047C855.85 65.8281 859.952 68.4062 865.577 68.4453C871.202 68.4062 875.303 65.8281 875.303 61.8047C875.303 57.8984 871.202 55.2422 865.577 55.2422ZM915.523 78.2109V80.7891H883.727V78.2109H915.523ZM911.5 53.0938V63.6016H890.758V69.3047H912.32V71.7656H887.711V61.1016H908.492V55.6328H887.633V53.0938H911.5ZM945.783 60.9844V63.4453H921.994V51.7266H925.041V60.9844H945.783ZM949.455 68.1719V70.6719H917.658V68.1719H949.455ZM945.978 81.7656V84.3047H921.798V74.2266H924.845V81.7656H945.978ZM978.528 53.6797C978.528 58.5625 984.934 62.8203 991.184 63.6797L989.934 66.1797C984.544 65.2812 979.212 62.293 976.966 58.0156C974.739 62.3125 969.387 65.2812 963.997 66.1797L962.747 63.6797C968.997 62.8203 975.364 58.6406 975.364 53.6797V51.6875H978.528V53.6797ZM992.747 70.0078V72.5859H978.372V85.1641H975.364V72.5859H961.106V70.0078H992.747ZM1004.65 52.0781C1009.31 52.0391 1012.85 54.7539 1013.51 58.7578H1020.78V50.4375H1023.87V69.0703H1020.78V61.2969H1013.55C1012.93 65.3984 1009.35 68.1328 1004.65 68.1328C999.373 68.1328 995.623 64.8516 995.623 60.0859C995.623 55.3594 999.373 52.0391 1004.65 52.0781ZM1004.65 54.6953C1001.09 54.6562 998.553 56.8828 998.553 60.0859C998.553 63.25 1001.09 65.5547 1004.65 65.5547C1008.16 65.5547 1010.66 63.25 1010.66 60.0859C1010.66 56.8828 1008.16 54.6562 1004.65 54.6953ZM1004.57 70.8281V75.2422H1020.78V70.8281H1023.87V84.6953H1001.48V70.8281H1004.57ZM1004.57 82.1953H1020.78V77.7031H1004.57V82.1953ZM1046.59 53.6016V69.5781H1030.53V53.6016H1046.59ZM1033.54 56.1016V67.1172H1043.62V56.1016H1033.54ZM1056.2 50.4375V61.0234H1061.43V63.6016H1056.2V75.9062H1053.15V50.4375H1056.2ZM1057.8 81.8438V84.4219H1034.48V73.4844H1037.48V81.8438H1057.8ZM1104.14 65.0469V67.5078H1072.46V65.0469H1104.14ZM1100.35 59.6953V62.1953H1076.67V51.6484H1100V54.1094H1079.76V59.6953H1100.35ZM1100.03 70.6328V78.6797H1079.41V82.2734H1101.09V84.7734H1076.36V76.375H1097.03V73.0156H1076.28V70.6328H1100.03ZM1122.25 52.7031C1129.51 52.7031 1134.94 56.4922 1134.94 62.2344C1134.94 68.0156 1129.51 71.8047 1122.25 71.7656C1114.98 71.8047 1109.55 68.0156 1109.55 62.2344C1109.55 56.4922 1114.98 52.7031 1122.25 52.7031ZM1122.25 55.2031C1116.66 55.1641 1112.44 58.0938 1112.48 62.2344C1112.44 66.4531 1116.66 69.2656 1122.25 69.2656C1127.79 69.2656 1131.97 66.4531 1131.97 62.2344C1131.97 58.0938 1127.79 55.1641 1122.25 55.2031ZM1138.22 77.9766V80.5547H1106.43V77.9766H1138.22ZM1157.62 53.9141V58.7969H1166.14V50.4375H1169.19V85.2422H1166.14V70.9062H1157.62V76.375H1141.8V53.9141H1157.62ZM1144.85 56.3359V73.9141H1154.65V56.3359H1144.85ZM1157.62 68.3672H1166.14V61.3359H1157.62V68.3672ZM809.784 104.898V109.312H788.534V104.898H796.347V101.734H801.972V104.898H809.784ZM799.159 110.211C804.394 110.211 808.066 112.945 808.066 116.852C808.066 120.836 804.394 123.531 799.159 123.531C793.964 123.531 790.175 120.836 790.214 116.852C790.175 112.945 793.964 110.211 799.159 110.211ZM799.159 114.43C797.089 114.43 795.683 115.211 795.683 116.852C795.683 118.531 797.089 119.273 799.159 119.273C801.269 119.273 802.714 118.531 802.714 116.852C802.714 115.211 801.269 114.43 799.159 114.43ZM817.128 101.891V110.992H821.777V115.562H817.128V124.391H811.503V101.891H817.128ZM817.128 125.758V137.75H811.503V130.25H792.792V125.758H817.128ZM853.169 101.93V128.961H847.505V126.383H840.825V122.594H847.505V101.93H853.169ZM853.911 132.672V137.164H826.802V126.383H831.723V121.852C828.638 121.969 825.688 122.008 823.052 122.008L822.427 117.594C828.989 117.516 837.778 117.438 845.317 116.5L845.63 120.484C842.934 120.953 840.141 121.285 837.388 121.5V128.219H832.427V132.672H853.911ZM834.028 103.062C839.263 103.062 843.013 105.758 843.013 109.547C843.013 113.414 839.263 115.914 834.028 115.914C828.716 115.914 825.005 113.414 825.005 109.547C825.005 105.758 828.716 103.062 834.028 103.062ZM834.028 107.164C831.802 107.164 830.317 107.945 830.317 109.547C830.317 111.109 831.802 111.891 834.028 111.891C836.138 111.891 837.661 111.109 837.7 109.547C837.661 107.945 836.138 107.164 834.028 107.164ZM886.631 101.891V137.828H880.967V101.891H886.631ZM863.858 104.703V113.18H870.616V104.703H876.163V129.547H858.194V104.703H863.858ZM863.858 124.977H870.616V117.516H863.858V124.977ZM908.805 104.781V122.203H891.422V104.781H908.805ZM896.969 109.234V117.828H903.258V109.234H896.969ZM919.039 101.93V112.047H923.688V116.656H919.039V128.023H913.414V101.93H919.039ZM920.211 132.672V137.164H895.523V125.406H901.148V132.672H920.211ZM963.777 101.891V137.75H958.425V120.016H955.613V136.031H950.378V102.438H955.613V115.523H958.425V101.891H963.777ZM939.753 105.758V124.234C942.429 124.156 945.378 123.902 948.542 123.297L949.089 128.141C944.363 128.961 940.261 129.195 936.628 129.156H934.128V105.758H939.753ZM996.536 104.82V108.18C996.536 112.672 996.536 117.789 995.091 125.523L989.387 124.938C990.755 118.375 990.852 113.395 990.911 109.273H970.13V104.82H996.536ZM999.466 129.039V133.57H966.77V129.039H978.137V116.852H983.723V129.039H999.466ZM1022.41 124.547C1022.41 127.34 1023.48 130.211 1026.23 132.164C1029.01 130.113 1030.14 127.184 1030.18 124.547V123.57H1035.73V124.547C1035.69 128.336 1037.45 131.695 1042.25 133.141L1039.55 137.203C1036.18 136.109 1034.01 134.02 1032.76 131.305C1031.57 134.02 1029.52 136.305 1026.35 137.516C1023.03 136.344 1020.96 134.117 1019.79 131.422C1018.5 134.02 1016.37 136.09 1013.15 137.203L1010.38 133.141C1015.14 131.539 1016.9 128.062 1016.94 124.547V123.57H1022.41V124.547ZM1039.2 101.93V122.125H1033.58V101.93H1039.2ZM1019.48 103.648C1025.1 103.688 1029.4 107.281 1029.4 112.359C1029.4 117.359 1025.1 120.992 1019.48 120.992C1013.85 120.992 1009.52 117.359 1009.55 112.359C1009.52 107.281 1013.85 103.688 1019.48 103.648ZM1019.48 108.375C1016.86 108.375 1015.02 109.781 1015.02 112.359C1015.02 114.859 1016.86 116.344 1019.48 116.344C1022.02 116.344 1023.81 114.859 1023.81 112.359C1023.81 109.781 1022.02 108.375 1019.48 108.375ZM1076.3 115.25V119.82H1071.49V137.633H1065.87V101.891H1071.49V115.25H1076.3ZM1049.7 105.289V124.352C1054.07 124.254 1058.82 123.824 1063.76 122.867L1064.35 127.516C1058.41 128.727 1052.51 129 1047.28 129H1044.07V105.289H1049.7ZM1109.8 129.117V133.688H1077.03V129.117H1084.1V120.602C1081.42 118.902 1079.8 116.363 1079.8 113.219C1079.8 107.359 1085.54 103.492 1093.35 103.492C1101.17 103.492 1106.99 107.359 1106.99 113.219C1106.99 116.305 1105.41 118.805 1102.81 120.484V129.117H1109.8ZM1093.35 107.906C1088.47 107.867 1085.35 109.781 1085.39 113.219C1085.35 116.617 1088.47 118.609 1093.35 118.609C1098.2 118.609 1101.4 116.617 1101.4 113.219C1101.4 109.781 1098.2 107.867 1093.35 107.906ZM1089.64 129.117H1097.1V122.633C1095.91 122.848 1094.66 122.945 1093.35 122.945C1092.05 122.945 1090.82 122.848 1089.64 122.633V129.117ZM1117.44 124.82C1117.44 120.094 1118.65 118.648 1120.88 117.242C1122.6 116.148 1123.93 115.055 1123.93 113.336C1123.93 111.617 1122.56 110.523 1120.88 110.523C1119.24 110.523 1117.72 111.695 1117.68 113.648H1111.47C1111.54 107.906 1115.8 105.328 1120.92 105.328C1126.58 105.328 1130.68 108.062 1130.68 113.023C1130.68 116.305 1128.93 118.336 1126.31 119.898C1124.2 121.148 1123.18 122.32 1123.18 124.82V125.367H1117.44V124.82ZM1120.41 134.391C1118.46 134.391 1116.86 132.828 1116.9 130.836C1116.86 128.922 1118.46 127.359 1120.41 127.359C1122.29 127.359 1123.93 128.922 1123.97 130.836C1123.93 132.828 1122.29 134.391 1120.41 134.391Z" fill="#0B0B0B"/>
</g>
<defs>
<linearGradient id="paint0_linear_1219_5140" x1="134.5" y1="0" x2="134.5" y2="1920" gradientUnits="userSpaceOnUse">
<stop stop-color="#1E4770"/>
<stop offset="0.3" stop-color="#071B26"/>
<stop offset="0.8" stop-color="#701E1E"/>
<stop offset="1" stop-color="#240E03"/>
</linearGradient>
<clipPath id="clip0_1219_5140">
<rect width="269" height="1920" fill="white" transform="translate(0 269.543) rotate(-90)"/>
</clipPath>
</defs>
</svg>
