<svg width="1920" height="124" viewBox="0 0 1920 124" fill="none" xmlns="http://www.w3.org/2000/svg">
<g clip-path="url(#clip0_1219_5474)">
<rect width="123" height="1920" transform="translate(0 123.543) rotate(-90)" fill="url(#paint0_linear_1219_5474)"/>
<rect width="123" height="1920" transform="translate(0 123.543) rotate(-90)" fill="#D8D1BE"/>
<path d="M709.811 72.293V66.4492H703.967V62.543H709.811V56.6992H713.717V62.543H719.561V66.4492H713.717V72.293H709.811ZM751.914 47.9805V59.1055H756.101V62.3867H751.914V76.418H747.976V47.9805H751.914ZM746.039 52.2305V55.418H729.32V52.2305H735.757V48.418H739.757V52.2305H746.039ZM737.757 57.0117C741.914 57.0117 745.007 59.8242 745.007 63.793C745.007 67.7617 741.914 70.5742 737.757 70.5742C733.57 70.5742 730.476 67.7617 730.476 63.793C730.476 59.8242 733.57 57.0117 737.757 57.0117ZM737.757 60.2305C735.757 60.2617 734.289 61.6055 734.289 63.793C734.289 66.0117 735.757 67.3242 737.757 67.293C739.757 67.3242 741.195 66.0117 741.195 63.793C741.195 61.6055 739.757 60.2617 737.757 60.2305ZM779.653 48.8555V57.3242H763.746V59.6992H780.309V62.8867H759.715V54.3242H775.559V52.0742H759.621V48.8555H779.653ZM782.653 65.0117V68.1992H771.59V76.4805H767.59V68.1992H756.621V65.0117H782.653ZM808.485 47.9805V76.418H804.673V47.9805H808.485ZM802.548 48.3867V75.1055H798.798V61.668H796.516C796.141 67.2617 793.766 70.6367 790.266 70.6367C786.516 70.6367 784.079 66.6992 784.079 60.293C784.079 53.918 786.516 50.0117 790.266 50.0117C793.688 50.0117 796.032 53.1992 796.485 58.5117H798.798V48.3867H802.548ZM790.266 53.7617C788.673 53.7617 787.735 55.9492 787.766 60.293C787.735 64.668 788.673 66.8242 790.266 66.793C791.891 66.8242 792.86 64.668 792.86 60.293C792.86 55.9492 791.891 53.7617 790.266 53.7617ZM834.192 60.6992V63.8555H825.942V69.918H837.036V73.168H811.005V69.918H821.974V63.8555H814.067V49.9805H833.974V53.168H818.067V60.6992H834.192ZM860.17 50.1992C860.17 53.543 863.576 57.2617 870.107 58.0742L868.545 61.293C863.576 60.5742 859.936 58.2773 858.076 55.1992C856.201 58.2773 852.592 60.5742 847.67 61.293L846.076 58.0742C852.545 57.2617 855.982 53.543 855.982 50.1992V48.8242H860.17V50.1992ZM871.014 63.4492V66.6992H859.951V76.418H856.014V66.6992H845.076V63.4492H871.014ZM883.159 51.4805C883.128 54.8242 885.19 58.168 889.846 59.5117L887.94 62.6055C884.659 61.6367 882.393 59.668 881.096 57.1367C879.815 59.8867 877.471 62.0586 874.065 63.0742L872.159 59.9492C876.909 58.543 879.003 54.9492 879.003 51.4805V48.8242H883.159V51.4805ZM896.065 47.9805V63.2617H892.065V47.9805H896.065ZM880.971 64.5117V67.168H892.096V64.5117H896.065V76.1055H877.034V64.5117H880.971ZM880.971 72.8867H892.096V70.2617H880.971V72.8867ZM923.397 48.0117V68.793H919.429V59.5117H914.335V56.2305H919.429V48.0117H923.397ZM914.585 50.1055C914.585 57.7305 909.741 63.3555 901.429 65.9492L899.804 62.793C905.694 60.9492 909.491 57.5586 910.241 53.3555H901.272V50.1055H914.585ZM924.116 72.7305V75.918H904.647V66.6992H908.71V72.7305H924.116ZM951.011 65.8555V76.418H947.011V69.0117H930.667V65.8555H951.011ZM951.011 47.9805V64.543H947.011V47.9805H951.011ZM934.042 51.418C934.042 53.9023 934.386 56.8086 936.042 59.043C937.621 56.8242 937.98 53.9492 938.011 51.418V49.6055H941.73V51.418C941.73 54.918 942.636 58.6992 945.949 60.668L943.792 63.4805C941.824 62.3086 940.605 60.4805 939.886 58.3242C939.199 60.5586 938.027 62.5586 936.042 63.8242C934.042 62.5586 932.855 60.5586 932.167 58.293C931.433 60.4492 930.23 62.3086 928.292 63.4805L926.105 60.668C929.449 58.6367 930.292 54.793 930.292 51.418V49.6055H934.042V51.418ZM984.645 65.418V76.1055H965.645V65.418H984.645ZM969.582 68.5742V72.918H980.739V68.5742H969.582ZM966.207 49.4805V59.793C969.77 59.7461 973.426 59.4648 977.239 58.6992L977.645 62.043C973.145 62.9492 968.895 63.168 964.645 63.168H962.27V49.4805H966.207ZM984.645 47.9805V64.2305H980.676V55.9805H973.614V52.7617H980.676V47.9805H984.645ZM1011.85 47.9805V76.4805H1007.88V65.6367H1002.98V62.418H1007.88V59.793H1002.98V56.5117H1007.88V47.9805H1011.85ZM998.509 56.8867C998.509 61.0117 1000.76 65.668 1005.42 67.6992L1003.23 70.7305C1000.04 69.3867 997.79 66.6367 996.54 63.3867C995.321 66.8242 993.071 69.7148 989.821 71.1055L987.728 68.043C992.29 66.0117 994.509 61.168 994.54 56.8867V55.793H988.634V52.6055H994.54V48.6055H998.54V52.6055H1004.29V55.793H998.509V56.8867ZM1041.5 58.7617V62.0117H1037.47V76.3555H1033.47V47.9805H1037.47V58.7617H1041.5ZM1019.9 50.6992V66.1055C1023.54 66.0586 1027.45 65.7148 1031.56 64.8867L1031.97 68.1992C1027.22 69.168 1022.59 69.418 1018.4 69.418H1015.93V50.6992H1019.9ZM1065.3 55.7305V58.8555H1045.42V48.9805H1049.39V55.7305H1065.3ZM1068.2 61.918V65.043H1042.17V61.918H1068.2ZM1065.49 72.6055V75.793H1045.17V67.3555H1049.17V72.6055H1065.49ZM1102.28 63.793V67.0117H1096.18V76.418H1092.12V67.0117H1086.31V76.418H1082.21V67.0117H1076.24V63.793H1102.28ZM1089.18 48.918C1095.28 48.918 1099.56 51.4492 1099.56 55.3555C1099.56 59.1992 1095.28 61.6055 1089.18 61.6055C1083.09 61.6055 1078.84 59.1992 1078.87 55.3555C1078.84 51.4492 1083.09 48.918 1089.18 48.918ZM1089.18 52.1055C1085.37 52.1055 1082.93 53.2617 1082.96 55.3555C1082.93 57.3555 1085.37 58.4805 1089.18 58.4805C1093.03 58.4805 1095.43 57.3555 1095.43 55.3555C1095.43 53.2617 1093.03 52.1055 1089.18 52.1055ZM1129.45 64.793V68.043H1123.45V76.418H1119.42V68.043H1113.48V76.418H1109.51V68.043H1103.42V64.793H1129.45ZM1126.67 59.6367V62.793H1106.7V49.1367H1126.36V52.2617H1110.61V54.3555H1125.76V57.4492H1110.61V59.6367H1126.67ZM1156.66 69.7305V72.9805H1130.63V69.7305H1156.66ZM1137.38 49.793V54.5117H1149.79V49.793H1153.75V64.9805H1133.38V49.793H1137.38ZM1137.38 61.8555H1149.79V57.6055H1137.38V61.8555ZM1189.29 50.918V54.1367H1165.95V50.918H1175.67V47.9492H1179.64V50.918H1189.29ZM1190.73 66.3555V69.6055H1179.64V76.4492H1175.67V69.6055H1164.7V66.3555H1190.73ZM1177.67 55.2305C1183.76 55.2305 1187.45 56.9492 1187.48 60.1055C1187.45 63.2617 1183.76 64.9805 1177.67 64.9805C1171.51 64.9805 1167.83 63.2617 1167.86 60.1055C1167.83 56.9492 1171.51 55.2305 1177.67 55.2305ZM1177.67 58.168C1173.86 58.1992 1171.98 58.793 1171.98 60.1055C1171.98 61.3867 1173.86 62.0117 1177.67 62.0117C1181.42 62.0117 1183.33 61.3867 1183.33 60.1055C1183.33 58.793 1181.42 58.1992 1177.67 58.168ZM1215.78 47.9805V76.418H1211.75V47.9805H1215.78ZM1207.25 50.9492C1207.25 59.5742 1204.22 66.7305 1194.06 71.543L1191.97 68.3555C1199.31 64.8867 1202.55 60.3867 1203.19 54.0742H1193.5V50.9492H1207.25Z" fill="#0B0B0B"/>
</g>
<defs>
<linearGradient id="paint0_linear_1219_5474" x1="61.5" y1="0" x2="61.5" y2="1920" gradientUnits="userSpaceOnUse">
<stop stop-color="#1E4770"/>
<stop offset="0.3" stop-color="#071B26"/>
<stop offset="0.8" stop-color="#701E1E"/>
<stop offset="1" stop-color="#240E03"/>
</linearGradient>
<clipPath id="clip0_1219_5474">
<rect width="123" height="1920" fill="white" transform="translate(0 123.543) rotate(-90)"/>
</clipPath>
</defs>
</svg>
