<svg width="48" height="48" viewBox="0 0 48 48" fill="none" xmlns="http://www.w3.org/2000/svg">
<path opacity="0.15" d="M24 22C28.4183 22 32 18.4183 32 14C32 9.58172 28.4183 6 24 6C19.5817 6 16 9.58172 16 14C16 18.4183 19.5817 22 24 22Z" fill="#701E1E"/>
<path d="M41.9062 26V25.99M38 14.8C38.5216 13.1772 40.0733 12 41.9063 12C44.1672 12 46 13.7909 46 16C46 19.2135 42.565 17.6336 42 21M16 30H32C36.4183 30 40 33.5817 40 38V42H8V38C8 33.5817 11.5817 30 16 30ZM32 14C32 18.4183 28.4183 22 24 22C19.5817 22 16 18.4183 16 14C16 9.58172 19.5817 6 24 6C28.4183 6 32 9.58172 32 14Z" stroke="#701E1E" stroke-width="2.5" stroke-linecap="round" stroke-linejoin="round"/>
</svg>
