<svg width="161" height="52" viewBox="0 0 161 52" fill="none" xmlns="http://www.w3.org/2000/svg">
<g clip-path="url(#clip0_1315_2372)">
<path d="M57.5381 27.0956C54.5263 27.0801 52.6293 26.1413 51.9503 25.7436C51.524 24.9541 51.0713 22.4124 51.0078 20.7319C51.1886 20.4823 51.7264 20.413 51.8689 20.6292C52.397 22.4554 53.8496 25.9681 58.01 25.9896C61.0218 26.0052 62.502 24.0452 62.5128 21.8989C62.5212 20.3247 62.2074 18.5713 59.5979 16.8765L56.2028 14.6418C54.4161 13.4522 52.3455 11.4038 52.3611 8.47038C52.3778 5.07235 55.046 2.33243 59.7081 2.35512C60.8194 2.36109 62.1092 2.58205 63.0409 2.83646C63.5068 2.98217 64.0086 3.05623 64.2948 3.05742C64.6133 3.91738 64.9259 5.92156 64.9187 7.4241C64.7738 7.63789 64.2002 7.7418 64.0217 7.52681C63.5643 5.80809 62.6074 3.47784 59.1656 3.46112C55.6508 3.44321 54.8867 5.7639 54.8783 7.40976C54.8676 9.48441 56.5813 10.9953 57.9046 11.8242L60.7644 13.6265C63.017 15.0323 65.2289 17.1189 65.2121 20.5158C65.1917 24.4501 62.2026 27.1171 57.5405 27.0944L57.5381 27.0956Z" fill="white"/>
<path d="M75.0733 27.184C72.0614 27.1685 70.1645 26.2297 69.4855 25.832C69.0591 25.0425 68.6064 22.5008 68.543 20.8203C68.7238 20.5707 69.2615 20.5014 69.404 20.7176C69.9321 22.5438 71.3848 26.0565 75.5451 26.078C78.557 26.0935 80.0372 24.1336 80.048 21.9872C80.0563 20.413 79.7426 18.6597 77.1331 16.9648L73.738 14.7302C71.9512 13.5405 69.8806 11.4922 69.8962 8.55876C69.913 5.16073 72.5812 2.42081 77.2433 2.4435C78.3546 2.44947 79.6444 2.67043 80.5761 2.92484C81.0419 3.07055 81.5437 3.1446 81.8299 3.1458C82.1485 4.00576 82.4611 6.00994 82.4539 7.51248C82.309 7.72627 81.7353 7.83018 81.5569 7.61519C81.0994 5.89647 80.1426 3.56622 76.7008 3.5495C73.1859 3.53159 72.4219 5.85228 72.4135 7.49814C72.4027 9.57279 74.1164 11.0837 75.4397 11.9126L78.2995 13.7149C80.5509 15.1207 82.764 17.2073 82.7473 20.6041C82.7269 24.5385 79.7378 27.2055 75.0757 27.1828L75.0733 27.184Z" fill="white"/>
<path d="M89.2614 8.44312C89.2805 4.7238 89.2111 4.18633 87.0974 3.92595L86.5238 3.8519C86.3094 3.70738 86.3836 3.0648 86.6004 2.9585C88.1417 3.03733 89.3608 3.07913 90.8314 3.08749L97.5737 3.12213C99.8694 3.13407 101.984 3.14482 102.415 3.03971C102.627 3.64885 102.83 6.22514 102.965 7.79934C102.82 8.01314 102.247 8.08241 102.068 7.86623C101.539 6.18214 101.223 4.92923 99.3592 4.45506C98.6072 4.27232 97.4599 4.23052 95.8815 4.22335L93.2996 4.21021C92.2242 4.20424 92.223 4.2759 92.217 5.63512L92.181 12.7883C92.1762 13.7892 92.284 13.7904 93.3594 13.7952L95.4396 13.8059C96.9461 13.8131 98.0575 13.7474 98.4886 13.6064C98.9197 13.4655 99.1724 13.2517 99.3556 12.3595L99.6502 10.894C99.8311 10.6802 100.441 10.6838 100.583 10.9346C100.578 11.7934 100.429 13.1872 100.421 14.5464C100.415 15.834 100.552 17.1944 100.547 17.9803C100.402 18.2299 99.7928 18.2263 99.6143 18.0113L99.2982 16.6151C99.158 15.9701 98.9101 15.4327 98.1928 15.2499C97.691 15.1042 96.8312 15.0636 95.4324 15.0576L93.3523 15.0469C92.2768 15.0409 92.1691 15.0767 92.1643 16.0072L92.1391 21.0499C92.1295 22.9454 92.2313 24.1624 92.8014 24.7728C93.2289 25.2039 93.981 25.6017 97.1366 25.6172C99.8981 25.6315 100.939 25.493 101.729 25.1036C102.377 24.7489 103.351 23.5019 104.293 21.6471C104.545 21.4691 105.046 21.579 105.189 21.9015C104.931 23.152 104.021 25.9015 103.55 26.8653C100.322 26.7769 97.1306 26.7256 93.9391 26.7101L90.7116 26.6933C89.1692 26.6862 87.95 26.7148 85.834 26.7758C85.6196 26.6671 85.5501 26.095 85.7669 25.8812L86.9513 25.7796C88.9967 25.6112 89.1787 25.0749 89.1967 21.3198L89.2626 8.44431L89.2614 8.44312Z" fill="white"/>
<path d="M110.209 7.8327C110.222 5.32926 110.046 4.5768 108.54 4.35464L107.752 4.24357C107.466 4.06321 107.434 3.4911 107.793 3.35017C110.842 3.18653 113.747 3.09457 116.795 3.11009C119.807 3.12562 122.353 3.35255 124.679 4.22326C129.511 6.00051 131.929 10.0901 131.905 14.8115C131.882 19.3538 129.675 23.2415 125.574 25.438C123.237 26.6777 120.294 27.128 117.533 27.1137C115.237 27.1017 112.944 26.8043 111.689 26.7984C110.182 26.7912 108.891 26.8199 107.205 26.8832C106.991 26.7745 106.921 26.2024 107.138 25.9886L107.963 25.8858C110.044 25.6099 110.119 25.1812 110.138 21.426L110.207 7.83509L110.209 7.8327ZM113.084 20.6162C113.074 22.5117 113.176 23.6571 113.781 24.5183C114.564 25.6314 115.925 25.9957 118.184 26.0065C125.141 26.0411 128.285 21.5156 128.318 14.8629C128.338 10.9285 126.471 4.26626 117.075 4.21968C114.959 4.20893 113.811 4.48961 113.522 4.70221C113.234 4.91601 113.158 5.80941 113.15 7.41825L113.083 20.6162H113.084Z" fill="white"/>
<path d="M155.263 12.3879C155.274 10.1699 155.224 6.05646 154.619 4.98032C154.37 4.55034 153.726 4.29594 152.83 4.22069L151.934 4.14425C151.72 3.89223 151.794 3.42881 152.011 3.28668C153.374 3.36551 154.701 3.40731 156.098 3.41448C157.605 3.42165 158.572 3.39179 159.864 3.32609C160.151 3.50645 160.112 3.97106 159.931 4.18486L159.07 4.25174C158.173 4.31863 157.491 4.63753 157.273 5.10095C156.765 6.27862 156.744 10.3921 156.734 12.3951L156.714 16.4369C156.698 19.5483 156.18 22.8364 154.16 24.972C152.61 26.6453 149.951 27.5614 147.298 27.5483C144.824 27.5363 142.352 27.0586 140.603 25.5477C138.711 23.9639 137.827 21.3494 137.848 17.0926L137.892 8.65186C137.911 4.93254 137.841 4.32341 135.762 4.13469L134.866 4.05825C134.652 3.91373 134.726 3.30698 134.943 3.20068C136.736 3.28071 137.955 3.32371 139.39 3.33087C140.86 3.33804 142.043 3.30818 143.802 3.24607C144.016 3.35476 144.085 3.9627 143.869 4.10483L143.008 4.17172C140.926 4.34013 140.852 4.94807 140.833 8.66739L140.793 16.3927C140.764 22.1508 142.538 25.9514 148.024 25.9788C153.224 26.0051 155.217 21.9382 155.244 16.5014L155.265 12.3879H155.263Z" fill="white"/>
<path d="M58.1791 43.5319C58.0211 43.0291 57.9301 42.9598 57.2427 42.9563L53.7841 42.9383C53.2117 42.9359 53.0739 43.0028 52.9111 43.4818L52.0967 45.8765C51.7482 46.9025 51.5842 47.5188 51.583 47.7696C51.5818 48.0443 51.6955 48.1817 52.2452 48.2295L53.0009 48.3023C53.1602 48.417 53.159 48.7825 52.9518 48.8732C52.3566 48.8243 51.6464 48.8207 50.5698 48.7932C49.8142 48.7896 48.9891 48.8314 48.3711 48.8506C48.2346 48.7586 48.1903 48.3931 48.328 48.2796L49.0837 48.2151C49.6333 48.1721 50.1387 47.9237 50.4633 47.1032C50.8812 46.0545 51.5303 44.5723 52.5051 42.0187L54.8727 35.8628C55.1972 35.0423 55.3373 34.6087 55.2703 34.2432C55.8211 34.0855 56.2128 33.6771 56.4654 33.3809C56.6032 33.3809 56.7624 33.4274 56.8079 33.5887C57.1001 34.5955 57.4618 35.6478 57.8007 36.6547L60.8928 45.8538C61.5467 47.8222 61.8437 48.1662 62.8281 48.2856L63.446 48.3573C63.6053 48.4719 63.5586 48.8374 63.4436 48.9282C62.5047 48.878 61.7036 48.8505 60.6725 48.8458C59.5731 48.8398 58.7025 48.8816 58.0378 48.9007C57.8546 48.8087 57.8342 48.4433 57.9947 48.3298L58.6594 48.2641C59.1408 48.2211 59.4617 48.0849 59.4629 47.8568C59.4641 47.606 59.3516 47.1939 59.1719 46.6445L58.1803 43.5331L58.1791 43.5319ZM53.6536 41.4764C53.4679 42.0007 53.4907 42.0234 54.1314 42.027L56.9493 42.0414C57.6139 42.0449 57.6594 41.9542 57.457 41.3355L56.2391 37.6054C56.0583 37.056 55.8559 36.4385 55.7194 36.1638H55.6738C55.6044 36.2772 55.3733 36.8243 55.117 37.5087L53.6536 41.4764Z" fill="white"/>
<path d="M66.7873 35.3741C68.4663 34.0806 70.5991 33.4511 72.9811 33.4631C74.2182 33.469 75.957 33.7294 77.0324 34.0316C77.3067 34.1021 77.4672 34.1474 77.6731 34.1259C77.6935 34.6515 77.8001 36.0907 77.9773 37.4857C77.8624 37.6446 77.5187 37.6661 77.3582 37.5287C77.0229 35.9737 76.0013 34.1869 72.6793 34.1701C69.1752 34.1522 66.1861 36.3535 66.1622 41.082C66.1382 45.8799 69.1704 48.5446 72.9272 48.5637C75.8816 48.578 77.1977 46.6658 77.7306 45.3209C77.8911 45.2075 78.2348 45.2552 78.3258 45.4153C78.1593 46.6025 77.5558 48.1074 77.2109 48.5398C76.9354 48.584 76.66 48.6736 76.4085 48.7643C75.9031 48.9447 74.2529 49.2791 72.7871 49.272C70.7261 49.2612 68.7573 48.8408 67.0915 47.7121C65.2652 46.446 63.8557 44.3606 63.8712 41.4129C63.8844 38.8772 65.04 36.713 66.7885 35.3741H66.7873Z" fill="white"/>
<path d="M88.1166 43.6823C87.9586 43.1795 87.8675 43.1102 87.1801 43.1066L83.7216 43.0887C83.1492 43.0863 83.0114 43.1532 82.8486 43.6322L82.0342 46.0269C81.6857 47.0529 81.5217 47.6692 81.5205 47.92C81.5193 48.1935 81.633 48.3321 82.1827 48.3799L82.9384 48.4527C83.0977 48.5674 83.0965 48.9329 82.8893 49.0236C82.2941 48.9747 81.5839 48.9711 80.5073 48.9436C79.7517 48.94 78.9265 48.9818 78.3086 49.0009C78.1721 48.909 78.1278 48.5435 78.2655 48.43L79.0212 48.3655C79.5708 48.3225 80.0762 48.0741 80.4007 47.2536C80.8187 46.2049 81.4678 44.7227 82.4426 42.1691L84.8102 36.0132C85.1347 35.1926 85.2748 34.7591 85.2078 34.3936C85.7586 34.2359 86.1502 33.8275 86.4029 33.5312C86.5407 33.5312 86.6999 33.579 86.7454 33.7391C87.0376 34.7459 87.3993 35.7982 87.7382 36.8051L90.8303 46.0042C91.4842 47.9726 91.7812 48.3166 92.7656 48.436L93.3835 48.5077C93.5428 48.6223 93.4961 48.9878 93.3811 49.0786C92.4422 49.0284 91.6411 49.0009 90.61 48.9962C89.5106 48.9902 88.64 49.032 87.9753 49.0511C87.7921 48.9591 87.7717 48.5937 87.9322 48.4802L88.5969 48.4145C89.0783 48.3715 89.3992 48.2353 89.4004 48.0072C89.4016 47.7564 89.2891 47.3443 89.1094 46.7949L88.1178 43.6835L88.1166 43.6823ZM83.5923 41.6268C83.4066 42.1511 83.4294 42.1738 84.0701 42.1774L86.8868 42.1917C87.5514 42.1953 87.5969 42.1034 87.3945 41.4859L86.1766 37.7558C85.9958 37.2064 85.7934 36.5889 85.6569 36.3142H85.6113C85.5419 36.4276 85.3108 36.9747 85.0545 37.659L83.5911 41.6268H83.5923Z" fill="white"/>
<path d="M96.0298 36.9152C96.0382 35.3159 95.9256 34.8358 94.964 34.6937L94.4598 34.622C94.2766 34.5073 94.2562 34.1406 94.4862 34.0511C96.4334 33.9472 98.2896 33.8874 100.236 33.897C102.16 33.9065 103.785 34.0523 105.271 34.6077C108.358 35.7423 109.902 38.3544 109.887 41.3703C109.872 44.2714 108.462 46.7546 105.844 48.158C104.352 48.9498 102.472 49.2377 100.708 49.2281C99.2417 49.221 97.7771 49.0311 96.9747 49.0263C96.0131 49.0215 95.1879 49.0406 94.1113 49.08C93.9748 49.0108 93.9305 48.6453 94.0682 48.5091L94.5952 48.4434C95.9245 48.2678 95.9724 47.9931 95.9843 45.5948L96.0286 36.914L96.0298 36.9152ZM97.8669 45.08C97.8609 46.2911 97.9256 47.0221 98.3124 47.5727C98.813 48.2834 99.6824 48.5163 101.125 48.5234C105.57 48.5461 107.577 45.6545 107.598 41.4061C107.611 38.8931 106.419 34.6375 100.418 34.6077C99.0657 34.6005 98.3328 34.7796 98.1483 34.9158C97.9639 35.052 97.916 35.6229 97.91 36.6512L97.8669 45.0812V45.08Z" fill="white"/>
<path d="M113.894 37.4618C113.906 35.0862 113.862 34.7434 112.512 34.5762L112.146 34.5284C112.009 34.4365 112.057 34.0256 112.195 33.9575C113.179 34.0077 113.958 34.0352 114.898 34.0399L119.204 34.0614C120.67 34.0686 122.021 34.0758 122.296 34.0089C122.432 34.3982 122.561 36.0429 122.647 37.0486C122.555 37.1848 122.189 37.2289 122.075 37.0916C121.737 36.0166 121.535 35.2152 120.346 34.913C119.865 34.796 119.132 34.7697 118.124 34.7649L116.475 34.7566C115.788 34.753 115.788 34.7984 115.783 35.6667L115.76 40.2352C115.756 40.8754 115.826 40.8754 116.513 40.879L117.841 40.8862C118.803 40.8909 119.513 40.8491 119.789 40.7584C120.064 40.6688 120.225 40.5326 120.342 39.9617L120.53 39.0265C120.645 38.8903 121.034 38.8915 121.125 39.0528C121.123 39.601 121.026 40.492 121.022 41.3591C121.017 42.1821 121.105 43.0504 121.102 43.5532C121.01 43.7121 120.621 43.7109 120.507 43.5735L120.306 42.6813C120.216 42.2693 120.058 41.9265 119.601 41.8094C119.281 41.7163 118.731 41.6912 117.838 41.6864L116.51 41.6792C115.822 41.6756 115.754 41.6983 115.75 42.2919L115.734 45.5132C115.728 46.7243 115.792 47.5007 116.156 47.8912C116.429 48.1671 116.91 48.4203 118.925 48.4311C120.689 48.4395 121.354 48.3523 121.859 48.1026C122.272 47.8757 122.895 47.0802 123.496 45.8954C123.657 45.7819 123.978 45.8524 124.068 46.0578C123.903 46.8569 123.321 48.6126 123.021 49.2278C120.96 49.1716 118.922 49.1382 116.882 49.1286L114.821 49.1179C113.837 49.1131 113.057 49.1322 111.705 49.1704C111.569 49.1011 111.524 48.7357 111.662 48.5995L112.419 48.535C113.725 48.4275 113.842 48.0847 113.854 45.6864L113.895 37.4618H113.894Z" fill="white"/>
<path d="M133.219 43.1102C133.74 44.1863 134.239 45.2398 134.784 46.2478H134.83C135.454 45.1776 136.032 43.9928 136.61 42.8307L138.786 38.4783C139.828 36.4049 140.498 35.152 140.549 34.1009C141.328 34.1738 141.809 34.1762 142.266 34.1785C142.839 34.1809 143.595 34.1618 144.306 34.12C144.442 34.212 144.441 34.6002 144.326 34.6909L143.845 34.7339C142.401 34.8641 142.216 35.2965 142.231 36.8958C142.264 39.318 142.265 43.5437 142.432 46.8343C142.494 47.9773 142.469 48.5936 143.544 48.6903L144.277 48.762C144.414 48.8994 144.39 49.2421 144.228 49.3329C143.289 49.2828 142.35 49.2553 141.525 49.2505C140.724 49.2469 139.693 49.2636 138.753 49.3054C138.594 49.1908 138.572 48.8707 138.71 48.7345L139.374 48.6688C140.498 48.5602 140.499 48.1947 140.506 46.7327L140.486 37.2063H140.44C140.279 37.4571 139.398 39.2798 138.936 40.1684L136.877 44.1564C135.837 46.1618 134.795 48.3034 134.377 49.352C134.33 49.4201 134.239 49.4428 134.147 49.4428C134.102 49.4428 133.987 49.4189 133.941 49.3508C133.558 48.1385 132.469 45.8943 131.948 44.7716L129.909 40.3523C129.433 39.2989 128.958 38.1081 128.46 37.0558H128.414C128.316 38.4712 128.239 39.7957 128.165 41.1203C128.09 42.513 127.988 44.5458 127.977 46.4879C127.969 48.1779 128.104 48.5446 128.997 48.6175L129.868 48.6903C130.027 48.8277 130.003 49.1932 129.842 49.2613C129.063 49.2111 128.17 49.1848 127.299 49.18C126.566 49.1765 125.741 49.1944 124.963 49.2362C124.826 49.1215 124.782 48.7787 124.92 48.6653L125.424 48.5996C126.387 48.467 126.708 48.332 126.854 46.7339C126.999 45.2266 127.12 43.9713 127.268 41.7103C127.393 39.8149 127.493 37.874 127.546 36.6175C127.599 35.1782 127.418 34.8355 126.022 34.6455L125.655 34.5978C125.541 34.4604 125.566 34.1176 125.75 34.0269C126.437 34.0758 126.987 34.1021 127.559 34.1045C128.086 34.1069 128.704 34.1105 129.461 34.046C129.365 34.937 129.93 36.3559 130.633 37.8214L133.218 43.1114L133.219 43.1102Z" fill="white"/>
<path d="M152.882 45.8369C152.87 48.2818 153.006 48.6473 154.242 48.7453L155.112 48.8181C155.249 48.9555 155.201 49.321 155.063 49.389C153.643 49.3365 152.864 49.309 151.948 49.3042C150.987 49.2995 150.162 49.3186 148.947 49.358C148.811 49.2887 148.766 48.9232 148.904 48.7871L149.614 48.7226C150.944 48.5924 150.99 48.2723 151.003 45.8286L151.009 44.664C151.015 43.4076 150.948 43.1102 150.291 41.8274L147.614 36.5589C146.843 35.0468 146.501 34.931 145.813 34.8139L145.173 34.6969C145.036 34.5368 145.061 34.2167 145.222 34.126C145.955 34.1749 146.778 34.2024 147.878 34.2084C148.932 34.2132 149.756 34.1953 150.329 34.1523C150.535 34.2215 150.533 34.587 150.395 34.7232L150.097 34.7674C149.295 34.8772 149.134 34.9907 149.133 35.1735C149.133 35.4016 149.721 36.707 149.835 36.9364C150.674 38.6312 151.511 40.4407 152.397 42.0209C153.114 40.8133 153.876 39.4924 154.57 38.1714C155.218 36.9865 156.073 35.4374 156.074 35.1639C156.074 35.0265 155.663 34.8653 155.114 34.7936L154.702 34.7459C154.542 34.5846 154.566 34.2657 154.751 34.1749C155.575 34.2251 156.239 34.2514 156.949 34.255C157.66 34.2586 158.301 34.2394 159.08 34.1976C159.263 34.3123 159.283 34.6324 159.123 34.7686L158.481 34.8796C157.288 35.0791 156.595 36.5147 155.439 38.4735L153.983 40.9567C152.966 42.6873 152.897 42.8928 152.887 44.6521L152.881 45.8405L152.882 45.8369Z" fill="white"/>
<path d="M23.3046 3.26187H20.6077C20.6077 2.5106 18.3083 2.17737 17.1335 2.17498H0V0H17.1383C18.5718 0 20.6208 0.267543 21.9573 1.09645C23.2938 0.267543 25.3464 0 26.7751 0H43.5278V2.17498H26.7751C25.6039 2.17856 23.3046 2.5106 23.3046 3.26187Z" fill="white"/>
<path d="M27.0793 3.81592C25.7476 3.8195 23.3597 4.19215 23.3597 4.92073H20.1682C20.1682 4.19334 17.7838 3.8195 16.4485 3.81592H0V32.1288C0.0586806 32.8491 1.38558 47.1411 14.0774 51.9987C15.0534 51.6845 17.1635 50.8939 19.4748 49.3471C16.0054 46.1796 12.4175 40.8132 12.4175 32.1659H15.609C15.609 39.804 18.5311 44.6102 21.7549 47.5914C25.083 44.6472 27.932 40.4728 28.429 33.7007C26.2458 32.3797 13.0654 23.6869 13.0654 23.6869L12.4175 23.3023V9.30293H31.1091V20.8252H27.9176V11.8637H15.609V21.5108C15.609 21.5108 20.3825 24.6807 23.4052 26.477L28.429 29.6302C30.5199 30.8783 31.5654 31.7239 31.5654 32.1647C31.5654 40.7571 27.6398 46.1856 24.0028 49.3722C26.3045 50.938 28.4517 51.6845 29.478 51.9843C41.5087 45.875 43.4105 33.0067 43.529 32.1026V3.81592H27.0793Z" fill="white"/>
</g>
<defs>
<clipPath id="clip0_1315_2372">
<rect width="160.072" height="52" fill="white"/>
</clipPath>
</defs>
</svg>
