<svg width="193" height="63" viewBox="0 0 193 63" fill="none" xmlns="http://www.w3.org/2000/svg">
<g clip-path="url(#clip0_297_188)">
<path d="M69.374 32.9499C65.7426 32.9312 63.4554 31.7993 62.6367 31.3198C62.1227 30.3679 61.5769 27.3034 61.5004 25.2772C61.7184 24.9762 62.3667 24.8927 62.5386 25.1534C63.1753 27.3552 64.9268 31.5905 69.9429 31.6164C73.5743 31.6351 75.359 29.272 75.372 26.6842C75.3821 24.7861 75.0038 22.6721 71.8575 20.6286L67.7641 17.9342C65.6097 16.4999 63.1132 14.0302 63.132 10.4934C63.1522 6.39634 66.3692 3.0928 71.9904 3.12016C73.3303 3.12736 74.8854 3.39378 76.0088 3.70052C76.5704 3.8762 77.1755 3.96549 77.5205 3.96693C77.9046 5.00379 78.2815 7.42024 78.2728 9.23185C78.0981 9.48963 77.4065 9.61492 77.1913 9.3557C76.6398 7.28343 75.4861 4.47384 71.3363 4.45368C67.0984 4.43207 66.1772 7.23015 66.1671 9.21457C66.1541 11.716 68.2203 13.5377 69.8158 14.5371L73.2639 16.7102C75.9799 18.4052 78.6468 20.921 78.6266 25.0165C78.602 29.7602 74.998 32.9759 69.3769 32.9485L69.374 32.9499Z" fill="#701E1E"/>
<path d="M90.5172 33.0565C86.8857 33.0378 84.5986 31.9059 83.7799 31.4263C83.2658 30.4744 82.7201 27.41 82.6435 25.3838C82.8616 25.0828 83.5099 24.9993 83.6817 25.2599C84.3185 27.4618 86.0699 31.6971 91.0861 31.723C94.7175 31.7417 96.5022 29.3785 96.5152 26.7907C96.5253 24.8927 96.147 22.7787 93.0007 20.7352L88.9072 18.0408C86.7529 16.6065 84.2564 14.1368 84.2751 10.5999C84.2954 6.50291 87.5124 3.19937 93.1335 3.22673C94.4735 3.23393 96.0286 3.50035 97.1519 3.80708C97.7136 3.98277 98.3186 4.07206 98.6637 4.0735C99.0478 5.11035 99.4246 7.5268 99.416 9.33842C99.2413 9.5962 98.5496 9.72148 98.3345 9.46227C97.7829 7.39 96.6292 4.5804 92.4794 4.56024C88.2416 4.53864 87.3203 7.33671 87.3102 9.32114C87.2972 11.8226 89.3635 13.6443 90.959 14.6437L94.407 16.8167C97.1216 18.5117 99.7899 21.0275 99.7697 25.1231C99.7452 29.8667 96.1412 33.0824 90.52 33.0551L90.5172 33.0565Z" fill="#701E1E"/>
<path d="M107.623 10.4602C107.646 5.97585 107.563 5.32781 105.014 5.01388L104.322 4.92459C104.064 4.75034 104.153 3.97558 104.415 3.84741C106.273 3.94246 107.743 3.99286 109.516 4.00294L117.645 4.0447C120.413 4.0591 122.963 4.07206 123.483 3.94534C123.739 4.67978 123.983 7.78603 124.146 9.68405C123.971 9.94182 123.279 10.0253 123.064 9.76469C122.426 7.73418 122.045 6.22354 119.798 5.65183C118.891 5.4315 117.508 5.3811 115.605 5.37245L112.492 5.35661C111.195 5.34941 111.194 5.43582 111.187 7.07463L111.143 15.6993C111.138 16.906 111.268 16.9075 112.564 16.9132L115.072 16.9262C116.889 16.9348 118.229 16.8556 118.748 16.6857C119.268 16.5158 119.573 16.258 119.794 15.1823L120.149 13.4153C120.367 13.1575 121.102 13.1618 121.274 13.4643C121.268 14.4997 121.088 16.1802 121.079 17.819C121.072 19.3715 121.236 21.0117 121.231 21.9593C121.056 22.2602 120.321 22.2559 120.106 21.9967L119.725 20.3133C119.556 19.5356 119.257 18.8876 118.392 18.6673C117.787 18.4916 116.75 18.4426 115.064 18.4354L112.556 18.4224C111.259 18.4152 111.129 18.4584 111.123 19.5803L111.093 25.6603C111.081 27.9457 111.204 29.4131 111.891 30.149C112.407 30.6689 113.314 31.1484 117.118 31.1671C120.448 31.1844 121.703 31.0174 122.656 30.5479C123.437 30.1202 124.611 28.6168 125.747 26.3803C126.05 26.1657 126.655 26.2982 126.827 26.687C126.517 28.1948 125.419 31.5099 124.85 32.672C120.959 32.5654 117.111 32.5035 113.263 32.4848L109.372 32.4646C107.512 32.456 106.042 32.4906 103.491 32.564C103.232 32.433 103.148 31.7432 103.41 31.4854L104.838 31.363C107.304 31.1599 107.524 30.5133 107.545 25.9857L107.625 10.4617L107.623 10.4602Z" fill="#701E1E"/>
<path d="M132.879 9.72431C132.894 6.70591 132.682 5.79866 130.867 5.5308L129.917 5.39688C129.572 5.17942 129.533 4.48963 129.966 4.3197C133.642 4.12241 137.145 4.01152 140.82 4.03024C144.451 4.04896 147.521 4.32258 150.325 5.3724C156.151 7.51523 159.067 12.4461 159.038 18.1387C159.01 23.6153 156.349 28.3028 151.405 30.9511C148.587 32.4459 145.039 32.9888 141.709 32.9715C138.942 32.9571 136.176 32.5985 134.663 32.5913C132.847 32.5827 131.29 32.6172 129.257 32.6936C128.999 32.5625 128.915 31.8727 129.176 31.6149L130.171 31.4911C132.681 31.1584 132.77 30.6414 132.793 26.1138L132.877 9.72719L132.879 9.72431ZM136.345 25.1375C136.334 27.4229 136.457 28.8039 137.186 29.8422C138.13 31.1844 139.77 31.6236 142.495 31.6365C150.883 31.6783 154.673 26.2218 154.713 18.2006C154.738 13.457 152.487 5.42424 141.158 5.36808C138.607 5.35511 137.222 5.69353 136.874 5.94987C136.526 6.20764 136.435 7.28482 136.425 9.2246L136.344 25.1375H136.345Z" fill="#701E1E"/>
<path d="M187.201 15.2169C187.214 12.5426 187.154 7.583 186.424 6.28549C186.124 5.76706 185.347 5.46032 184.267 5.3696L183.187 5.27743C182.929 4.97358 183.018 4.41483 183.28 4.24346C184.923 4.3385 186.523 4.3889 188.208 4.39754C190.024 4.40619 191.191 4.37018 192.749 4.29098C193.094 4.50843 193.048 5.06862 192.83 5.3264L191.791 5.40704C190.71 5.48768 189.887 5.87218 189.624 6.43093C189.012 7.85085 188.986 12.8105 188.974 15.2255L188.95 20.0987C188.931 23.8501 188.306 27.8147 185.871 30.3895C184.002 32.4071 180.796 33.5116 177.598 33.4958C174.615 33.4814 171.634 32.9053 169.525 31.0836C167.244 29.1741 166.178 26.0218 166.204 20.8893L166.256 10.7123C166.279 6.22788 166.195 5.49344 163.689 5.26591L162.609 5.17375C162.35 4.9995 162.44 4.26794 162.701 4.13977C164.863 4.23626 166.332 4.2881 168.062 4.29674C169.835 4.30538 171.262 4.26938 173.382 4.19449C173.64 4.32554 173.724 5.05854 173.462 5.22991L172.424 5.31055C169.915 5.51361 169.825 6.2466 169.802 10.731L169.755 20.0454C169.72 26.988 171.858 31.5704 178.473 31.6035C184.742 31.6352 187.145 26.7317 187.178 20.1765L187.203 15.2169H187.201Z" fill="#701E1E"/>
<path d="M70.1465 52.7668C69.9559 52.1605 69.8462 52.077 69.0174 52.0727L64.8474 52.0511C64.1572 52.0482 63.9911 52.1289 63.7948 52.7063L62.8129 55.5937C62.3927 56.8307 62.1949 57.5738 62.1935 57.8762C62.192 58.2074 62.3292 58.373 62.9919 58.4306L63.9031 58.5185C64.0951 58.6567 64.0936 59.0974 63.8438 59.2068C63.1262 59.1478 62.27 59.1435 60.9719 59.1104C60.0608 59.106 59.066 59.1564 58.3209 59.1795C58.1563 59.0686 58.1029 58.6279 58.2689 58.4911L59.18 58.4134C59.8428 58.3615 60.4521 58.062 60.8434 57.0726C61.3473 55.8083 62.1299 54.0211 63.3053 50.9422L66.1599 43.5201C66.5512 42.5307 66.7201 42.008 66.6393 41.5673C67.3035 41.3772 67.7756 40.8847 68.0803 40.5276C68.2463 40.5276 68.4384 40.5837 68.4932 40.7782C68.8455 41.9921 69.2816 43.2609 69.6902 44.4748L73.4184 55.5663C74.2068 57.9396 74.5649 58.3543 75.7518 58.4983L76.4968 58.5847C76.6889 58.723 76.6325 59.1636 76.4939 59.2731C75.3619 59.2126 74.3959 59.1795 73.1527 59.1737C71.8272 59.1665 70.7775 59.2169 69.9761 59.24C69.7552 59.1291 69.7307 58.6884 69.9241 58.5516L70.7255 58.4724C71.306 58.4206 71.6929 58.2564 71.6944 57.9813C71.6958 57.6789 71.5601 57.1821 71.3435 56.5197L70.148 52.7683L70.1465 52.7668ZM64.69 50.2884C64.4662 50.9206 64.4936 50.948 65.2661 50.9523L68.6636 50.9696C69.465 50.9739 69.5199 50.8645 69.2758 50.1185L67.8074 45.6211C67.5893 44.9587 67.3453 44.2142 67.1807 43.883H67.1259C67.0421 44.0198 66.7634 44.6793 66.4544 45.5045L64.69 50.2884Z" fill="#701E1E"/>
<path d="M80.5253 42.931C82.5497 41.3714 85.1213 40.6125 87.9932 40.6269C89.4848 40.6341 91.5813 40.948 92.8779 41.3124C93.2086 41.3973 93.4021 41.4521 93.6504 41.4262C93.675 42.0598 93.8035 43.7951 94.0172 45.4771C93.8786 45.6686 93.4642 45.6945 93.2707 45.5289C92.8664 43.654 91.6347 41.4996 87.6293 41.4794C83.4045 41.4578 79.8005 44.1119 79.7716 49.8132C79.7427 55.598 83.3987 58.8108 87.9282 58.8338C91.4904 58.8511 93.0772 56.5455 93.7197 54.924C93.9132 54.7872 94.3276 54.8448 94.4374 55.0378C94.2367 56.4692 93.5089 58.2837 93.0931 58.805C92.761 58.8583 92.4289 58.9663 92.1257 59.0757C91.5163 59.2932 89.5266 59.6964 87.7593 59.6878C85.2743 59.6748 82.9005 59.1679 80.8921 57.807C78.6901 56.2806 76.9906 53.7662 77.0094 50.2121C77.0253 47.1548 78.4187 44.5454 80.5268 42.931H80.5253Z" fill="#701E1E"/>
<path d="M106.241 52.9482C106.051 52.3419 105.941 52.2584 105.112 52.2541L100.942 52.2325C100.252 52.2296 100.086 52.3103 99.8896 52.8877L98.9077 55.7751C98.4875 57.0121 98.2897 57.7552 98.2883 58.0576C98.2868 58.3874 98.424 58.5544 99.0868 58.612L99.9979 58.6999C100.19 58.8381 100.188 59.2788 99.9387 59.3882C99.221 59.3292 98.3648 59.3249 97.0667 59.2918C96.1556 59.2874 95.1608 59.3378 94.4157 59.3609C94.2511 59.25 94.1977 58.8093 94.3637 58.6725L95.2748 58.5948C95.9376 58.5429 96.5469 58.2434 96.9382 57.254C97.4421 55.9897 98.2247 54.2025 99.4001 51.1236L102.255 43.7015C102.646 42.7121 102.815 42.1894 102.734 41.7487C103.398 41.5586 103.87 41.0661 104.175 40.709C104.341 40.709 104.533 40.7666 104.588 40.9596C104.94 42.1735 105.376 43.4423 105.785 44.6562L109.513 55.7477C110.302 58.121 110.66 58.5357 111.847 58.6797L112.592 58.7661C112.784 58.9044 112.727 59.345 112.589 59.4545C111.457 59.394 110.491 59.3609 109.248 59.3551C107.922 59.3479 106.872 59.3983 106.071 59.4214C105.85 59.3105 105.825 58.8698 106.019 58.733L106.82 58.6538C107.401 58.602 107.788 58.4378 107.789 58.1627C107.791 57.8603 107.655 57.3635 107.438 56.7011L106.243 52.9496L106.241 52.9482ZM100.786 50.4698C100.562 51.102 100.59 51.1294 101.362 51.1337L104.758 51.151C105.56 51.1553 105.615 51.0444 105.371 50.2999L103.902 45.8025C103.684 45.1401 103.44 44.3956 103.276 44.0644H103.221C103.137 44.2012 102.858 44.8607 102.549 45.6859L100.785 50.4698H100.786Z" fill="#701E1E"/>
<path d="M115.783 44.7887C115.793 42.8605 115.657 42.2815 114.498 42.1102L113.89 42.0238C113.669 41.8855 113.644 41.4434 113.921 41.3354C116.269 41.2101 118.507 41.1381 120.854 41.1496C123.174 41.1612 125.133 41.3369 126.925 42.0065C130.646 43.3746 132.509 46.524 132.49 50.1602C132.473 53.6582 130.772 56.6521 127.615 58.3442C125.816 59.2989 123.549 59.646 121.423 59.6345C119.655 59.6258 117.889 59.3969 116.922 59.3911C115.762 59.3853 114.768 59.4084 113.47 59.4559C113.305 59.3724 113.251 58.9317 113.418 58.7676L114.053 58.6883C115.656 58.4767 115.713 58.1454 115.728 55.2538L115.781 44.7873L115.783 44.7887ZM117.998 54.6331C117.99 56.0933 118.068 56.9747 118.535 57.6385C119.138 58.4954 120.187 58.7762 121.926 58.7848C127.285 58.8122 129.705 55.3258 129.731 50.2034C129.747 47.1735 128.309 42.0425 121.073 42.0065C119.443 41.9978 118.559 42.2139 118.337 42.378C118.115 42.5422 118.057 43.2306 118.05 44.4705L117.998 54.6345V54.6331Z" fill="#701E1E"/>
<path d="M137.321 45.4483C137.336 42.584 137.282 42.1707 135.655 41.9691L135.213 41.9115C135.049 41.8006 135.107 41.3052 135.273 41.2231C136.459 41.2836 137.398 41.3167 138.531 41.3225L143.724 41.3484C145.491 41.3571 147.12 41.3657 147.452 41.2851C147.615 41.7545 147.771 43.7375 147.875 44.9501C147.764 45.1142 147.322 45.1675 147.185 45.0019C146.778 43.7058 146.534 42.7395 145.1 42.3752C144.521 42.2341 143.637 42.2024 142.421 42.1966L140.433 42.1866C139.604 42.1822 139.604 42.237 139.599 43.2839L139.571 48.7922C139.567 49.5641 139.65 49.5641 140.479 49.5684L142.081 49.577C143.24 49.5828 144.096 49.5324 144.428 49.4229C144.76 49.3149 144.954 49.1508 145.095 48.4624L145.322 47.3348C145.461 47.1707 145.93 47.1721 146.04 47.3665C146.037 48.0275 145.92 49.1018 145.916 50.1473C145.91 51.1395 146.015 52.1865 146.012 52.7927C145.901 52.9843 145.432 52.9828 145.295 52.8172L145.052 51.7415C144.944 51.2446 144.753 50.8313 144.202 50.6902C143.816 50.5779 143.153 50.5476 142.076 50.5419L140.475 50.5332C139.646 50.5289 139.564 50.5563 139.56 51.272L139.539 55.1559C139.532 56.6161 139.61 57.5522 140.049 58.0231C140.378 58.3558 140.957 58.661 143.387 58.674C145.514 58.6841 146.316 58.579 146.925 58.278C147.423 58.0044 148.174 57.0453 148.899 55.6167C149.092 55.4799 149.479 55.5649 149.587 55.8126C149.39 56.776 148.688 58.8929 148.325 59.6345C145.841 59.5669 143.383 59.5265 140.924 59.515L138.439 59.5021C137.252 59.4963 136.312 59.5193 134.682 59.5654C134.517 59.4819 134.464 59.0412 134.63 58.8771L135.543 58.7993C137.118 58.6697 137.258 58.2564 137.272 55.3647L137.323 45.4483H137.321Z" fill="#701E1E"/>
<path d="M160.623 52.2584C161.251 53.5559 161.853 54.8261 162.51 56.0415H162.565C163.318 54.7512 164.015 53.3226 164.712 51.9215L167.336 46.6738C168.592 44.1738 169.399 42.6632 169.461 41.3959C170.4 41.4838 170.98 41.4866 171.532 41.4895C172.222 41.4924 173.133 41.4694 173.991 41.419C174.156 41.5299 174.154 41.9979 174.016 42.1073L173.435 42.1592C171.694 42.3161 171.471 42.8374 171.489 44.7657C171.529 47.6862 171.531 52.7812 171.731 56.7486C171.806 58.1267 171.776 58.8698 173.073 58.9865L173.956 59.0729C174.121 59.2385 174.092 59.6518 173.897 59.7612C172.765 59.7008 171.633 59.6676 170.638 59.6619C169.672 59.6576 168.429 59.6777 167.296 59.7281C167.104 59.5899 167.078 59.2039 167.244 59.0398L168.045 58.9606C169.399 58.8295 169.401 58.3888 169.409 56.6262L169.385 45.1401H169.33C169.135 45.4425 168.074 47.6401 167.516 48.7115L165.034 53.5199C163.78 55.9378 162.523 58.5199 162.02 59.7843C161.963 59.8664 161.853 59.8937 161.742 59.8937C161.687 59.8937 161.549 59.8649 161.494 59.7828C161.032 58.3212 159.719 55.6153 159.091 54.2616L156.632 48.9333C156.059 47.6631 155.486 46.2274 154.885 44.9587H154.83C154.712 46.6652 154.619 48.2622 154.53 49.8593C154.439 51.5384 154.316 53.9894 154.303 56.331C154.293 58.3687 154.456 58.8108 155.533 58.8986L156.583 58.9865C156.775 59.1521 156.746 59.5927 156.551 59.6748C155.613 59.6144 154.536 59.5827 153.486 59.5769C152.602 59.5726 151.607 59.5942 150.669 59.6446C150.504 59.5063 150.451 59.093 150.617 58.9562L151.225 58.877C152.386 58.7172 152.773 58.5545 152.949 56.6276C153.124 54.8103 153.269 53.2967 153.448 50.5707C153.599 48.2853 153.72 45.9451 153.783 44.4302C153.847 42.6949 153.629 42.2816 151.945 42.0526L151.504 41.995C151.366 41.8294 151.397 41.4161 151.618 41.3066C152.446 41.3657 153.109 41.3974 153.799 41.4002C154.435 41.4031 155.18 41.4074 156.092 41.3297C155.977 42.404 156.658 44.1148 157.506 45.8818L160.622 52.2599L160.623 52.2584Z" fill="#701E1E"/>
<path d="M184.331 55.5461C184.316 58.4939 184.479 58.9346 185.97 59.0527L187.019 59.1405C187.184 59.3062 187.126 59.7468 186.96 59.8289C185.248 59.7655 184.309 59.7324 183.205 59.7267C182.045 59.7209 181.05 59.7439 179.586 59.7915C179.421 59.7079 179.368 59.2673 179.534 59.1031L180.39 59.0253C181.993 58.8684 182.049 58.4824 182.065 55.536L182.072 54.132C182.08 52.617 181.999 52.2584 181.206 50.7118L177.979 44.3596C177.049 42.5364 176.636 42.3968 175.807 42.2556L175.035 42.1145C174.87 41.9215 174.901 41.5356 175.094 41.4261C175.978 41.4852 176.971 41.5183 178.297 41.5255C179.567 41.5313 180.561 41.5097 181.252 41.4578C181.501 41.5414 181.498 41.982 181.332 42.1462L180.972 42.1995C180.005 42.332 179.811 42.4688 179.81 42.6891C179.81 42.9641 180.519 44.5382 180.656 44.8147C181.668 46.8581 182.677 49.0398 183.746 50.9451C184.609 49.4891 185.529 47.8964 186.365 46.3037C187.146 44.8751 188.177 43.0074 188.179 42.6776C188.179 42.512 187.684 42.3176 187.021 42.2312L186.524 42.1735C186.332 41.9791 186.361 41.5946 186.583 41.4852C187.577 41.5457 188.378 41.5774 189.234 41.5817C190.09 41.586 190.864 41.563 191.803 41.5126C192.024 41.6508 192.048 42.0367 191.855 42.2009L191.081 42.3348C189.643 42.5753 188.807 44.3063 187.413 46.668L185.658 49.662C184.432 51.7486 184.348 51.9963 184.337 54.1176L184.329 55.5504L184.331 55.5461Z" fill="#701E1E"/>
<path d="M28.0985 4.21313H24.8468C24.8468 3.30732 22.0745 2.90554 20.658 2.90266H0V0.280273H20.6638C22.3921 0.280273 24.8627 0.602851 26.4741 1.60227C28.0855 0.602851 30.5603 0.280273 32.2829 0.280273H52.4817V2.90266H32.2829C30.8708 2.90698 28.0985 3.30732 28.0985 4.21313Z" fill="#701E1E"/>
<path d="M32.6497 4.88135C31.044 4.88567 28.1649 5.33497 28.1649 6.21342H24.3169C24.3169 5.33641 21.442 4.88567 19.8321 4.88135H0V39.0184C0.0707515 39.8868 1.6706 57.1187 16.9731 62.9755C18.1499 62.5968 20.6941 61.6435 23.4808 59.7786C19.2978 55.9595 14.9719 49.4892 14.9719 39.063H18.8199C18.8199 48.2723 22.343 54.0672 26.23 57.6616C30.2427 54.1119 33.6777 49.0788 34.2769 40.9135C31.6447 39.3208 15.753 28.8399 15.753 28.8399L14.9719 28.3762V11.4971H37.5084V25.3895H33.6604V14.5846H18.8199V26.2161C18.8199 26.2161 24.5753 30.0381 28.2197 32.2039L34.2769 36.0058C36.798 37.5106 38.0585 38.5302 38.0585 39.0616C38.0585 49.4215 33.3254 55.9667 28.9403 59.8088C31.7154 61.6967 34.3044 62.5968 35.5418 62.9583C50.0473 55.5923 52.3402 40.0769 52.4832 38.9867V4.88135H32.6497Z" fill="#701E1E"/>
</g>
<defs>
<clipPath id="clip0_297_188">
<rect width="193" height="62.6967" fill="white" transform="translate(0 0.280273)"/>
</clipPath>
</defs>
</svg>
