<svg width="55" height="48" viewBox="0 0 55 48" fill="none" xmlns="http://www.w3.org/2000/svg">
<path fill-rule="evenodd" clip-rule="evenodd" d="M55 2.17105C55 0.972013 54.028 -1.72539e-07 52.8289 0L2.17105 1.89794e-06C0.972015 2.07048e-06 0 0.972015 0 2.17105C0 3.37009 0.972015 4.34211 2.17105 4.34211L52.8289 4.34211C54.028 4.34211 55 3.37009 55 2.17105ZM55 23.8816C55 22.6825 54.028 21.7105 52.8289 21.7105H2.17105C0.972015 21.7105 0 22.6825 0 23.8816C0 25.0806 0.972015 26.0526 2.17105 26.0526H52.8289C54.028 26.0526 55 25.0806 55 23.8816ZM55 45.5921C55 44.3931 54.028 43.4211 52.8289 43.4211L2.17105 43.4211C0.972015 43.4211 0 44.3931 0 45.5921C0 46.7911 0.972015 47.7632 2.17105 47.7632L52.8289 47.7632C54.028 47.7632 55 46.7911 55 45.5921Z" fill="#701E1E"/>
</svg>
