<svg width="27" height="28" viewBox="0 0 27 28" fill="none" xmlns="http://www.w3.org/2000/svg">
<path fill-rule="evenodd" clip-rule="evenodd" d="M0.561379 1.49497C1.30988 0.746468 2.52345 0.746468 3.27196 1.49497L13.4167 11.6397L23.5614 1.49497C24.3099 0.746467 25.5235 0.746467 26.272 1.49497C27.0205 2.24348 27.0205 3.45704 26.272 4.20555L16.1272 14.3503L26.272 24.495C27.0205 25.2435 27.0205 26.457 26.272 27.2056C25.5235 27.9541 24.3099 27.9541 23.5614 27.2056L13.4167 17.0608L3.27196 27.2056C2.52345 27.9541 1.30988 27.9541 0.561379 27.2056C-0.187126 26.457 -0.187126 25.2435 0.561379 24.495L10.7061 14.3503L0.561379 4.20555C-0.187126 3.45704 -0.187126 2.24348 0.561379 1.49497Z" fill="#701E1E"/>
</svg>
