<svg width="1920" height="201" viewBox="0 0 1920 201" fill="none" xmlns="http://www.w3.org/2000/svg">
<g clip-path="url(#clip0_1199_6893)">
<rect width="200" height="1920" transform="translate(0 200.543) rotate(-90)" fill="url(#paint0_linear_1199_6893)"/>
<path d="M782.123 68.3428V70.8916H758.73V68.3428H768.756V62.4238H771.871V68.3428H782.123ZM771.956 51.8887C771.956 55.7686 775.836 59.5918 781.217 60.4414L779.857 63.0469C775.524 62.2256 771.984 59.7476 770.285 56.3916C768.586 59.7334 765.074 62.2539 760.769 63.0469L759.41 60.4414C764.763 59.5918 768.586 55.7402 768.614 51.8887V50.0195H771.956V51.8887ZM796.698 50.5859C796.698 53.8145 800.294 57.0713 805.76 57.7793L804.514 60.3281C800.167 59.6768 796.712 57.5386 795.055 54.6357C793.37 57.5386 789.929 59.6768 785.624 60.3281L784.378 57.7793C789.788 57.0713 793.384 53.8145 793.384 50.5859V49.2832H796.698V50.5859ZM806.695 62.5371V65.1426H796.528V74.0635H793.413V65.1426H783.359V62.5371H806.695ZM829.426 48.4619V63.6699H826.282V57.4111H821.921V54.834H826.282V48.4619H829.426ZM820.76 64.3213C826.197 64.3213 829.511 66.1055 829.511 69.1924C829.511 72.2793 826.197 74.0635 820.76 74.0635C815.351 74.0635 812.037 72.2793 812.065 69.1924C812.037 66.1055 815.351 64.3213 820.76 64.3213ZM820.76 66.7285C817.191 66.7285 815.181 67.5781 815.181 69.1924C815.181 70.7783 817.191 71.6279 820.76 71.6279C824.328 71.6279 826.367 70.7783 826.367 69.1924C826.367 67.5781 824.328 66.7285 820.76 66.7285ZM817.39 52.8516C817.39 55.9668 819.457 59.1104 823.422 60.4414L821.836 62.9336C818.99 61.9707 816.965 60.0166 815.86 57.6094C814.728 60.3423 812.589 62.5229 809.545 63.6133L807.902 61.1211C812.009 59.7051 814.189 56.25 814.189 52.8799V52.6816H808.865V50.1328H822.686V52.6816H817.39V52.8516ZM854.706 48.4619V74.0635H851.675V48.4619H854.706ZM849.523 48.915V72.8174H846.549V64.7461H843.208C842.259 67.2666 840.56 68.6968 838.393 68.6826C835.051 68.7109 832.871 65.1709 832.871 59.5352C832.871 53.8994 835.051 50.416 838.393 50.416C840.56 50.416 842.245 51.832 843.208 54.3242H846.549V48.915H849.523ZM838.393 53.3896C836.722 53.3613 835.731 55.542 835.759 59.5352C835.731 63.5283 836.722 65.709 838.393 65.6807C840.092 65.709 841.14 63.5283 841.14 59.5352C841.14 55.542 840.092 53.3613 838.393 53.3896ZM843.831 56.873C843.958 57.6943 844.029 58.5864 844.029 59.5352C844.029 60.4697 843.958 61.3477 843.859 62.1689H846.549V56.873H843.831ZM872.867 51.0391V71.543H869.157V54.6357H869.044L864.258 57.6943V54.3242L869.327 51.0391H872.867ZM879.682 71.7695C878.464 71.7695 877.473 70.7783 877.473 69.5605C877.473 68.3711 878.464 67.3799 879.682 67.3799C880.843 67.3799 881.863 68.3711 881.863 69.5605C881.863 70.7783 880.843 71.7695 879.682 71.7695ZM879.682 60.7812C878.464 60.7812 877.473 59.79 877.473 58.5723C877.473 57.3828 878.464 56.3916 879.682 56.3916C880.843 56.3916 881.863 57.3828 881.863 58.5723C881.863 59.79 880.843 60.7812 879.682 60.7812ZM893.209 51.0391V71.543H889.499V54.6357H889.386L884.599 57.6943V54.3242L889.669 51.0391H893.209ZM925.332 48.4619V74.0635H922.302V60.9229H919.555V72.874H916.609V49.1416H919.555V58.374H922.302V48.4619H925.332ZM914.429 51.6904C914.429 58.6006 912.248 64.5479 904.97 68.7109L903.157 66.5303C908.609 63.3726 910.917 59.3228 911.37 54.2109H904.347V51.6904H914.429ZM949.309 48.4902V66.9834H946.137V48.4902H949.309ZM950.017 71.0049V73.5537H932.374V65.1143H935.545V71.0049H950.017ZM935.347 50.1611C939.227 50.1611 942.229 52.8516 942.229 56.5615C942.229 60.3564 939.227 62.9902 935.347 62.9902C931.439 62.9902 928.437 60.3564 928.437 56.5615C928.437 52.8516 931.439 50.1611 935.347 50.1611ZM935.347 52.9082C933.167 52.9082 931.496 54.3525 931.524 56.5615C931.496 58.8271 933.167 60.2432 935.347 60.2432C937.471 60.2432 939.142 58.8271 939.142 56.5615C939.142 54.3525 937.471 52.9082 935.347 52.9082ZM972.058 50.1611V61.291H959.937V50.1611H972.058ZM963.024 52.6816V58.7705H968.971V52.6816H963.024ZM979.252 48.4619V54.2109H982.82V56.8164H979.252V62.9053H976.108V48.4619H979.252ZM979.62 64.208V66.7002H972.823C973.318 68.8809 976.221 70.9341 980.696 71.5713L979.563 73.9785C975.57 73.4121 972.526 71.6987 971.067 69.3906C969.58 71.6987 966.592 73.3979 962.599 73.9219L961.438 71.543C965.955 70.9341 968.787 68.9375 969.311 66.7002H962.486V64.208H979.62ZM1007.02 60.8945V63.3867H996.885V65.624H1004.19V73.752H986.435V65.624H993.77V63.3867H983.688V60.8945H1007.02ZM996.885 48.4336V50.7275H1004.73V53.2197H997.112C997.48 55.3154 1000.5 57.043 1005.86 57.4111L1004.96 59.7334C1000.33 59.3794 996.927 58.02 995.327 55.8535C993.713 58.02 990.315 59.3794 985.727 59.7334L984.792 57.4111C990.187 57.043 993.161 55.3154 993.543 53.2197H985.982V50.7275H993.77V48.4336H996.885ZM989.55 68.1445V71.2031H1001.13V68.1445H989.55ZM1038.16 68.3428V70.9766H1014.76V68.3428H1038.16ZM1036.12 50.8408V53.3613H1032.38V61.5176H1036.03V64.0098H1016.77V61.5176H1020.37V53.3613H1016.69V50.8408H1036.12ZM1023.51 61.5176H1029.26V53.3613H1023.51V61.5176ZM1062.78 68.4844V71.0898H1039.39V68.4844H1049.47V64.3213H1042.17V55.9385H1056.89V52.7666H1042.11V50.2178H1060.01V58.4307H1045.31V61.7441H1060.6V64.3213H1052.59V68.4844H1062.78ZM1084.38 50.9541V53.8428C1084.38 57.2695 1084.38 60.8096 1083.45 66.1904L1080.25 65.9072C1081.24 60.8662 1081.24 57.1562 1081.24 53.8428V53.5029H1066.48V50.9541H1084.38ZM1087.36 67.9746V70.5518H1064.02V67.9746H1087.36ZM1110.54 48.4902V63.6416H1107.54V57.2129H1104.88V63.3867H1101.93V48.9717H1104.88V54.6641H1107.54V48.4902H1110.54ZM1110.54 64.7178V73.752H1093.26V64.7178H1110.54ZM1096.41 67.2383V71.2031H1107.42V67.2383H1096.41ZM1099.44 50.0479V57.4395H1092.78V60.2148C1095.76 60.1865 1098.02 60.0591 1100.63 59.5352L1100.91 62.0273C1097.82 62.5938 1095.22 62.6787 1091.48 62.6504H1089.72V55.0889H1096.41V52.54H1089.7V50.0479H1099.44ZM1124.92 49.9062C1130.33 49.9062 1134.46 52.7666 1134.46 57.1279C1134.46 61.5459 1130.33 64.4062 1124.92 64.4062C1119.54 64.4062 1115.4 61.5459 1115.43 57.1279C1115.4 52.7666 1119.54 49.9062 1124.92 49.9062ZM1124.92 52.4551C1121.21 52.4268 1118.46 54.2959 1118.46 57.1279C1118.46 60.0166 1121.21 61.8291 1124.92 61.8291C1128.65 61.8291 1131.37 60.0166 1131.37 57.1279C1131.37 54.2959 1128.65 52.4268 1124.92 52.4551ZM1136.67 68.2578V70.835H1113.28V68.2578H1136.67ZM1161.3 68.4844V71.0898H1137.91V68.4844H1147.99V64.3213H1140.68V55.9385H1155.41V52.7666H1140.62V50.2178H1158.52V58.4307H1143.82V61.7441H1159.12V64.3213H1151.1V68.4844H1161.3ZM676.382 90.9912V93.5117H671.001C671.044 96.5137 673.253 99.3882 677.289 100.535L675.703 102.999C672.743 102.121 670.605 100.266 669.444 97.9014C668.297 100.45 666.102 102.461 663.043 103.424L661.457 100.96C665.55 99.7563 667.759 96.6836 667.83 93.5117H662.307V90.9912H676.382ZM682.613 89.4619V103.339H679.441V89.4619H682.613ZM668.792 104.472V107.105H679.469V104.472H682.613V114.752H665.677V104.472H668.792ZM668.792 112.203H679.469V109.541H668.792V112.203ZM709.252 101.215V103.764H699.113V105.888C703.701 106.199 706.392 107.785 706.42 110.447C706.392 113.393 703.078 115.035 697.556 115.035C691.977 115.035 688.635 113.393 688.635 110.447C688.635 107.785 691.354 106.185 695.998 105.888V103.764H685.916V101.215H709.252ZM697.556 108.267C693.817 108.295 691.807 109.031 691.835 110.447C691.807 111.863 693.817 112.628 697.556 112.628C701.209 112.628 703.248 111.863 703.276 110.447C703.248 109.031 701.209 108.295 697.556 108.267ZM707.156 90.5947V93.1152H699.793C700.289 95.2251 703.347 97.1226 708.147 97.5615L707.043 100.054C702.398 99.5864 698.943 97.7314 697.556 95.126C696.168 97.7173 692.77 99.5864 688.125 100.054L687.049 97.5615C691.75 97.1226 694.809 95.1968 695.347 93.1152H688.04V90.5947H707.156ZM719.635 106.114C719.635 108.238 720.612 110.476 722.807 111.863C725.03 110.376 726.064 108.054 726.092 106.114V105.066H729.179V106.114C729.151 108.805 730.737 111.297 734.107 112.373L732.578 114.667C730.086 113.832 728.429 112.203 727.537 110.164C726.715 112.175 725.2 113.973 722.892 114.894C720.457 114.016 718.927 112.288 718.134 110.249C717.214 112.217 715.586 113.817 713.207 114.667L711.649 112.373C714.962 111.212 716.548 108.606 716.577 106.114V105.066H719.635V106.114ZM731.87 89.4902V103.99H728.698V89.4902H731.87ZM717.908 90.8496C721.844 90.8496 724.79 93.3418 724.79 96.9385C724.79 100.507 721.844 102.999 717.908 102.999C713.943 102.999 710.998 100.507 710.998 96.9385C710.998 93.3418 713.943 90.8496 717.908 90.8496ZM717.908 93.5117C715.67 93.5117 714.056 94.8428 714.085 96.9385C714.056 99.0342 715.67 100.394 717.908 100.394C720.117 100.394 721.703 99.0342 721.703 96.9385C721.703 94.8428 720.117 93.5117 717.908 93.5117ZM757.263 89.4619V115.063H754.261V89.4619H757.263ZM751.825 90.085V113.846H748.852V102.064H744.292C742.791 105.01 740.384 107.559 736.759 109.654L734.975 107.417C740.285 104.288 742.706 100.28 743.188 95.126H736.277V92.5771H746.303C746.303 95.0552 746.005 97.3774 745.312 99.5439H748.852V90.085H751.825ZM777.775 105.463C783.325 105.491 786.837 107.247 786.865 110.277C786.837 113.251 783.325 115.035 777.775 115.035C772.252 115.035 768.712 113.251 768.712 110.277C768.712 107.247 772.252 105.491 777.775 105.463ZM777.775 107.842C774.093 107.842 771.856 108.72 771.884 110.277C771.856 111.778 774.093 112.6 777.775 112.6C781.485 112.6 783.722 111.778 783.75 110.277C783.722 108.72 781.485 107.842 777.775 107.842ZM786.696 90.6797V92.8037C786.696 94.8145 786.696 96.9668 785.988 99.6006L782.872 99.3174C783.51 96.8252 783.552 95.0269 783.552 93.1719H768.967V90.6797H786.696ZM789.528 101.073V103.622H766.305V101.073H775.311V96.4287H778.426V101.073H789.528ZM814.241 104.358V106.851H804.046V115.063H800.93V106.851H790.848V104.358H814.241ZM796.796 90.4814V93.625H808.237V90.4814H811.409V101.696H793.68V90.4814H796.796ZM796.796 99.1475H808.237V96.1172H796.796V99.1475ZM835.698 89.4053V95.1826H839.294V97.7314H835.698V103.367H832.554V89.4053H835.698ZM835.698 104.5V110.674H822.104V112.486H836.491V114.837H818.989V108.493H832.554V106.794H818.96V104.5H835.698ZM830.713 91.5293V93.9365H815.534V91.5293H821.566V89.2637H824.709V91.5293H830.713ZM823.123 94.7295C826.918 94.7578 829.354 96.3721 829.382 98.9209C829.354 101.555 826.918 103.112 823.123 103.112C819.328 103.112 816.836 101.555 816.836 98.9209C816.836 96.3721 819.328 94.7578 823.123 94.7295ZM823.123 96.9951C821.141 96.9951 819.895 97.7031 819.895 98.9209C819.895 100.167 821.141 100.847 823.123 100.847C825.106 100.847 826.38 100.167 826.38 98.9209C826.38 97.7031 825.106 96.9951 823.123 96.9951ZM866.773 89.4619V95.6357H870.341V98.2695H866.773V104.387H863.629V89.4619H866.773ZM859.636 90.9629C859.636 97.6748 855.275 102.291 847.628 104.245L846.326 101.838C852.315 100.294 855.714 97.2358 856.266 93.5117H847.6V90.9629H859.636ZM866.773 105.463V115.063H863.629V107.983H849.724V105.463H866.773ZM882.849 90.9062C888.343 90.9062 892.393 93.6533 892.393 97.8164C892.393 101.654 889.093 104.217 884.406 104.67V109.371H894.602V111.948H871.209V109.371H881.291V104.67C876.632 104.217 873.333 101.654 873.361 97.8164C873.333 93.6533 877.383 90.9062 882.849 90.9062ZM882.849 93.4551C879.11 93.4268 876.42 95.126 876.448 97.8164C876.42 100.592 879.11 102.234 882.849 102.234C886.644 102.234 889.306 100.592 889.306 97.8164C889.306 95.126 886.644 93.4268 882.849 93.4551ZM915.888 89.4619V99.459H919.683V102.093H915.888V115.007H912.745V89.4619H915.888ZM909.12 92.124C909.12 99.6572 906.004 106.256 897.48 110.447L895.696 108.012C901.926 104.911 905.296 100.549 905.948 94.7295H897.084V92.124H909.12ZM942.149 100.082V102.631H936.967V107.105C939.204 107.006 941.441 106.851 943.565 106.624L943.82 108.946C938.184 109.796 932.265 109.853 927.423 109.853L927.026 107.247C929.136 107.261 931.444 107.261 933.823 107.19V102.631H928.81V91.8125H942.036V94.3047H931.926V100.082H942.149ZM948.238 89.4619V115.092H945.094V89.4619H948.238ZM958.536 91.3311C962.006 91.3311 964.569 94.2197 965.022 98.8926H969.893V89.4619H973.008V115.092H969.893V101.441H965.05C964.71 106.383 962.105 109.428 958.536 109.428C954.685 109.428 951.966 105.944 951.966 100.365C951.966 94.8428 954.685 91.3311 958.536 91.3311ZM958.536 94.1631C956.412 94.1631 954.968 96.457 954.996 100.365C954.968 104.302 956.412 106.596 958.536 106.596C960.66 106.596 962.076 104.302 962.105 100.365C962.076 96.457 960.66 94.1631 958.536 94.1631ZM985.261 106.114C985.261 108.238 986.238 110.476 988.432 111.863C990.656 110.376 991.689 108.054 991.718 106.114V105.066H994.805V106.114C994.776 108.805 996.362 111.297 999.732 112.373L998.203 114.667C995.711 113.832 994.054 112.203 993.162 110.164C992.341 112.175 990.826 113.973 988.517 114.894C986.082 114.016 984.553 112.288 983.76 110.249C982.839 112.217 981.211 113.817 978.832 114.667L977.274 112.373C980.588 111.212 982.174 108.606 982.202 106.114V105.066H985.261V106.114ZM997.495 89.4902V103.99H994.323V89.4902H997.495ZM983.533 90.8496C987.47 90.8496 990.415 93.3418 990.415 96.9385C990.415 100.507 987.47 102.999 983.533 102.999C979.568 102.999 976.623 100.507 976.623 96.9385C976.623 93.3418 979.568 90.8496 983.533 90.8496ZM983.533 93.5117C981.296 93.5117 979.681 94.8428 979.71 96.9385C979.681 99.0342 981.296 100.394 983.533 100.394C985.742 100.394 987.328 99.0342 987.328 96.9385C987.328 94.8428 985.742 93.5117 983.533 93.5117ZM1021.53 96.7119V99.2041H1003.8V90.3965H1006.92V96.7119H1021.53ZM1024.16 102.178V104.67H1000.77V102.178H1024.16ZM1021.7 111.92V114.469H1003.57V106.936H1006.72V111.92H1021.7ZM1047.08 91.9258V94.418H1031.9V91.9258H1037.93V89.3486H1041.08V91.9258H1047.08ZM1039.49 95.4092C1043.2 95.4092 1045.72 97.2783 1045.75 100.082C1045.72 102.886 1043.2 104.755 1039.49 104.755C1035.78 104.755 1033.2 102.886 1033.2 100.082C1033.2 97.2783 1035.78 95.4092 1039.49 95.4092ZM1039.49 97.7881C1037.54 97.7881 1036.26 98.6377 1036.26 100.082C1036.26 101.526 1037.54 102.348 1039.49 102.319C1041.45 102.348 1042.75 101.526 1042.75 100.082C1042.75 98.6377 1041.45 97.7881 1039.49 97.7881ZM1052.07 89.4619V96.2588H1055.63V98.8359H1052.07V105.491H1048.92V89.4619H1052.07ZM1052.07 106.681V115.063H1048.92V109.201H1035.02V106.681H1052.07ZM1064.49 94.2197C1064.49 96.9951 1066.1 99.7705 1069.47 101.045L1067.8 103.452C1065.52 102.574 1063.94 100.946 1063.02 98.9492C1062.08 101.243 1060.41 103.197 1057.97 104.217L1056.28 101.81C1059.79 100.252 1061.43 97.0518 1061.46 94.2197V91.0479H1064.49V94.2197ZM1078.39 89.4902V105.18H1075.39V98.5244H1072.84V104.387H1069.9V89.9717H1072.84V95.9473H1075.39V89.4902H1078.39ZM1069.76 105.604C1075.11 105.604 1078.51 107.36 1078.54 110.306C1078.51 113.251 1075.11 115.035 1069.76 115.035C1064.35 115.035 1060.98 113.251 1060.98 110.306C1060.98 107.36 1064.35 105.604 1069.76 105.604ZM1069.76 107.983C1066.22 107.983 1064.12 108.805 1064.12 110.306C1064.12 111.835 1066.22 112.628 1069.76 112.628C1073.27 112.628 1075.36 111.835 1075.36 110.306C1075.36 108.805 1073.27 107.983 1069.76 107.983ZM1094.13 91.6709V103.764H1082.01V91.6709H1094.13ZM1085.1 94.1914V101.271H1091.04V94.1914H1085.1ZM1101.32 89.4619V96.9668H1104.89V99.6006H1101.32V108.153H1098.18V89.4619H1101.32ZM1102.34 112.005V114.554H1084.93V106.341H1088.07V112.005H1102.34ZM1133.64 89.4619V103.424H1130.5V97.958H1126.08V95.3525H1130.5V89.4619H1133.64ZM1119.91 104.5V107.162H1130.5V104.5H1133.64V114.752H1116.77V104.5H1119.91ZM1119.91 112.203H1130.5V109.626H1119.91V112.203ZM1126.9 90.7646V93.3418H1121.61C1121.64 96.4146 1123.7 99.5864 1127.64 100.903L1126.05 103.339C1123.19 102.348 1121.17 100.422 1120.05 98.0146C1118.92 100.691 1116.79 102.843 1113.76 103.877L1112.15 101.385C1116.2 100.011 1118.38 96.6978 1118.41 93.3418H1113.08V90.7646H1126.9ZM1150.17 91.5859C1150.17 94.8145 1153.77 98.0713 1159.24 98.7793L1157.99 101.328C1153.64 100.677 1150.19 98.5386 1148.53 95.6357C1146.85 98.5386 1143.4 100.677 1139.1 101.328L1137.85 98.7793C1143.26 98.0713 1146.86 94.8145 1146.86 91.5859V90.2832H1150.17V91.5859ZM1160.17 103.537V106.143H1150V115.063H1146.89V106.143H1136.83V103.537H1160.17ZM1173.95 93.54V96.0605H1161.41V93.54H1166.16V90.1982H1169.28V93.54H1173.95ZM1167.72 97.4199C1170.98 97.4199 1173.3 99.8838 1173.3 103.367C1173.3 106.907 1170.98 109.399 1167.72 109.399C1164.49 109.399 1162.11 106.907 1162.14 103.367C1162.11 99.8838 1164.49 97.4199 1167.72 97.4199ZM1167.72 100.025C1166.05 100.025 1164.89 101.356 1164.92 103.367C1164.89 105.435 1166.05 106.737 1167.72 106.709C1169.36 106.737 1170.53 105.435 1170.53 103.367C1170.53 101.356 1169.36 100.025 1167.72 100.025ZM1183.47 89.4619V115.063H1180.47V102.546H1177.97V113.902H1175.03V90H1177.97V99.9971H1180.47V89.4619H1183.47ZM1209.43 103.735V106.284H1199.26V115.035H1196.14V106.284H1186.09V103.735H1209.43ZM1207.27 90.9062V93.3984H1199.6C1199.78 96.2021 1203.15 98.8926 1208.21 99.5439L1207.08 102.008C1202.72 101.399 1199.32 99.4023 1197.76 96.627C1196.2 99.4023 1192.8 101.399 1188.5 102.008L1187.31 99.5439C1192.34 98.8926 1195.71 96.2021 1195.95 93.3984H1188.24V90.9062H1207.27ZM1218.71 96.1738C1218.71 100.309 1220.15 104.613 1223.61 106.794L1221.88 109.201C1219.57 107.813 1218.07 105.42 1217.23 102.603C1216.3 105.704 1214.66 108.323 1212.25 109.796L1210.29 107.445C1214 105.18 1215.68 100.677 1215.68 96.3154V91.7275H1218.71V96.1738ZM1232.81 89.4619V115.063H1229.78V89.4619H1232.81ZM1227.49 89.915V113.817H1224.51V100.875H1220.86V98.2695H1224.51V89.915H1227.49ZM1258.74 109.371V111.948H1235.35V109.371H1240.76V102.886C1238.72 101.725 1237.49 99.8979 1237.5 97.6182C1237.47 93.54 1241.49 90.8496 1246.99 90.8496C1252.51 90.8496 1256.53 93.54 1256.53 97.6182C1256.53 99.8555 1255.34 101.654 1253.36 102.829V109.371H1258.74ZM1246.99 93.3418C1243.16 93.3418 1240.56 94.9561 1240.59 97.6182C1240.56 100.252 1243.16 101.895 1246.99 101.895C1250.81 101.895 1253.44 100.252 1253.44 97.6182C1253.44 94.9561 1250.81 93.3418 1246.99 93.3418ZM1243.87 109.371H1250.16V104.019C1249.18 104.245 1248.12 104.358 1246.99 104.358C1245.88 104.358 1244.84 104.245 1243.87 104.047V109.371ZM727.901 132.954V135.843C727.901 139.27 727.901 142.81 726.966 148.19L723.766 147.907C724.757 142.866 724.757 139.156 724.757 135.843V135.503H710.002V132.954H727.901ZM730.875 149.975V152.552H707.539V149.975H730.875ZM746.912 132.048C750.962 132.048 753.935 134.597 753.963 138.222C753.935 141.379 751.712 143.688 748.498 144.254V147.992C750.777 147.879 753.086 147.681 755.266 147.369L755.521 149.635C749.772 150.711 743.627 150.768 739.124 150.768L738.727 148.19C740.681 148.19 742.961 148.19 745.354 148.105V144.254C742.14 143.702 739.888 141.379 739.888 138.222C739.888 134.597 742.89 132.048 746.912 132.048ZM746.912 134.767C744.674 134.767 743.004 136.069 743.004 138.222C743.004 140.346 744.674 141.705 746.912 141.705C749.177 141.705 750.877 140.346 750.877 138.222C750.877 136.069 749.177 134.767 746.912 134.767ZM759.939 130.462V156.092H756.796V130.462H759.939ZM784.897 132.926V135.418H769.718V132.926H775.75V130.349H778.893V132.926H784.897ZM777.307 136.409C781.017 136.409 783.538 138.278 783.566 141.082C783.538 143.886 781.017 145.755 777.307 145.755C773.597 145.755 771.02 143.886 771.02 141.082C771.02 138.278 773.597 136.409 777.307 136.409ZM777.307 138.788C775.353 138.788 774.079 139.638 774.079 141.082C774.079 142.526 775.353 143.348 777.307 143.319C779.261 143.348 780.564 142.526 780.564 141.082C780.564 139.638 779.261 138.788 777.307 138.788ZM789.882 130.462V137.259H793.45V139.836H789.882V146.491H786.738V130.462H789.882ZM789.882 147.681V156.063H786.738V150.201H772.833V147.681H789.882ZM802.304 135.22C802.304 137.995 803.918 140.771 807.288 142.045L805.617 144.452C803.338 143.574 801.752 141.946 800.831 139.949C799.897 142.243 798.226 144.197 795.79 145.217L794.091 142.81C797.603 141.252 799.245 138.052 799.274 135.22V132.048H802.304V135.22ZM816.209 130.49V146.18H813.207V139.524H810.658V145.387H807.713V130.972H810.658V136.947H813.207V130.49H816.209ZM807.572 146.604C812.924 146.604 816.323 148.36 816.351 151.306C816.323 154.251 812.924 156.035 807.572 156.035C802.162 156.035 798.792 154.251 798.792 151.306C798.792 148.36 802.162 146.604 807.572 146.604ZM807.572 148.983C804.032 148.983 801.936 149.805 801.936 151.306C801.936 152.835 804.032 153.628 807.572 153.628C811.083 153.628 813.179 152.835 813.179 151.306C813.179 149.805 811.083 148.983 807.572 148.983ZM842.282 143.688V146.208H818.946V143.688H842.282ZM839.648 153.005V155.554H821.835V148.105H824.978V153.005H839.648ZM830.586 131.283C836.165 131.283 839.79 133.237 839.818 136.466C839.79 139.723 836.165 141.705 830.586 141.705C825.007 141.705 821.353 139.723 821.353 136.466C821.353 133.237 825.007 131.283 830.586 131.283ZM830.586 133.804C826.876 133.804 824.61 134.767 824.639 136.466C824.61 138.193 826.876 139.156 830.586 139.128C834.324 139.156 836.561 138.193 836.561 136.466C836.561 134.767 834.324 133.804 830.586 133.804ZM870.214 130.462V137.655H873.811V140.261H870.214V148.983H867.07V130.462H870.214ZM862.567 132.586V135.106H854.213V142.073C859.027 142.087 861.704 141.917 864.748 141.28L865.088 143.829C861.746 144.48 858.744 144.65 853.165 144.65H851.098V132.586H862.567ZM871.233 153.005V155.554H853.816V147.029H856.96V153.005H871.233ZM888.952 133.124V134.937C888.952 137.23 888.952 140.431 888.244 144.849L885.128 144.594C885.737 140.714 885.808 137.854 885.836 135.645H875.783V133.124H888.952ZM882.495 140.431V147.992C885.1 147.893 887.776 147.709 890.226 147.397L890.396 149.748C885.1 150.598 879.238 150.711 874.735 150.683L874.423 148.162C875.939 148.148 877.624 148.134 879.379 148.077V140.431H882.495ZM894.729 130.462V140.884H898.439V143.546H894.729V156.063H891.557V130.462H894.729ZM919.064 132.586C919.064 135.814 922.661 139.071 928.127 139.779L926.881 142.328C922.533 141.677 919.078 139.539 917.422 136.636C915.736 139.539 912.296 141.677 907.991 142.328L906.745 139.779C912.154 139.071 915.751 135.814 915.751 132.586V131.283H919.064V132.586ZM929.061 144.537V147.143H918.894V156.063H915.779V147.143H905.725V144.537H929.061ZM937.462 131.595C940.776 131.566 943.381 133.478 944.032 136.296H948.649V130.462H951.792V144.197H948.649V138.845H944.061C943.424 141.719 940.79 143.659 937.462 143.659C933.526 143.659 930.694 141.139 930.694 137.599C930.694 134.115 933.526 131.566 937.462 131.595ZM937.462 134.229C935.253 134.229 933.696 135.531 933.696 137.599C933.696 139.638 935.253 140.997 937.462 140.997C939.614 140.997 941.144 139.638 941.172 137.599C941.144 135.531 939.614 134.229 937.462 134.229ZM938.029 145.387V148.105H948.649V145.387H951.792V155.752H934.913V145.387H938.029ZM938.029 153.203H948.649V150.541H938.029V153.203ZM967.981 132.671V144.764H955.86V132.671H967.981ZM958.947 135.191V142.271H964.894V135.191H958.947ZM975.175 130.462V137.967H978.743V140.601H975.175V149.153H972.031V130.462H975.175ZM976.194 153.005V155.554H958.777V147.341H961.921V153.005H976.194ZM1009.42 140.714V143.206H986.058V140.714H1009.42ZM1006.65 136.579V139.071H989.031V131.113H1006.42V133.634H992.175V136.579H1006.65ZM1006.48 144.962V151.391H991.92V153.345H1007.18V155.809H988.833V149.125H1003.39V147.341H988.805V144.962H1006.48ZM1022.33 131.906C1027.73 131.906 1031.87 134.767 1031.87 139.128C1031.87 143.546 1027.73 146.406 1022.33 146.406C1016.94 146.406 1012.81 143.546 1012.84 139.128C1012.81 134.767 1016.94 131.906 1022.33 131.906ZM1022.33 134.455C1018.62 134.427 1015.87 136.296 1015.87 139.128C1015.87 142.017 1018.62 143.829 1022.33 143.829C1026.06 143.829 1028.78 142.017 1028.78 139.128C1028.78 136.296 1026.06 134.427 1022.33 134.455ZM1034.08 150.258V152.835H1010.69V150.258H1034.08ZM1056.78 130.462V156.092H1053.61V144.622H1048.57V141.988H1053.61V138.335H1048.57V135.758H1053.61V130.462H1056.78ZM1044.77 136.607C1044.77 141.394 1047.04 146.123 1051.12 147.964L1049.22 150.484C1046.32 149.054 1044.26 146.279 1043.19 142.866C1042.05 146.392 1039.96 149.295 1037.04 150.768L1035.06 148.275C1039.22 146.321 1041.54 141.394 1041.57 136.607V132.529H1044.77V136.607ZM1080.73 142.102V144.594H1073.14V150.456H1083.34V153.033H1059.94V150.456H1070.02V144.594H1062.77V132.359H1080.53V134.88H1065.92V142.102H1080.73ZM1114.35 142.895V145.358H1104.22V147.426C1108.83 147.709 1111.49 149.196 1111.52 151.73C1111.49 154.506 1108.24 156.035 1102.66 156.035C1097.05 156.035 1093.74 154.506 1093.74 151.73C1093.74 149.196 1096.44 147.709 1101.1 147.426V145.358H1091.02V142.895H1114.35ZM1104.22 130.519V132.841H1112.06V135.333H1104.47C1104.92 137.415 1107.94 139.114 1113.19 139.496L1112.23 141.875C1107.64 141.521 1104.26 140.091 1102.66 137.882C1101.06 140.091 1097.65 141.521 1093.09 141.875L1092.12 139.496C1097.35 139.114 1100.36 137.415 1100.85 135.333H1093.31V132.841H1101.1V130.519H1104.22ZM1102.66 149.748C1098.89 149.748 1096.91 150.399 1096.94 151.73C1096.91 153.033 1098.89 153.685 1102.66 153.685C1106.34 153.685 1108.35 153.033 1108.38 151.73C1108.35 150.399 1106.34 149.748 1102.66 149.748ZM1139.01 143.716V146.236H1129.13V150.654H1126.01V146.236H1115.62V143.716H1139.01ZM1136.43 153.005V155.554H1118.45V148.502H1121.57V153.005H1136.43ZM1121.79 131.283V134.172H1132.84V131.283H1135.95V141.705H1118.68V131.283H1121.79ZM1121.79 139.213H1132.84V136.522H1121.79V139.213ZM1160.47 130.462V136.777H1164.04V139.383H1160.47V145.415H1157.32V130.462H1160.47ZM1147.04 146.435V148.644H1157.32V146.435H1160.47V155.752H1143.93V146.435H1147.04ZM1147.04 153.26H1157.32V151.079H1147.04V153.26ZM1155.48 132.841V135.361H1140.3V132.841H1146.34V130.264H1149.48V132.841H1155.48ZM1147.89 136.239C1151.6 136.239 1154.12 138.023 1154.15 140.742C1154.12 143.461 1151.6 145.245 1147.89 145.245C1144.16 145.245 1141.61 143.461 1141.61 140.742C1141.61 138.023 1144.16 136.239 1147.89 136.239ZM1147.89 138.562C1145.94 138.562 1144.66 139.383 1144.66 140.742C1144.66 142.13 1145.94 142.923 1147.89 142.923C1149.85 142.923 1151.15 142.13 1151.15 140.742C1151.15 139.383 1149.85 138.562 1147.89 138.562ZM1186.26 130.462V156.063H1183.14V130.462H1186.26ZM1169.49 132.954V146.944C1173.09 146.888 1176.91 146.562 1180.85 145.783L1181.24 148.417C1176.74 149.352 1172.55 149.635 1168.59 149.635H1166.38V132.954H1169.49ZM1209.58 130.462V140.176H1213.52V142.753H1209.58V156.092H1206.44V130.462H1209.58ZM1202.56 132.897V135.446H1193.72V147.199C1197.7 147.199 1200.85 147.001 1204.37 146.378L1204.74 149.04C1200.78 149.72 1197.32 149.833 1192.7 149.833H1190.58V132.897H1202.56Z" fill="white"/>
</g>
<defs>
<linearGradient id="paint0_linear_1199_6893" x1="200" y1="1.65002e-05" x2="-296.37" y2="1831.39" gradientUnits="userSpaceOnUse">
<stop stop-color="#E8E8E8"/>
<stop offset="0.3" stop-color="#15587D"/>
<stop offset="0.74591" stop-color="#797878"/>
<stop offset="1" stop-color="#701E1E"/>
</linearGradient>
<clipPath id="clip0_1199_6893">
<rect width="200" height="1920" fill="white" transform="translate(0 200.543) rotate(-90)"/>
</clipPath>
</defs>
</svg>
