<svg width="1920" height="270" viewBox="0 0 1920 270" fill="none" xmlns="http://www.w3.org/2000/svg">
<g clip-path="url(#clip0_1199_4240)">
<rect width="269" height="1920" transform="translate(0 269.543) rotate(-90)" fill="url(#paint0_linear_1199_4240)"/>
<rect width="269" height="1920" transform="translate(0 269.543) rotate(-90)" fill="#FAF8EB"/>
<path d="M743.84 178.52C747.004 178.52 749.09 180.02 749.114 182.364C749.09 184.684 747.004 186.208 743.84 186.208C740.676 186.208 738.567 184.684 738.567 182.364C738.567 180.02 740.676 178.52 743.84 178.52ZM743.84 179.926C741.754 179.926 740.325 180.887 740.325 182.364C740.325 183.817 741.754 184.801 743.84 184.801C745.95 184.801 747.356 183.817 747.379 182.364C747.356 180.887 745.95 179.926 743.84 179.926ZM753.965 177.606V193.45H752.137V177.606H753.965ZM736.926 187.801C740.84 187.801 746.09 187.778 750.59 187.122L750.731 188.481C748.891 188.797 746.969 188.997 745.082 189.114V192.723H743.254V189.208C741.075 189.313 739 189.325 737.207 189.325L736.926 187.801ZM754.575 196.45V197.997H739.903V191.997H741.731V196.45H754.575ZM774.558 177.606V198.489H772.73V187.004H768.324V185.481H772.73V177.606H774.558ZM767.972 179.528V181.051H760.097V185.387H767.058V186.887H760.097V191.926C763.929 191.926 766.367 191.797 769.238 191.293L769.449 192.817C766.425 193.309 763.871 193.45 759.84 193.45H758.246V179.528H767.972ZM788.05 180.676C788.05 184.239 792.128 187.426 795.761 188.106L794.917 189.653C791.776 188.926 788.46 186.688 787.112 183.606C785.765 186.676 782.46 188.915 779.308 189.653L778.464 188.106C782.073 187.403 786.128 184.262 786.128 180.676V179.083H788.05V180.676ZM796.745 194.083V195.606H777.667V194.083H796.745ZM814.62 178.567V180.09C814.62 181.672 814.62 183.536 814.127 185.973H817.034V187.45H808.432V189.676H814.784V194.504H802.174V196.684H815.51V198.161H800.346V193.122H812.955V191.106H800.299V189.676H806.627V187.45H798.073V185.973H812.276C812.475 185.012 812.592 184.145 812.674 183.348L800.205 183.887L799.971 182.411L812.768 182.036C812.791 181.356 812.791 180.711 812.791 180.09V180.043H800.463V178.567H814.62ZM827.924 177.981C832.564 177.981 835.283 179.247 835.283 181.567C835.283 183.934 832.564 185.2 827.924 185.223C823.283 185.2 820.541 183.934 820.541 181.567C820.541 179.247 823.283 177.981 827.924 177.981ZM827.924 179.364C824.455 179.364 822.439 180.208 822.463 181.567C822.439 183.02 824.455 183.817 827.924 183.817C831.369 183.817 833.408 183.02 833.408 181.567C833.408 180.208 831.369 179.364 827.924 179.364ZM837.416 186.629V188.129H818.431V186.629H837.416ZM834.978 189.934V194.598H822.603V196.754H835.611V198.208H820.775V193.239H833.174V191.34H820.728V189.934H834.978ZM860.602 177.606V185.856H864.094V187.403H860.602V198.489H858.774V177.606H860.602ZM855.118 179.645V181.168H847.219V191.715C850.993 191.715 853.665 191.54 856.758 190.965L856.993 192.559C853.735 193.145 850.993 193.262 847.032 193.262H845.391V179.645H855.118ZM882.156 177.606V198.489H880.305V188.739H873.976V187.215H880.305V184.004H873.976V182.504H880.305V177.606H882.156ZM867.859 179.926V192.043C871.246 192.032 873.836 191.915 876.765 191.317L876.953 192.84C873.859 193.45 871.211 193.637 867.601 193.637H866.008V179.926H867.859ZM902.07 187.379V188.879H895.624V194.27H904.32V195.817H885.241V194.27H893.82V188.879H887.679V179.317H901.859V180.817H889.53V187.379H902.07ZM909.045 194.973L907.217 201.348H905.483L906.772 194.973H909.045ZM929.536 179.856V181.356H917.115V179.856H922.411V177.512H924.24V179.856H929.536ZM923.325 182.434C926.325 182.458 928.318 183.911 928.341 186.208C928.318 188.481 926.325 189.958 923.325 189.958C920.325 189.958 918.286 188.481 918.31 186.208C918.286 183.911 920.325 182.458 923.325 182.434ZM923.325 183.864C921.357 183.887 920.044 184.801 920.068 186.208C920.044 187.59 921.357 188.481 923.325 188.481C925.271 188.481 926.583 187.59 926.607 186.208C926.583 184.801 925.271 183.887 923.325 183.864ZM933.357 177.606V183.395H936.497V184.942H933.357V190.637H931.529V177.606H933.357ZM933.357 191.786V198.442H931.529V193.286H919.716V191.786H933.357ZM954.63 177.629V193.45H952.778V191.293H948.465V189.958H952.778V177.629H954.63ZM955.145 196.45V197.997H940.333V191.903H942.184V196.45H955.145ZM937.333 187.286C941.223 187.262 946.426 187.239 950.903 186.676L951.02 188.012C949.157 188.305 947.212 188.493 945.301 188.598V192.723H943.45V188.692C941.34 188.786 939.337 188.797 937.59 188.786L937.333 187.286ZM944.176 178.473C947.223 178.473 949.309 179.926 949.333 182.106C949.309 184.333 947.223 185.715 944.176 185.715C941.106 185.715 939.02 184.333 939.02 182.106C939.02 179.926 941.106 178.473 944.176 178.473ZM944.176 179.879C942.137 179.856 940.755 180.77 940.778 182.106C940.755 183.465 942.137 184.356 944.176 184.356C946.145 184.356 947.551 183.465 947.575 182.106C947.551 180.77 946.145 179.856 944.176 179.879ZM967.324 177.981C971.965 177.981 974.684 179.247 974.684 181.567C974.684 183.934 971.965 185.2 967.324 185.223C962.684 185.2 959.941 183.934 959.941 181.567C959.941 179.247 962.684 177.981 967.324 177.981ZM967.324 179.364C963.855 179.364 961.84 180.208 961.863 181.567C961.84 183.02 963.855 183.817 967.324 183.817C970.77 183.817 972.809 183.02 972.809 181.567C972.809 180.208 970.77 179.364 967.324 179.364ZM976.816 186.629V188.129H957.832V186.629H976.816ZM974.379 189.934V194.598H962.004V196.754H975.012V198.208H960.176V193.239H972.574V191.34H960.129V189.934H974.379ZM1000 177.606V185.856H1003.49V187.403H1000V198.489H998.175V177.606H1000ZM994.518 179.645V181.168H986.62V191.715C990.393 191.715 993.065 191.54 996.159 190.965L996.393 192.559C993.135 193.145 990.393 193.262 986.432 193.262H984.792V179.645H994.518ZM1021.56 177.606V198.489H1019.71V188.739H1013.38V187.215H1019.71V184.004H1013.38V182.504H1019.71V177.606H1021.56ZM1007.26 179.926V192.043C1010.65 192.032 1013.24 191.915 1016.17 191.317L1016.35 192.84C1013.26 193.45 1010.61 193.637 1007 193.637H1005.41V179.926H1007.26ZM1041.47 187.379V188.879H1035.02V194.27H1043.72V195.817H1024.64V194.27H1033.22V188.879H1027.08V179.317H1041.26V180.817H1028.93V187.379H1041.47ZM1048.45 194.973L1046.62 201.348H1044.88L1046.17 194.973H1048.45ZM1068.02 179.926V181.004C1068 182.645 1068 185.411 1067.41 189.278L1065.56 189.114C1066.12 185.622 1066.17 183.09 1066.17 181.426H1057.43V179.926H1068.02ZM1062.56 185.879V192.208C1064.87 192.125 1067.24 191.973 1069.41 191.715L1069.5 193.098C1065.12 193.778 1060.22 193.872 1056.49 193.848L1056.26 192.325C1057.63 192.313 1059.15 192.301 1060.76 192.254V185.879H1062.56ZM1072.55 177.606V186.325H1075.92V187.918H1072.55V198.442H1070.72V177.606H1072.55ZM1083.67 178.965C1086.95 178.989 1089.27 180.958 1089.27 183.864C1089.27 186.489 1087.37 188.352 1084.58 188.668V192.231C1086.65 192.125 1088.74 191.95 1090.73 191.645L1090.87 193.004C1086.11 193.895 1080.98 193.918 1077.23 193.918L1076.97 192.372C1078.67 192.372 1080.65 192.372 1082.73 192.301V188.668C1079.94 188.34 1078.02 186.489 1078.05 183.864C1078.02 180.958 1080.39 178.989 1083.67 178.965ZM1083.67 180.583C1081.44 180.583 1079.83 181.918 1079.85 183.864C1079.83 185.809 1081.44 187.168 1083.67 187.145C1085.87 187.168 1087.47 185.809 1087.47 183.864C1087.47 181.918 1085.87 180.583 1083.67 180.583ZM1093.94 177.606V198.489H1092.11V177.606H1093.94ZM1116.29 187.286V188.739H1097.21V187.286H1116.29ZM1113.9 190.403V194.833H1101.38V196.825H1114.58V198.161H1099.53V193.567H1112.07V191.786H1099.51V190.403H1113.9ZM1113.83 178.239V182.551H1101.52V184.379H1114.2V185.715H1099.69V181.286H1111.97V179.575H1099.62V178.239H1113.83ZM1139.57 177.606V182.645H1142.71V184.192H1139.57V189.793H1137.74V177.606H1139.57ZM1125.97 178.801V181.989H1132.04V178.801H1133.87V188.481H1124.17V178.801H1125.97ZM1125.97 187.004H1132.04V183.465H1125.97V187.004ZM1139.73 190.965V192.442H1128.32V196.661H1140.13V198.161H1126.49V190.965H1139.73ZM1149.24 179.223C1152.31 179.247 1154.49 182.059 1154.51 186.489C1154.49 190.918 1152.31 193.731 1149.24 193.731C1146.14 193.731 1143.99 190.918 1143.99 186.489C1143.99 182.059 1146.14 179.247 1149.24 179.223ZM1149.24 180.864C1147.18 180.887 1145.72 183.09 1145.72 186.489C1145.72 189.887 1147.18 192.09 1149.24 192.09C1151.32 192.09 1152.73 189.887 1152.73 186.489C1152.73 183.09 1151.32 180.887 1149.24 180.864ZM1159.79 177.606V185.926H1163.28V187.52H1159.79V198.442H1157.96V177.606H1159.79ZM1180.87 187.379V188.879H1174.43V194.27H1183.12V195.817H1164.04V194.27H1172.62V188.879H1166.48V179.317H1180.66V180.817H1168.33V187.379H1180.87ZM757.179 211.887C757.156 214.864 759.265 217.489 762.336 218.52L761.304 219.95C759.008 219.083 757.203 217.395 756.312 215.192C755.41 217.688 753.5 219.633 750.992 220.583L749.984 219.083C753.195 217.958 755.328 215.192 755.351 211.958V209.801H757.179V211.887ZM767.281 208.606V220.958H765.429V214.606H760.789V213.083H765.429V208.606H767.281ZM760.367 221.567C764.703 221.567 767.351 222.997 767.351 225.504C767.351 227.989 764.703 229.395 760.367 229.395C756.031 229.395 753.383 227.989 753.383 225.504C753.383 222.997 756.031 221.567 760.367 221.567ZM760.367 223.02C757.179 223.02 755.187 223.958 755.211 225.504C755.187 227.004 757.179 227.918 760.367 227.918C763.554 227.918 765.523 227.004 765.523 225.504C765.523 223.958 763.554 223.02 760.367 223.02ZM777.632 212.45C777.632 215.168 779.718 217.747 782.765 218.801L781.804 220.254C779.448 219.411 777.632 217.665 776.741 215.52C775.839 217.922 773.917 219.844 771.444 220.747L770.483 219.293C773.554 218.192 775.78 215.403 775.78 212.473V211.559H771.069V210.059H782.296V211.559H777.632V212.45ZM787.663 222.2V229.442H785.812V223.723H773.648V222.2H787.663ZM787.663 208.606V221.098H785.812V215.614H781.64V214.067H785.812V208.606H787.663ZM807.952 208.606V229.489H806.1V208.606H807.952ZM796.866 210.223C799.959 210.247 802.186 213.059 802.186 217.489C802.186 221.918 799.959 224.731 796.866 224.731C793.748 224.731 791.545 221.918 791.545 217.489C791.545 213.059 793.748 210.247 796.866 210.223ZM796.866 211.864C794.78 211.887 793.327 214.09 793.327 217.489C793.327 220.887 794.78 223.09 796.866 223.09C798.952 223.09 800.405 220.887 800.405 217.489C800.405 214.09 798.952 211.887 796.866 211.864ZM826.31 209.965C830.739 209.989 833.927 212.145 833.927 215.426C833.927 218.532 831.161 220.594 827.2 220.84V225.223H835.896V226.77H816.818V225.223H825.396V220.84C821.446 220.583 818.693 218.52 818.693 215.426C818.693 212.145 821.88 209.989 826.31 209.965ZM826.31 211.489C822.935 211.489 820.474 213.083 820.474 215.426C820.474 217.84 822.935 219.387 826.31 219.411C829.685 219.387 832.146 217.84 832.146 215.426C832.146 213.083 829.685 211.489 826.31 211.489ZM856.278 225.27V226.817H837.2V225.27H856.278ZM853.864 210.2V216.504H841.418V219.926H854.356V221.403H839.59V215.004H852.059V211.723H839.543V210.2H853.864ZM865.035 215.004C865.035 218.543 867.613 222.129 870.683 223.465L869.652 224.918C867.215 223.805 865.105 221.403 864.144 218.52C863.16 221.579 861.062 224.239 858.683 225.434L857.582 223.981C860.558 222.551 863.16 218.614 863.183 215.004V212.286H858.262V210.762H870.004V212.286H865.035V215.004ZM874.762 208.606V229.442H872.91V208.606H874.762ZM889.44 209.801C892.557 209.801 894.854 211.793 894.854 214.606C894.854 217.442 892.557 219.411 889.44 219.434C886.323 219.411 884.003 217.442 884.026 214.606C884.003 211.793 886.323 209.801 889.44 209.801ZM889.44 211.348C887.401 211.348 885.807 212.731 885.831 214.606C885.807 216.528 887.401 217.911 889.44 217.911C891.503 217.911 893.049 216.528 893.049 214.606C893.049 212.731 891.503 211.348 889.44 211.348ZM899.917 208.606V213.317H903.057V214.84H899.917V219.036H898.088V208.606H899.917ZM887.635 221.286V227.356C888.842 227.321 890.448 227.145 891.924 226.653L892.206 228.129C890.167 228.809 888.198 228.879 886.838 228.879H885.854V221.286H887.635ZM902.003 221.379V222.809H891.479V221.379H895.862V219.528H897.667V221.379H902.003ZM896.729 223.512C899.003 223.512 900.62 224.661 900.643 226.465C900.62 228.27 899.003 229.395 896.729 229.395C894.432 229.395 892.838 228.27 892.862 226.465C892.838 224.661 894.432 223.512 896.729 223.512ZM896.729 224.848C895.44 224.848 894.503 225.504 894.503 226.465C894.503 227.45 895.44 228.083 896.729 228.083C898.042 228.083 898.956 227.45 898.956 226.465C898.956 225.504 898.042 224.848 896.729 224.848ZM920.861 214.934V216.411H906.588V209.379H908.416V214.934H920.861ZM923.064 219.247V220.747H903.986V219.247H923.064ZM920.978 227.403V228.926H906.471V222.879H908.299V227.403H920.978ZM940.517 208.606V216.856H944.009V218.403H940.517V229.489H938.689V208.606H940.517ZM935.033 210.645V212.168H927.134V222.715C930.908 222.715 933.579 222.54 936.673 221.965L936.908 223.559C933.65 224.145 930.908 224.262 926.947 224.262H925.306V210.645H935.033ZM955.321 210.434V212.286H960.196V208.629H962.048V223.84H960.196V218.286H955.321V220.161H945.758V210.434H955.321ZM947.587 211.958V218.684H953.516V211.958H947.587ZM962.516 227.45V228.997H948.571V222.481H950.423V227.45H962.516ZM955.321 216.762H960.196V213.833H955.321V216.762ZM989.874 219.645V221.145H981.39V225.223H979.562V221.145H970.796V219.645H989.874ZM987.742 227.45V228.997H973.234V223.301H975.062V227.45H987.742ZM975.179 209.286V211.958H985.492V209.286H987.32V217.606H973.351V209.286H975.179ZM975.179 216.106H985.492V213.364H975.179V216.106ZM1008.48 208.606V220.958H1006.62V217.676H1001.75V219.458H992.186V210.2H1001.75V212.004H1006.62V208.606H1008.48ZM994.014 211.7V217.958H999.944V211.7H994.014ZM1001.56 221.567C1005.9 221.567 1008.55 222.997 1008.55 225.504C1008.55 227.989 1005.9 229.395 1001.56 229.395C997.225 229.395 994.577 227.989 994.577 225.504C994.577 222.997 997.225 221.567 1001.56 221.567ZM1001.56 222.997C998.374 223.02 996.382 223.934 996.405 225.504C996.382 227.004 998.374 227.942 1001.56 227.942C1004.75 227.942 1006.72 227.004 1006.72 225.504C1006.72 223.934 1004.75 223.02 1001.56 222.997ZM1001.75 216.129H1006.62V213.528H1001.75V216.129ZM1036.3 219.27V220.793H1027.82V225.059H1025.99V220.793H1017.22V219.27H1036.3ZM1033.82 209.637V216.879H1019.71V209.637H1033.82ZM1021.51 211.09V215.403H1031.99V211.09H1021.51ZM1034.17 227.45V228.997H1019.66V222.997H1021.51V227.45H1034.17ZM1055.44 208.606V229.442H1053.68V208.606H1055.44ZM1051.22 209.122V228.364H1049.49V217.629H1045.97V216.129H1049.49V209.122H1051.22ZM1043.75 214.559C1043.75 218.168 1045.36 221.754 1048.25 223.418L1047.12 224.778C1045.07 223.547 1043.62 221.297 1042.9 218.637C1042.14 221.508 1040.63 223.958 1038.54 225.27L1037.37 223.887C1040.28 222.153 1041.97 218.356 1041.97 214.559V212.59H1037.96V211.067H1047.57V212.59H1043.75V214.559ZM1074.14 208.606V217.09H1077.51V218.637H1074.14V229.442H1072.31V208.606H1074.14ZM1068.75 210.856C1068.75 216.762 1065.98 222.129 1059.18 225.481L1058.15 224.028C1063.54 221.344 1066.47 217.336 1066.89 212.403H1059.11V210.856H1068.75ZM1091.11 222.598C1091.11 224.438 1092.1 226.395 1094.09 227.52C1096.06 226.29 1097.11 224.215 1097.11 222.598V221.45H1098.92V222.598C1098.92 224.731 1100.49 226.887 1103.16 227.801L1102.24 229.161C1100.16 228.422 1098.69 226.969 1097.98 225.223C1097.33 226.911 1096.06 228.504 1094.14 229.325C1092.11 228.551 1090.82 227.016 1090.2 225.27C1089.46 226.958 1088.02 228.411 1086.03 229.161L1085.09 227.801C1087.71 226.817 1089.31 224.59 1089.33 222.598V221.45H1091.11V222.598ZM1101.26 208.629V220.536H1099.43V208.629H1101.26ZM1090.01 209.848C1093.17 209.848 1095.47 211.817 1095.47 214.723C1095.47 217.583 1093.17 219.551 1090.01 219.551C1086.85 219.551 1084.55 217.583 1084.55 214.723C1084.55 211.817 1086.85 209.848 1090.01 209.848ZM1090.01 211.418C1087.88 211.395 1086.33 212.778 1086.35 214.723C1086.33 216.645 1087.88 218.004 1090.01 218.028C1092.12 218.004 1093.67 216.645 1093.67 214.723C1093.67 212.778 1092.12 211.395 1090.01 211.418ZM1108.68 221.122V223.559H1119.09V221.122H1120.94V229.161H1106.85V221.122H1108.68ZM1108.68 227.684H1119.09V225.012H1108.68V227.684ZM1123.42 218.122V219.645H1104.44V218.122H1123.42ZM1114.89 209.825C1114.89 212.403 1118.69 214.7 1122.35 215.168L1121.67 216.645C1118.43 216.165 1115.27 214.512 1113.96 212.168C1112.62 214.524 1109.43 216.165 1106.22 216.645L1105.52 215.168C1109.22 214.676 1112.99 212.473 1112.99 209.825V208.84H1114.89V209.825ZM1142 208.606V229.442H1140.17V208.606H1142ZM1127.99 210.668V222.481C1131.16 222.469 1134.45 222.211 1137.95 221.473L1138.2 223.043C1134.5 223.817 1131.2 224.075 1127.87 224.075H1126.18V210.668H1127.99ZM1161.33 208.606V216.856H1164.82V218.403H1161.33V229.489H1159.5V208.606H1161.33ZM1155.84 210.645V212.168H1147.95V222.715C1151.72 222.715 1154.39 222.54 1157.49 221.965L1157.72 223.559C1154.46 224.145 1151.72 224.262 1147.76 224.262H1146.12V210.645H1155.84ZM1167.79 227.684C1166.97 227.684 1166.27 227.004 1166.29 226.161C1166.27 225.34 1166.97 224.661 1167.79 224.661C1168.61 224.661 1169.29 225.34 1169.29 226.161C1169.29 227.004 1168.61 227.684 1167.79 227.684Z" fill="#0B0B0B"/>
<path d="M759.798 55.9067C759.759 60.8677 763.275 65.2427 768.392 66.9614L766.673 69.3442C762.845 67.8989 759.837 65.0864 758.353 61.4146C756.849 65.5747 753.666 68.8169 749.486 70.3989L747.806 67.8989C753.158 66.0239 756.712 61.4146 756.752 56.0239V52.4302H759.798V55.9067ZM776.634 50.438V71.0239H773.548V60.438H765.814V57.8989H773.548V50.438H776.634ZM765.111 72.0396C772.337 72.0396 776.752 74.4224 776.752 78.6021C776.752 82.7427 772.337 85.0864 765.111 85.0864C757.884 85.0864 753.47 82.7427 753.47 78.6021C753.47 74.4224 757.884 72.0396 765.111 72.0396ZM765.111 74.4614C759.798 74.4614 756.478 76.0239 756.517 78.6021C756.478 81.1021 759.798 82.6255 765.111 82.6255C770.423 82.6255 773.705 81.1021 773.705 78.6021C773.705 76.0239 770.423 74.4614 765.111 74.4614ZM793.886 56.8442C793.886 61.3755 797.362 65.6724 802.441 67.4302L800.839 69.8521C796.913 68.4458 793.886 65.5356 792.402 61.9614C790.898 65.9653 787.695 69.1685 783.573 70.6724L781.972 68.2505C787.089 66.4146 790.8 61.7661 790.8 56.8833V55.3599H782.948V52.8599H801.659V55.3599H793.886V56.8442ZM810.605 73.0942V85.1646H807.519V75.6333H787.245V73.0942H810.605ZM810.605 50.438V71.2583H807.519V62.1177H800.566V59.5396H807.519V50.438H810.605ZM842.934 50.438V61.0239H848.169V63.6021H842.934V76.063H839.887V50.438H842.934ZM844.536 81.8442V84.4224H821.216V73.4067H824.223V81.8442H844.536ZM825.552 52.8989C830.747 52.8989 834.653 56.4146 834.692 61.4536C834.653 66.4927 830.747 70.0083 825.552 70.0083C820.356 70.0083 816.411 66.4927 816.45 61.4536C816.411 56.4146 820.356 52.8989 825.552 52.8989ZM825.552 55.5942C822.114 55.5942 819.419 58.0161 819.458 61.4536C819.419 64.8911 822.114 67.313 825.552 67.313C829.067 67.313 831.684 64.8911 831.684 61.4536C831.684 58.0161 829.067 55.5942 825.552 55.5942ZM865.577 52.7036C872.959 52.7427 878.272 56.3364 878.272 61.8052C878.272 66.981 873.662 70.4185 867.061 70.8286V78.1333H881.553V80.7114H849.756V78.1333H864.053V70.8286C857.471 70.3989 852.881 66.9614 852.881 61.8052C852.881 56.3364 858.194 52.7427 865.577 52.7036ZM865.577 55.2427C859.952 55.2427 855.85 57.8989 855.85 61.8052C855.85 65.8286 859.952 68.4067 865.577 68.4458C871.202 68.4067 875.303 65.8286 875.303 61.8052C875.303 57.8989 871.202 55.2427 865.577 55.2427ZM915.523 78.2114V80.7896H883.727V78.2114H915.523ZM911.5 53.0942V63.6021H890.758V69.3052H912.32V71.7661H887.711V61.1021H908.492V55.6333H887.633V53.0942H911.5ZM945.783 60.9849V63.4458H921.994V51.7271H925.041V60.9849H945.783ZM949.455 68.1724V70.6724H917.658V68.1724H949.455ZM945.978 81.7661V84.3052H921.798V74.2271H924.845V81.7661H945.978ZM978.528 53.6802C978.528 58.563 984.934 62.8208 991.184 63.6802L989.934 66.1802C984.544 65.2817 979.212 62.2935 976.966 58.0161C974.739 62.313 969.387 65.2817 963.997 66.1802L962.747 63.6802C968.997 62.8208 975.364 58.6411 975.364 53.6802V51.688H978.528V53.6802ZM992.747 70.0083V72.5864H978.372V85.1646H975.364V72.5864H961.106V70.0083H992.747ZM1004.65 52.0786C1009.31 52.0396 1012.85 54.7544 1013.51 58.7583H1020.78V50.438H1023.87V69.0708H1020.78V61.2974H1013.55C1012.93 65.3989 1009.35 68.1333 1004.65 68.1333C999.373 68.1333 995.623 64.8521 995.623 60.0864C995.623 55.3599 999.373 52.0396 1004.65 52.0786ZM1004.65 54.6958C1001.09 54.6567 998.553 56.8833 998.553 60.0864C998.553 63.2505 1001.09 65.5552 1004.65 65.5552C1008.16 65.5552 1010.66 63.2505 1010.66 60.0864C1010.66 56.8833 1008.16 54.6567 1004.65 54.6958ZM1004.57 70.8286V75.2427H1020.78V70.8286H1023.87V84.6958H1001.48V70.8286H1004.57ZM1004.57 82.1958H1020.78V77.7036H1004.57V82.1958ZM1046.59 53.6021V69.5786H1030.53V53.6021H1046.59ZM1033.54 56.1021V67.1177H1043.62V56.1021H1033.54ZM1056.2 50.438V61.0239H1061.43V63.6021H1056.2V75.9067H1053.15V50.438H1056.2ZM1057.8 81.8442V84.4224H1034.48V73.4849H1037.48V81.8442H1057.8ZM1104.14 65.0474V67.5083H1072.46V65.0474H1104.14ZM1100.35 59.6958V62.1958H1076.67V51.6489H1100V54.1099H1079.76V59.6958H1100.35ZM1100.03 70.6333V78.6802H1079.41V82.2739H1101.09V84.7739H1076.36V76.3755H1097.03V73.0161H1076.28V70.6333H1100.03ZM1122.25 52.7036C1129.51 52.7036 1134.94 56.4927 1134.94 62.2349C1134.94 68.0161 1129.51 71.8052 1122.25 71.7661C1114.98 71.8052 1109.55 68.0161 1109.55 62.2349C1109.55 56.4927 1114.98 52.7036 1122.25 52.7036ZM1122.25 55.2036C1116.66 55.1646 1112.44 58.0942 1112.48 62.2349C1112.44 66.4536 1116.66 69.2661 1122.25 69.2661C1127.79 69.2661 1131.97 66.4536 1131.97 62.2349C1131.97 58.0942 1127.79 55.1646 1122.25 55.2036ZM1138.22 77.9771V80.5552H1106.43V77.9771H1138.22ZM1157.62 53.9146V58.7974H1166.14V50.438H1169.19V85.2427H1166.14V70.9067H1157.62V76.3755H1141.8V53.9146H1157.62ZM1144.85 56.3364V73.9146H1154.65V56.3364H1144.85ZM1157.62 68.3677H1166.14V61.3364H1157.62V68.3677ZM809.784 104.899V109.313H788.534V104.899H796.347V101.735H801.972V104.899H809.784ZM799.159 110.211C804.394 110.211 808.066 112.946 808.066 116.852C808.066 120.836 804.394 123.532 799.159 123.532C793.964 123.532 790.175 120.836 790.214 116.852C790.175 112.946 793.964 110.211 799.159 110.211ZM799.159 114.43C797.089 114.43 795.683 115.211 795.683 116.852C795.683 118.532 797.089 119.274 799.159 119.274C801.269 119.274 802.714 118.532 802.714 116.852C802.714 115.211 801.269 114.43 799.159 114.43ZM817.128 101.891V110.993H821.777V115.563H817.128V124.391H811.503V101.891H817.128ZM817.128 125.758V137.75H811.503V130.25H792.792V125.758H817.128ZM853.169 101.93V128.961H847.505V126.383H840.825V122.594H847.505V101.93H853.169ZM853.911 132.672V137.165H826.802V126.383H831.723V121.852C828.638 121.969 825.688 122.008 823.052 122.008L822.427 117.594C828.989 117.516 837.778 117.438 845.317 116.5L845.63 120.485C842.934 120.954 840.141 121.286 837.388 121.5V128.219H832.427V132.672H853.911ZM834.028 103.063C839.263 103.063 843.013 105.758 843.013 109.547C843.013 113.415 839.263 115.915 834.028 115.915C828.716 115.915 825.005 113.415 825.005 109.547C825.005 105.758 828.716 103.063 834.028 103.063ZM834.028 107.165C831.802 107.165 830.317 107.946 830.317 109.547C830.317 111.11 831.802 111.891 834.028 111.891C836.138 111.891 837.661 111.11 837.7 109.547C837.661 107.946 836.138 107.165 834.028 107.165ZM886.631 101.891V137.829H880.967V101.891H886.631ZM863.858 104.704V113.18H870.616V104.704H876.163V129.547H858.194V104.704H863.858ZM863.858 124.977H870.616V117.516H863.858V124.977ZM908.805 104.782V122.204H891.422V104.782H908.805ZM896.969 109.235V117.829H903.258V109.235H896.969ZM919.039 101.93V112.047H923.688V116.657H919.039V128.024H913.414V101.93H919.039ZM920.211 132.672V137.165H895.523V125.407H901.148V132.672H920.211ZM963.777 101.891V137.75H958.425V120.016H955.613V136.032H950.378V102.438H955.613V115.524H958.425V101.891H963.777ZM939.753 105.758V124.235C942.429 124.157 945.378 123.903 948.542 123.297L949.089 128.141C944.363 128.961 940.261 129.196 936.628 129.157H934.128V105.758H939.753ZM996.536 104.821V108.18C996.536 112.672 996.536 117.79 995.091 125.524L989.387 124.938C990.755 118.375 990.852 113.395 990.911 109.274H970.13V104.821H996.536ZM999.466 129.04V133.571H966.77V129.04H978.137V116.852H983.723V129.04H999.466ZM1022.41 124.547C1022.41 127.34 1023.48 130.211 1026.23 132.165C1029.01 130.114 1030.14 127.184 1030.18 124.547V123.571H1035.73V124.547C1035.69 128.336 1037.45 131.696 1042.25 133.141L1039.55 137.204C1036.18 136.11 1034.01 134.02 1032.76 131.305C1031.57 134.02 1029.52 136.305 1026.35 137.516C1023.03 136.344 1020.96 134.118 1019.79 131.422C1018.5 134.02 1016.37 136.09 1013.15 137.204L1010.38 133.141C1015.14 131.54 1016.9 128.063 1016.94 124.547V123.571H1022.41V124.547ZM1039.2 101.93V122.125H1033.58V101.93H1039.2ZM1019.48 103.649C1025.1 103.688 1029.4 107.282 1029.4 112.36C1029.4 117.36 1025.1 120.993 1019.48 120.993C1013.85 120.993 1009.52 117.36 1009.55 112.36C1009.52 107.282 1013.85 103.688 1019.48 103.649ZM1019.48 108.375C1016.86 108.375 1015.02 109.782 1015.02 112.36C1015.02 114.86 1016.86 116.344 1019.48 116.344C1022.02 116.344 1023.81 114.86 1023.81 112.36C1023.81 109.782 1022.02 108.375 1019.48 108.375ZM1076.3 115.25V119.821H1071.49V137.633H1065.87V101.891H1071.49V115.25H1076.3ZM1049.7 105.29V124.352C1054.07 124.254 1058.82 123.825 1063.76 122.868L1064.35 127.516C1058.41 128.727 1052.51 129 1047.28 129H1044.07V105.29H1049.7ZM1109.8 129.118V133.688H1077.03V129.118H1084.1V120.602C1081.42 118.903 1079.8 116.364 1079.8 113.219C1079.8 107.36 1085.54 103.493 1093.35 103.493C1101.17 103.493 1106.99 107.36 1106.99 113.219C1106.99 116.305 1105.41 118.805 1102.81 120.485V129.118H1109.8ZM1093.35 107.907C1088.47 107.868 1085.35 109.782 1085.39 113.219C1085.35 116.618 1088.47 118.61 1093.35 118.61C1098.2 118.61 1101.4 116.618 1101.4 113.219C1101.4 109.782 1098.2 107.868 1093.35 107.907ZM1089.64 129.118H1097.1V122.633C1095.91 122.848 1094.66 122.946 1093.35 122.946C1092.05 122.946 1090.82 122.848 1089.64 122.633V129.118ZM1117.44 124.821C1117.44 120.094 1118.65 118.649 1120.88 117.243C1122.6 116.149 1123.93 115.055 1123.93 113.336C1123.93 111.618 1122.56 110.524 1120.88 110.524C1119.24 110.524 1117.72 111.696 1117.68 113.649H1111.47C1111.54 107.907 1115.8 105.329 1120.92 105.329C1126.58 105.329 1130.68 108.063 1130.68 113.024C1130.68 116.305 1128.93 118.336 1126.31 119.899C1124.2 121.149 1123.18 122.321 1123.18 124.821V125.368H1117.44V124.821ZM1120.41 134.391C1118.46 134.391 1116.86 132.829 1116.9 130.836C1116.86 128.922 1118.46 127.36 1120.41 127.36C1122.29 127.36 1123.93 128.922 1123.97 130.836C1123.93 132.829 1122.29 134.391 1120.41 134.391Z" fill="#0B0B0B"/>
</g>
<defs>
<linearGradient id="paint0_linear_1199_4240" x1="134.5" y1="0" x2="134.5" y2="1920" gradientUnits="userSpaceOnUse">
<stop stop-color="#1E4770"/>
<stop offset="0.3" stop-color="#071B26"/>
<stop offset="0.8" stop-color="#701E1E"/>
<stop offset="1" stop-color="#240E03"/>
</linearGradient>
<clipPath id="clip0_1199_4240">
<rect width="269" height="1920" fill="white" transform="translate(0 269.543) rotate(-90)"/>
</clipPath>
</defs>
</svg>
