<svg width="1920" height="124" viewBox="0 0 1920 124" fill="none" xmlns="http://www.w3.org/2000/svg">
<g clip-path="url(#clip0_1199_4574)">
<rect width="123" height="1920" transform="translate(0 123.543) rotate(-90)" fill="url(#paint0_linear_1199_4574)"/>
<rect width="123" height="1920" transform="translate(0 123.543) rotate(-90)" fill="#D8D1BE"/>
<path d="M709.811 72.2935V66.4497H703.967V62.5435H709.811V56.6997H713.717V62.5435H719.561V66.4497H713.717V72.2935H709.811ZM751.914 47.981V59.106H756.101V62.3872H751.914V76.4185H747.976V47.981H751.914ZM746.039 52.231V55.4185H729.32V52.231H735.757V48.4185H739.757V52.231H746.039ZM737.757 57.0122C741.914 57.0122 745.007 59.8247 745.007 63.7935C745.007 67.7622 741.914 70.5747 737.757 70.5747C733.57 70.5747 730.476 67.7622 730.476 63.7935C730.476 59.8247 733.57 57.0122 737.757 57.0122ZM737.757 60.231C735.757 60.2622 734.289 61.606 734.289 63.7935C734.289 66.0122 735.757 67.3247 737.757 67.2935C739.757 67.3247 741.195 66.0122 741.195 63.7935C741.195 61.606 739.757 60.2622 737.757 60.231ZM779.653 48.856V57.3247H763.746V59.6997H780.309V62.8872H759.715V54.3247H775.559V52.0747H759.621V48.856H779.653ZM782.653 65.0122V68.1997H771.59V76.481H767.59V68.1997H756.621V65.0122H782.653ZM808.485 47.981V76.4185H804.673V47.981H808.485ZM802.548 48.3872V75.106H798.798V61.6685H796.516C796.141 67.2622 793.766 70.6372 790.266 70.6372C786.516 70.6372 784.079 66.6997 784.079 60.2935C784.079 53.9185 786.516 50.0122 790.266 50.0122C793.688 50.0122 796.032 53.1997 796.485 58.5122H798.798V48.3872H802.548ZM790.266 53.7622C788.673 53.7622 787.735 55.9497 787.766 60.2935C787.735 64.6685 788.673 66.8247 790.266 66.7935C791.891 66.8247 792.86 64.6685 792.86 60.2935C792.86 55.9497 791.891 53.7622 790.266 53.7622ZM834.192 60.6997V63.856H825.942V69.9185H837.036V73.1685H811.005V69.9185H821.974V63.856H814.067V49.981H833.974V53.1685H818.067V60.6997H834.192ZM860.17 50.1997C860.17 53.5435 863.576 57.2622 870.107 58.0747L868.545 61.2935C863.576 60.5747 859.936 58.2778 858.076 55.1997C856.201 58.2778 852.592 60.5747 847.67 61.2935L846.076 58.0747C852.545 57.2622 855.982 53.5435 855.982 50.1997V48.8247H860.17V50.1997ZM871.014 63.4497V66.6997H859.951V76.4185H856.014V66.6997H845.076V63.4497H871.014ZM883.159 51.481C883.128 54.8247 885.19 58.1685 889.846 59.5122L887.94 62.606C884.659 61.6372 882.393 59.6685 881.096 57.1372C879.815 59.8872 877.471 62.0591 874.065 63.0747L872.159 59.9497C876.909 58.5435 879.003 54.9497 879.003 51.481V48.8247H883.159V51.481ZM896.065 47.981V63.2622H892.065V47.981H896.065ZM880.971 64.5122V67.1685H892.096V64.5122H896.065V76.106H877.034V64.5122H880.971ZM880.971 72.8872H892.096V70.2622H880.971V72.8872ZM923.397 48.0122V68.7935H919.429V59.5122H914.335V56.231H919.429V48.0122H923.397ZM914.585 50.106C914.585 57.731 909.741 63.356 901.429 65.9497L899.804 62.7935C905.694 60.9497 909.491 57.5591 910.241 53.356H901.272V50.106H914.585ZM924.116 72.731V75.9185H904.647V66.6997H908.71V72.731H924.116ZM951.011 65.856V76.4185H947.011V69.0122H930.667V65.856H951.011ZM951.011 47.981V64.5435H947.011V47.981H951.011ZM934.042 51.4185C934.042 53.9028 934.386 56.8091 936.042 59.0435C937.621 56.8247 937.98 53.9497 938.011 51.4185V49.606H941.73V51.4185C941.73 54.9185 942.636 58.6997 945.949 60.6685L943.792 63.481C941.824 62.3091 940.605 60.481 939.886 58.3247C939.199 60.5591 938.027 62.5591 936.042 63.8247C934.042 62.5591 932.855 60.5591 932.167 58.2935C931.433 60.4497 930.23 62.3091 928.292 63.481L926.105 60.6685C929.449 58.6372 930.292 54.7935 930.292 51.4185V49.606H934.042V51.4185ZM984.645 65.4185V76.106H965.645V65.4185H984.645ZM969.582 68.5747V72.9185H980.739V68.5747H969.582ZM966.207 49.481V59.7935C969.77 59.7466 973.426 59.4653 977.239 58.6997L977.645 62.0435C973.145 62.9497 968.895 63.1685 964.645 63.1685H962.27V49.481H966.207ZM984.645 47.981V64.231H980.676V55.981H973.614V52.7622H980.676V47.981H984.645ZM1011.85 47.981V76.481H1007.88V65.6372H1002.98V62.4185H1007.88V59.7935H1002.98V56.5122H1007.88V47.981H1011.85ZM998.509 56.8872C998.509 61.0122 1000.76 65.6685 1005.42 67.6997L1003.23 70.731C1000.04 69.3872 997.79 66.6372 996.54 63.3872C995.321 66.8247 993.071 69.7153 989.821 71.106L987.728 68.0435C992.29 66.0122 994.509 61.1685 994.54 56.8872V55.7935H988.634V52.606H994.54V48.606H998.54V52.606H1004.29V55.7935H998.509V56.8872ZM1041.5 58.7622V62.0122H1037.47V76.356H1033.47V47.981H1037.47V58.7622H1041.5ZM1019.9 50.6997V66.106C1023.54 66.0591 1027.45 65.7153 1031.56 64.8872L1031.97 68.1997C1027.22 69.1685 1022.59 69.4185 1018.4 69.4185H1015.93V50.6997H1019.9ZM1065.3 55.731V58.856H1045.42V48.981H1049.39V55.731H1065.3ZM1068.2 61.9185V65.0435H1042.17V61.9185H1068.2ZM1065.49 72.606V75.7935H1045.17V67.356H1049.17V72.606H1065.49ZM1102.28 63.7935V67.0122H1096.18V76.4185H1092.12V67.0122H1086.31V76.4185H1082.21V67.0122H1076.24V63.7935H1102.28ZM1089.18 48.9185C1095.28 48.9185 1099.56 51.4497 1099.56 55.356C1099.56 59.1997 1095.28 61.606 1089.18 61.606C1083.09 61.606 1078.84 59.1997 1078.87 55.356C1078.84 51.4497 1083.09 48.9185 1089.18 48.9185ZM1089.18 52.106C1085.37 52.106 1082.93 53.2622 1082.96 55.356C1082.93 57.356 1085.37 58.481 1089.18 58.481C1093.03 58.481 1095.43 57.356 1095.43 55.356C1095.43 53.2622 1093.03 52.106 1089.18 52.106ZM1129.45 64.7935V68.0435H1123.45V76.4185H1119.42V68.0435H1113.48V76.4185H1109.51V68.0435H1103.42V64.7935H1129.45ZM1126.67 59.6372V62.7935H1106.7V49.1372H1126.36V52.2622H1110.61V54.356H1125.76V57.4497H1110.61V59.6372H1126.67ZM1156.66 69.731V72.981H1130.63V69.731H1156.66ZM1137.38 49.7935V54.5122H1149.79V49.7935H1153.75V64.981H1133.38V49.7935H1137.38ZM1137.38 61.856H1149.79V57.606H1137.38V61.856ZM1189.29 50.9185V54.1372H1165.95V50.9185H1175.67V47.9497H1179.64V50.9185H1189.29ZM1190.73 66.356V69.606H1179.64V76.4497H1175.67V69.606H1164.7V66.356H1190.73ZM1177.67 55.231C1183.76 55.231 1187.45 56.9497 1187.48 60.106C1187.45 63.2622 1183.76 64.981 1177.67 64.981C1171.51 64.981 1167.83 63.2622 1167.86 60.106C1167.83 56.9497 1171.51 55.231 1177.67 55.231ZM1177.67 58.1685C1173.86 58.1997 1171.98 58.7935 1171.98 60.106C1171.98 61.3872 1173.86 62.0122 1177.67 62.0122C1181.42 62.0122 1183.33 61.3872 1183.33 60.106C1183.33 58.7935 1181.42 58.1997 1177.67 58.1685ZM1215.78 47.981V76.4185H1211.75V47.981H1215.78ZM1207.25 50.9497C1207.25 59.5747 1204.22 66.731 1194.06 71.5435L1191.97 68.356C1199.31 64.8872 1202.55 60.3872 1203.19 54.0747H1193.5V50.9497H1207.25Z" fill="#0B0B0B"/>
</g>
<defs>
<linearGradient id="paint0_linear_1199_4574" x1="61.5" y1="0" x2="61.5" y2="1920" gradientUnits="userSpaceOnUse">
<stop stop-color="#1E4770"/>
<stop offset="0.3" stop-color="#071B26"/>
<stop offset="0.8" stop-color="#701E1E"/>
<stop offset="1" stop-color="#240E03"/>
</linearGradient>
<clipPath id="clip0_1199_4574">
<rect width="123" height="1920" fill="white" transform="translate(0 123.543) rotate(-90)"/>
</clipPath>
</defs>
</svg>
