<svg width="860" height="158" viewBox="0 0 860 158" fill="none" xmlns="http://www.w3.org/2000/svg">
<g clip-path="url(#clip0_1199_3529)">
<rect width="157" height="860" transform="translate(0 157.875) rotate(-90)" fill="url(#paint0_linear_1199_3529)"/>
<path d="M301.192 55.4033H284.253V53.5576H291.513V49.2715H293.769V53.5576H301.192V55.4033ZM293.83 41.6426C293.83 42.5723 294.117 43.4746 294.691 44.3496C295.273 45.2246 296.072 45.9766 297.091 46.6055C298.116 47.2275 299.265 47.6377 300.536 47.8359L299.552 49.7227C297.986 49.4287 296.592 48.8579 295.368 48.0103C294.151 47.1558 293.235 46.1235 292.62 44.9136C292.21 45.7134 291.663 46.4448 290.98 47.1079C290.296 47.7642 289.506 48.3179 288.611 48.769C287.715 49.2134 286.755 49.5312 285.73 49.7227L284.745 47.8359C286.003 47.6377 287.138 47.2275 288.15 46.6055C289.168 45.9766 289.964 45.2246 290.539 44.3496C291.113 43.4678 291.403 42.5654 291.41 41.6426V40.2891H293.83V41.6426ZM311.747 40.6992C311.747 41.4785 312.02 42.2373 312.567 42.9756C313.121 43.7139 313.893 44.3462 314.884 44.8726C315.882 45.3989 317.024 45.7441 318.309 45.9082L317.407 47.7539C315.848 47.5215 314.467 47.043 313.264 46.3184C312.061 45.5869 311.155 44.6948 310.547 43.6421C309.939 44.6948 309.036 45.5869 307.84 46.3184C306.644 47.043 305.273 47.5215 303.728 47.7539L302.826 45.9082C304.097 45.7441 305.229 45.3989 306.22 44.8726C307.211 44.3462 307.98 43.7139 308.527 42.9756C309.074 42.2373 309.347 41.4785 309.347 40.6992V39.7559H311.747V40.6992ZM318.986 51.2402H311.624V57.7002H309.368V51.2402H302.087V49.3535H318.986V51.2402ZM335.446 50.1738H333.17V45.6416H330.012V43.7754H333.17V39.1611H335.446V50.1738ZM329.171 50.6455C330.477 50.6455 331.604 50.7856 332.555 51.0659C333.512 51.3394 334.243 51.7427 334.749 52.2759C335.255 52.8022 335.508 53.4346 335.508 54.1729C335.508 54.9111 335.255 55.5435 334.749 56.0698C334.243 56.603 333.512 57.0063 332.555 57.2798C331.604 57.5601 330.477 57.7002 329.171 57.7002C327.872 57.7002 326.748 57.5601 325.797 57.2798C324.847 57.0063 324.119 56.603 323.613 56.0698C323.114 55.5435 322.868 54.9111 322.875 54.1729C322.868 53.4346 323.114 52.8022 323.613 52.2759C324.119 51.7427 324.847 51.3394 325.797 51.0659C326.748 50.7856 327.872 50.6455 329.171 50.6455ZM329.171 52.3887C327.872 52.3887 326.874 52.5425 326.177 52.8501C325.479 53.1509 325.131 53.5918 325.131 54.1729C325.131 54.7471 325.479 55.1846 326.177 55.4854C326.874 55.7861 327.872 55.9365 329.171 55.9365C330.47 55.9365 331.471 55.7861 332.175 55.4854C332.879 55.1846 333.231 54.7471 333.231 54.1729C333.231 53.5918 332.879 53.1509 332.175 52.8501C331.471 52.5425 330.47 52.3887 329.171 52.3887ZM326.73 42.3398C326.73 43.1055 326.898 43.8506 327.233 44.5752C327.568 45.293 328.063 45.939 328.72 46.5132C329.376 47.0806 330.169 47.5215 331.099 47.8359L329.95 49.6406C328.945 49.2988 328.074 48.7964 327.335 48.1333C326.604 47.4634 326.03 46.6841 325.613 45.7954C325.196 46.8003 324.601 47.6787 323.829 48.4307C323.056 49.1758 322.13 49.7432 321.05 50.1328L319.86 48.3281C320.824 48 321.648 47.5249 322.332 46.9028C323.015 46.2739 323.531 45.5664 323.88 44.7803C324.235 43.9941 324.413 43.1875 324.413 42.3604V42.2168H320.558V40.3711H330.565V42.2168H326.73V42.3398ZM353.752 57.7002H351.558V39.1611H353.752V57.7002ZM349.999 56.7979H347.846V50.9531H345.416C345.074 51.8691 344.602 52.5767 344.001 53.0757C343.406 53.5679 342.719 53.8105 341.94 53.8037C341.14 53.8105 340.436 53.5474 339.828 53.0142C339.226 52.4741 338.761 51.7051 338.433 50.707C338.105 49.7021 337.941 48.5264 337.941 47.1797C337.941 45.833 338.105 44.6641 338.433 43.6729C338.761 42.6748 339.226 41.9092 339.828 41.376C340.436 40.8428 341.14 40.5762 341.94 40.5762C342.719 40.5762 343.406 40.8223 344.001 41.3145C344.596 41.7998 345.067 42.4971 345.416 43.4062H347.846V39.4893H349.999V56.7979ZM341.94 42.7295C341.331 42.7158 340.86 43.0952 340.525 43.8677C340.19 44.6401 340.026 45.7441 340.033 47.1797C340.026 48.6152 340.19 49.7192 340.525 50.4917C340.86 51.2642 341.331 51.6436 341.94 51.6299C342.35 51.6367 342.702 51.4692 342.996 51.1274C343.297 50.7856 343.526 50.2798 343.683 49.6099C343.847 48.9399 343.929 48.1299 343.929 47.1797C343.929 46.2295 343.847 45.4194 343.683 44.7495C343.526 44.0796 343.297 43.5737 342.996 43.2319C342.702 42.8901 342.35 42.7227 341.94 42.7295ZM345.877 45.252C345.973 45.8672 346.021 46.5098 346.021 47.1797C346.021 47.8086 345.976 48.4443 345.888 49.0869H347.846V45.252H345.877ZM366.904 55.875H364.217V43.6318H364.135L360.669 45.8467V43.4062L364.34 41.0273H366.904V55.875ZM371.839 56.0391C371.551 56.0391 371.285 55.9673 371.039 55.8237C370.793 55.6802 370.598 55.4854 370.454 55.2393C370.311 54.9932 370.239 54.7266 370.239 54.4395C370.239 54.1592 370.311 53.8994 370.454 53.6602C370.598 53.4141 370.793 53.2192 371.039 53.0757C371.285 52.9321 371.551 52.8604 371.839 52.8604C372.112 52.8604 372.368 52.9321 372.608 53.0757C372.854 53.2192 373.049 53.4141 373.192 53.6602C373.343 53.8994 373.418 54.1592 373.418 54.4395C373.418 54.7266 373.343 54.9932 373.192 55.2393C373.049 55.4854 372.854 55.6802 372.608 55.8237C372.368 55.9673 372.112 56.0391 371.839 56.0391ZM371.839 48.082C371.551 48.082 371.285 48.0103 371.039 47.8667C370.793 47.7231 370.598 47.5283 370.454 47.2822C370.311 47.0361 370.239 46.7695 370.239 46.4824C370.239 46.2021 370.311 45.9424 370.454 45.7031C370.598 45.457 370.793 45.2622 371.039 45.1187C371.285 44.9751 371.551 44.9033 371.839 44.9033C372.112 44.9033 372.368 44.9751 372.608 45.1187C372.854 45.2622 373.049 45.457 373.192 45.7031C373.343 45.9424 373.418 46.2021 373.418 46.4824C373.418 46.7695 373.343 47.0361 373.192 47.2822C373.049 47.5283 372.854 47.7231 372.608 47.8667C372.368 48.0103 372.112 48.082 371.839 48.082ZM381.634 55.875H378.947V43.6318H378.865L375.4 45.8467V43.4062L379.07 41.0273H381.634V55.875ZM404.896 57.7002H402.701V48.1846H400.712V56.8389H398.579V39.6533H400.712V46.3389H402.701V39.1611H404.896V57.7002ZM397 41.499C397 43.2627 396.788 44.8828 396.364 46.3594C395.94 47.8359 395.223 49.2065 394.211 50.4712C393.199 51.7358 391.846 52.8535 390.15 53.8242L388.838 52.2451C390.752 51.1377 392.177 49.8525 393.114 48.3896C394.057 46.9268 394.614 45.2383 394.785 43.3242H389.699V41.499H397ZM422.258 52.5732H419.961V39.1816H422.258V52.5732ZM422.771 57.3311H409.995V51.2197H412.292V55.4854H422.771V57.3311ZM412.148 40.3916C413.078 40.3916 413.922 40.5933 414.681 40.9966C415.439 41.3931 416.038 41.9434 416.475 42.6475C416.913 43.3516 417.131 44.1445 417.131 45.0264C417.131 45.9219 416.913 46.7251 416.475 47.436C416.038 48.1401 415.439 48.6904 414.681 49.0869C413.922 49.4834 413.078 49.6816 412.148 49.6816C411.211 49.6816 410.36 49.4834 409.595 49.0869C408.836 48.6904 408.238 48.1401 407.8 47.436C407.363 46.7251 407.144 45.9219 407.144 45.0264C407.144 44.1445 407.363 43.3516 407.8 42.6475C408.238 41.9434 408.836 41.3931 409.595 40.9966C410.36 40.5933 411.211 40.3916 412.148 40.3916ZM412.148 42.3809C411.622 42.3809 411.146 42.4902 410.723 42.709C410.299 42.9277 409.967 43.2388 409.728 43.6421C409.489 44.0454 409.373 44.5068 409.379 45.0264C409.373 45.5596 409.489 46.0278 409.728 46.4312C409.967 46.8345 410.299 47.1455 410.723 47.3643C411.146 47.583 411.622 47.6924 412.148 47.6924C412.661 47.6924 413.125 47.583 413.542 47.3643C413.959 47.1455 414.288 46.8345 414.527 46.4312C414.773 46.0278 414.896 45.5596 414.896 45.0264C414.896 44.5068 414.773 44.0454 414.527 43.6421C414.288 43.2388 413.959 42.9277 413.542 42.709C413.125 42.4902 412.661 42.3809 412.148 42.3809ZM438.732 48.4512H429.954V40.3916H438.732V48.4512ZM432.19 46.626H436.496V42.2168H432.19V46.626ZM443.941 43.3242H446.525V45.2109H443.941V49.6201H441.664V39.1611H443.941V43.3242ZM444.207 52.3682H439.275C439.398 52.9014 439.709 53.4106 440.208 53.896C440.707 54.3745 441.364 54.7915 442.177 55.147C442.997 55.4956 443.934 55.7451 444.987 55.8955L444.166 57.6387C442.738 57.4336 441.487 57.0405 440.413 56.4595C439.347 55.8784 438.544 55.1641 438.004 54.3164C437.464 55.1641 436.664 55.875 435.604 56.4492C434.545 57.0303 433.304 57.4131 431.882 57.5977L431.041 55.875C432.101 55.7314 433.037 55.4888 433.851 55.147C434.671 54.7983 435.324 54.3848 435.809 53.9062C436.302 53.4277 436.613 52.915 436.743 52.3682H431.8V50.5635H444.207V52.3682ZM464.052 49.9688H456.71V51.5889H462.001V57.4746H449.142V51.5889H454.454V49.9688H447.153V48.1641H464.052V49.9688ZM456.71 40.8018H462.39V42.6064H456.874C456.963 43.1191 457.263 43.5908 457.776 44.0215C458.296 44.4453 459.013 44.8008 459.93 45.0879C460.852 45.3682 461.946 45.5527 463.211 45.6416L462.555 47.3232C460.88 47.1934 459.444 46.8892 458.248 46.4106C457.052 45.9321 456.163 45.3032 455.582 44.5239C455.001 45.3032 454.112 45.9321 452.916 46.4106C451.72 46.8892 450.291 47.1934 448.63 47.3232L447.953 45.6416C449.218 45.5527 450.308 45.3682 451.224 45.0879C452.147 44.8008 452.865 44.4453 453.377 44.0215C453.89 43.5908 454.191 43.1191 454.28 42.6064H448.814V40.8018H454.454V39.1406H456.71V40.8018ZM451.398 55.6289H459.786V53.4141H451.398V55.6289ZM486.595 55.4648H469.656V53.5576H486.595V55.4648ZM485.119 42.709H482.412V48.6152H485.057V50.4199H471.112V48.6152H473.716V42.709H471.05V40.8838H485.119V42.709ZM480.156 48.6152V42.709H475.993V48.6152H480.156ZM504.43 55.5469H487.49V53.6602H494.791V50.6455H489.5V44.5752H500.164V42.2783H489.459V40.4326H502.42V46.3799H491.776V48.7793H502.851V50.6455H497.047V53.6602H504.43V55.5469ZM520.07 43.0576C520.07 44.165 520.056 45.1187 520.029 45.9185C520.008 46.7114 519.95 47.6206 519.855 48.646C519.759 49.6714 519.605 50.7891 519.393 51.999L517.076 51.7939C517.301 50.666 517.465 49.5996 517.568 48.5947C517.67 47.583 517.732 46.6807 517.753 45.8877C517.78 45.0879 517.794 44.1445 517.794 43.0576V42.8115H507.109V40.9658H520.07V43.0576ZM522.223 55.1572H505.325V53.291H522.223V55.1572ZM539.012 50.1533H536.838V45.498H534.91V49.9688H532.777V39.5303H534.91V43.6523H536.838V39.1816H539.012V50.1533ZM539.012 57.4746H526.502V50.9326H539.012V57.4746ZM528.778 55.6289H536.756V52.7578H528.778V55.6289ZM530.973 45.6621H526.153V47.6719C527.322 47.6582 528.337 47.6172 529.199 47.5488C530.067 47.4805 530.945 47.3574 531.834 47.1797L532.039 48.9844C531.096 49.1621 530.169 49.2817 529.26 49.3433C528.351 49.4048 527.281 49.4355 526.051 49.4355H525.21H523.938V43.96H528.778V42.1143H523.918V40.3096H530.973V45.6621ZM549.422 40.207C550.721 40.207 551.897 40.4258 552.95 40.8633C554.002 41.2939 554.83 41.9058 555.431 42.6987C556.033 43.4917 556.333 44.4043 556.333 45.4365C556.333 46.4824 556.033 47.4053 555.431 48.2051C554.83 48.998 554.002 49.6133 552.95 50.0508C551.904 50.4883 550.728 50.707 549.422 50.707C548.124 50.707 546.951 50.4883 545.905 50.0508C544.859 49.6133 544.036 48.998 543.434 48.2051C542.839 47.4053 542.545 46.4824 542.552 45.4365C542.545 44.4043 542.839 43.4917 543.434 42.6987C544.036 41.9058 544.859 41.2939 545.905 40.8633C546.951 40.4258 548.124 40.207 549.422 40.207ZM549.422 42.0527C548.534 42.0459 547.734 42.1826 547.023 42.4629C546.312 42.7432 545.755 43.1431 545.352 43.6626C544.948 44.1753 544.747 44.7666 544.747 45.4365C544.747 46.1201 544.948 46.7217 545.352 47.2412C545.755 47.7539 546.309 48.1504 547.013 48.4307C547.724 48.7041 548.527 48.8408 549.422 48.8408C550.325 48.8408 551.128 48.7041 551.832 48.4307C552.543 48.1504 553.097 47.7539 553.493 47.2412C553.896 46.7217 554.098 46.1201 554.098 45.4365C554.098 44.7666 553.896 44.1753 553.493 43.6626C553.097 43.1431 552.543 42.7432 551.832 42.4629C551.121 42.1826 550.318 42.0459 549.422 42.0527ZM557.933 55.3623H540.994V53.4961H557.933V55.3623ZM575.767 55.5469H558.828V53.6602H566.129V50.6455H560.838V44.5752H571.502V42.2783H560.797V40.4326H573.758V46.3799H563.114V48.7793H574.188V50.6455H568.385V53.6602H575.767V55.5469ZM224.622 75.0938H220.725C220.739 75.8252 220.923 76.5293 221.279 77.2061C221.634 77.876 222.15 78.4741 222.827 79.0005C223.511 79.52 224.328 79.9131 225.278 80.1797L224.129 81.9639C223.077 81.6494 222.164 81.1743 221.392 80.5386C220.626 79.9028 220.028 79.1475 219.597 78.2725C219.173 79.2158 218.565 80.0327 217.772 80.7231C216.986 81.4136 216.049 81.9297 214.962 82.2715L213.814 80.4873C214.771 80.207 215.595 79.79 216.285 79.2363C216.976 78.6826 217.499 78.0503 217.854 77.3394C218.216 76.6216 218.408 75.873 218.428 75.0938H214.429V73.2686H224.622V75.0938ZM229.133 82.21H226.836V72.1611H229.133V82.21ZM219.126 84.9375H226.857V83.0303H229.133V90.4746H216.87V83.0303H219.126V84.9375ZM226.857 88.6289V86.7012H219.126V88.6289H226.857ZM248.424 82.5176H241.082V84.0659C242.757 84.1753 244.056 84.5137 244.979 85.0811C245.901 85.6416 246.366 86.4004 246.373 87.3574C246.366 88.0615 246.106 88.6631 245.594 89.1621C245.081 89.6611 244.346 90.0371 243.389 90.29C242.432 90.5498 241.287 90.6797 239.954 90.6797C238.607 90.6797 237.449 90.5498 236.478 90.29C235.514 90.0371 234.776 89.6611 234.263 89.1621C233.75 88.6631 233.494 88.0615 233.494 87.3574C233.494 86.4004 233.959 85.6382 234.889 85.0708C235.818 84.5034 237.131 84.1685 238.826 84.0659V82.5176H231.525V80.6719H248.424V82.5176ZM239.954 85.7783C238.594 85.792 237.562 85.9321 236.857 86.1987C236.153 86.4585 235.805 86.8447 235.812 87.3574C235.805 87.8701 236.153 88.2632 236.857 88.5366C237.568 88.8032 238.601 88.9365 239.954 88.9365C241.28 88.9365 242.299 88.8032 243.01 88.5366C243.728 88.2632 244.09 87.8701 244.097 87.3574C244.09 86.8516 243.731 86.4653 243.02 86.1987C242.309 85.9321 241.287 85.792 239.954 85.7783ZM246.906 74.8066H241.564C241.687 75.3193 242.008 75.8013 242.528 76.2524C243.054 76.7036 243.751 77.0864 244.62 77.4009C245.495 77.7153 246.496 77.9238 247.624 78.0264L246.824 79.8311C245.156 79.6602 243.721 79.2603 242.518 78.6313C241.314 78.0024 240.46 77.2163 239.954 76.2729C239.448 77.2163 238.597 78.0059 237.401 78.6416C236.211 79.2705 234.786 79.667 233.125 79.8311L232.346 78.0264C233.446 77.9238 234.427 77.7153 235.289 77.4009C236.15 77.0864 236.844 76.7036 237.37 76.2524C237.896 75.7944 238.225 75.3125 238.354 74.8066H233.063V72.9814H246.906V74.8066ZM255.943 84.2197C255.943 85.0332 256.134 85.8125 256.517 86.5576C256.907 87.2959 257.481 87.9077 258.24 88.3931C259.005 87.8735 259.59 87.2378 259.993 86.4858C260.396 85.7271 260.605 84.9717 260.619 84.2197V83.4609H262.854V84.2197C262.847 84.8828 262.974 85.5117 263.233 86.1064C263.493 86.7012 263.89 87.2275 264.423 87.6855C264.963 88.1436 265.629 88.499 266.422 88.752L265.315 90.4131C264.433 90.1191 263.688 89.6919 263.08 89.1313C262.471 88.5708 261.999 87.9111 261.664 87.1523C261.35 87.918 260.909 88.5981 260.342 89.1929C259.781 89.7944 259.101 90.2559 258.301 90.5771C257.454 90.2695 256.743 89.8252 256.168 89.2441C255.594 88.6631 255.153 87.9863 254.846 87.2139C254.511 87.9453 254.042 88.5845 253.441 89.1313C252.846 89.6851 252.128 90.1123 251.288 90.4131L250.16 88.752C250.932 88.4785 251.585 88.106 252.118 87.6343C252.651 87.1558 253.051 86.6226 253.318 86.0347C253.584 85.4468 253.721 84.8418 253.728 84.2197V83.4609H255.943V84.2197ZM264.802 82.6816H262.505V72.1816H264.802V82.6816ZM254.692 73.166C255.635 73.166 256.486 73.354 257.245 73.73C258.004 74.0991 258.599 74.6187 259.029 75.2886C259.46 75.9585 259.675 76.7207 259.675 77.5752C259.675 78.4229 259.46 79.1816 259.029 79.8516C258.599 80.5146 258.004 81.0342 257.245 81.4102C256.486 81.7793 255.635 81.9639 254.692 81.9639C253.742 81.9639 252.887 81.7793 252.128 81.4102C251.37 81.0342 250.771 80.5146 250.334 79.8516C249.903 79.1816 249.688 78.4229 249.688 77.5752C249.688 76.7207 249.903 75.9585 250.334 75.2886C250.771 74.6187 251.37 74.0991 252.128 73.73C252.887 73.354 253.742 73.166 254.692 73.166ZM254.692 75.0938C254.152 75.0938 253.67 75.1963 253.246 75.4014C252.829 75.6064 252.501 75.897 252.262 76.2729C252.029 76.6421 251.916 77.0762 251.923 77.5752C251.916 78.0742 252.029 78.5117 252.262 78.8877C252.501 79.2637 252.829 79.5576 253.246 79.7695C253.67 79.9746 254.152 80.0771 254.692 80.0771C255.225 80.0771 255.697 79.9746 256.107 79.7695C256.524 79.5645 256.849 79.2739 257.081 78.8979C257.32 78.5151 257.44 78.0742 257.44 77.5752C257.44 77.0762 257.324 76.6421 257.091 76.2729C256.859 75.897 256.534 75.6064 256.117 75.4014C255.7 75.1963 255.225 75.0938 254.692 75.0938ZM283.19 90.7002H281.016V72.1611H283.19V90.7002ZM279.253 89.8184H277.099V81.2871H273.787C272.673 83.4951 270.858 85.3271 268.343 86.7832L267.051 85.1631C268.937 84.0557 270.356 82.7739 271.306 81.3179C272.256 79.855 272.82 78.1699 272.998 76.2627H267.994V74.417H275.254C275.254 76.2832 275.015 77.9648 274.536 79.4619H277.099V72.6123H279.253V89.8184ZM298.044 83.748C299.384 83.7549 300.546 83.8984 301.53 84.1787C302.514 84.4521 303.273 84.8486 303.806 85.3682C304.346 85.8877 304.62 86.5098 304.627 87.2344C304.62 87.9453 304.346 88.5571 303.806 89.0698C303.273 89.5894 302.511 89.9858 301.52 90.2593C300.535 90.5396 299.377 90.6797 298.044 90.6797C296.718 90.6797 295.559 90.5396 294.568 90.2593C293.583 89.9858 292.821 89.5894 292.281 89.0698C291.748 88.5571 291.481 87.9453 291.481 87.2344C291.481 86.5098 291.748 85.8877 292.281 85.3682C292.821 84.8486 293.583 84.4521 294.568 84.1787C295.552 83.8984 296.711 83.7549 298.044 83.748ZM298.044 85.4707C296.704 85.4707 295.655 85.6245 294.896 85.9321C294.144 86.2397 293.771 86.6738 293.778 87.2344C293.771 87.7744 294.144 88.1914 294.896 88.4854C295.648 88.7725 296.697 88.916 298.044 88.916C299.397 88.916 300.453 88.7725 301.212 88.4854C301.978 88.1914 302.364 87.7744 302.371 87.2344C302.364 86.6738 301.978 86.2397 301.212 85.9321C300.453 85.6245 299.397 85.4707 298.044 85.4707ZM304.504 74.5811C304.504 75.5654 304.473 76.4199 304.411 77.1445C304.357 77.8691 304.217 78.6553 303.991 79.5029L301.735 79.2979C301.94 78.4844 302.074 77.7495 302.135 77.0933C302.197 76.4302 302.227 75.6816 302.227 74.8477H291.666V73.043H304.504V74.5811ZM306.554 82.415H289.738V80.5693H296.26V77.2061H298.515V80.5693H306.554V82.415ZM324.45 84.7529H317.068V90.7002H314.812V84.7529H307.511V82.9482H324.45V84.7529ZM311.818 75.1758H320.103V72.8994H322.4V81.0205H309.562V72.8994H311.818V75.1758ZM320.103 79.1748V76.9805H311.818V79.1748H320.103ZM339.988 76.3037H342.592V78.1494H339.988V82.2305H337.712V72.1201H339.988V76.3037ZM339.988 87.5215H330.144V88.834H340.562V90.5361H327.888V85.9424H337.712V84.7119H327.868V83.0508H339.988V87.5215ZM336.379 75.4014H325.386V73.6582H329.755V72.0176H332.031V73.6582H336.379V75.4014ZM330.882 75.9756C331.792 75.9824 332.585 76.1123 333.261 76.3652C333.945 76.6113 334.471 76.9634 334.84 77.4214C335.216 77.8726 335.408 78.4023 335.415 79.0107C335.408 79.6396 335.216 80.1831 334.84 80.6411C334.471 81.0923 333.948 81.4409 333.272 81.687C332.595 81.9263 331.798 82.0459 330.882 82.0459C329.966 82.0459 329.167 81.9263 328.483 81.687C327.799 81.4409 327.27 81.0923 326.894 80.6411C326.518 80.1831 326.33 79.6396 326.33 79.0107C326.33 78.4023 326.518 77.8726 326.894 77.4214C327.27 76.9634 327.799 76.6113 328.483 76.3652C329.173 76.1123 329.973 75.9824 330.882 75.9756ZM330.882 77.6162C330.158 77.6162 329.587 77.7393 329.17 77.9854C328.753 78.2314 328.545 78.5732 328.545 79.0107C328.545 79.4551 328.753 79.8003 329.17 80.0464C329.587 80.2856 330.158 80.4053 330.882 80.4053C331.614 80.4053 332.188 80.2856 332.605 80.0464C333.029 79.8003 333.241 79.4551 333.241 79.0107C333.241 78.5732 333.029 78.2314 332.605 77.9854C332.181 77.7393 331.607 77.6162 330.882 77.6162ZM362.491 76.6318H365.075V78.5391H362.491V82.9688H360.214V72.1611H362.491V76.6318ZM357.323 73.248C357.323 74.8545 356.984 76.2969 356.308 77.5752C355.631 78.8467 354.643 79.9302 353.344 80.8257C352.052 81.7144 350.48 82.3945 348.627 82.8662L347.684 81.123C349.113 80.7539 350.34 80.272 351.365 79.6772C352.397 79.0757 353.208 78.3887 353.795 77.6162C354.383 76.8369 354.742 75.9961 354.872 75.0938H348.607V73.248H357.323ZM362.491 90.7002H360.214V85.5732H350.145V83.748H362.491V90.7002ZM374.132 73.207C375.451 73.207 376.634 73.4155 377.68 73.8325C378.732 74.2495 379.556 74.8374 380.151 75.5962C380.746 76.355 381.043 77.2266 381.043 78.2109C381.043 79.1201 380.797 79.9302 380.305 80.6411C379.819 81.3521 379.139 81.9263 378.264 82.3638C377.396 82.7944 376.395 83.0679 375.26 83.1841V86.5781H382.643V88.4443H365.703V86.5781H373.004V83.1841C371.876 83.0679 370.878 82.7944 370.01 82.3638C369.142 81.9263 368.465 81.3521 367.979 80.6411C367.494 79.9302 367.255 79.1201 367.262 78.2109C367.255 77.2266 367.545 76.355 368.133 75.5962C368.728 74.8374 369.548 74.2495 370.594 73.8325C371.64 73.4155 372.819 73.207 374.132 73.207ZM374.132 75.0527C373.229 75.0459 372.426 75.1724 371.722 75.4321C371.018 75.6851 370.468 76.0542 370.071 76.5396C369.682 77.0181 369.49 77.5752 369.497 78.2109C369.49 78.8672 369.682 79.438 370.071 79.9233C370.468 80.4019 371.018 80.771 371.722 81.0308C372.426 81.2837 373.229 81.4102 374.132 81.4102C375.048 81.4102 375.858 81.2837 376.562 81.0308C377.273 80.771 377.823 80.4019 378.213 79.9233C378.609 79.438 378.808 78.8672 378.808 78.2109C378.808 77.5684 378.609 77.0078 378.213 76.5293C377.816 76.0508 377.263 75.6851 376.552 75.4321C375.848 75.1724 375.041 75.0459 374.132 75.0527ZM398.057 79.4004H400.805V81.3076H398.057V90.6592H395.781V72.1611H398.057V79.4004ZM393.156 74.0889C393.156 80.1729 390.346 84.5957 384.727 87.3574L383.435 85.5938C385.691 84.4727 387.431 83.1157 388.654 81.5229C389.885 79.9302 390.616 78.0811 390.849 75.9756H384.44V74.0889H393.156ZM417.074 81.6973H413.321V84.9375C415.043 84.8623 416.636 84.7461 418.099 84.5889L418.283 86.2705C416.465 86.5439 414.609 86.7217 412.716 86.8037C410.822 86.8857 408.72 86.9268 406.409 86.9268L406.122 85.04H407.701C409.164 85.04 410.279 85.0298 411.044 85.0093V81.6973H407.414V73.8633H416.991V75.668H409.67V79.8516H417.074V81.6973ZM421.483 90.7207H419.206V72.1611H421.483V90.7207ZM428.94 73.5146C429.774 73.5146 430.526 73.7368 431.196 74.1812C431.866 74.6255 432.413 75.2612 432.837 76.0884C433.26 76.9087 433.524 77.876 433.626 78.9902H437.164V72.1611H439.42V90.7207H437.164V80.8359H433.657C433.575 82.0117 433.325 83.0371 432.908 83.9121C432.491 84.7803 431.941 85.4502 431.258 85.9219C430.574 86.3867 429.801 86.6191 428.94 86.6191C428.01 86.6191 427.187 86.3525 426.469 85.8193C425.751 85.2861 425.191 84.5239 424.787 83.5327C424.384 82.5415 424.182 81.3828 424.182 80.0566C424.182 78.7441 424.384 77.5957 424.787 76.6113C425.191 75.6201 425.751 74.8579 426.469 74.3247C427.194 73.7847 428.017 73.5146 428.94 73.5146ZM428.94 75.5654C428.427 75.5654 427.976 75.7466 427.587 76.1089C427.197 76.4644 426.896 76.9805 426.684 77.6572C426.472 78.3271 426.37 79.127 426.377 80.0566C426.37 80.9932 426.472 81.7998 426.684 82.4766C426.896 83.1533 427.197 83.6729 427.587 84.0352C427.976 84.3906 428.427 84.5684 428.94 84.5684C429.453 84.5684 429.901 84.3906 430.283 84.0352C430.673 83.6729 430.974 83.1533 431.186 82.4766C431.405 81.7998 431.517 80.9932 431.524 80.0566C431.517 79.127 431.405 78.3237 431.186 77.647C430.974 76.9702 430.673 76.4541 430.283 76.0986C429.901 75.7432 429.453 75.5654 428.94 75.5654ZM448.292 84.2197C448.292 85.0332 448.484 85.8125 448.866 86.5576C449.256 87.2959 449.83 87.9077 450.589 88.3931C451.355 87.8735 451.939 87.2378 452.342 86.4858C452.746 85.7271 452.954 84.9717 452.968 84.2197V83.4609H455.203V84.2197C455.196 84.8828 455.323 85.5117 455.583 86.1064C455.842 86.7012 456.239 87.2275 456.772 87.6855C457.312 88.1436 457.979 88.499 458.772 88.752L457.664 90.4131C456.782 90.1191 456.037 89.6919 455.429 89.1313C454.82 88.5708 454.349 87.9111 454.014 87.1523C453.699 87.918 453.258 88.5981 452.691 89.1929C452.131 89.7944 451.45 90.2559 450.651 90.5771C449.803 90.2695 449.092 89.8252 448.518 89.2441C447.944 88.6631 447.503 87.9863 447.195 87.2139C446.86 87.9453 446.392 88.5845 445.79 89.1313C445.195 89.6851 444.478 90.1123 443.637 90.4131L442.509 88.752C443.281 88.4785 443.934 88.106 444.467 87.6343C445.001 87.1558 445.401 86.6226 445.667 86.0347C445.934 85.4468 446.07 84.8418 446.077 84.2197V83.4609H448.292V84.2197ZM457.152 82.6816H454.855V72.1816H457.152V82.6816ZM447.041 73.166C447.985 73.166 448.836 73.354 449.594 73.73C450.353 74.0991 450.948 74.6187 451.379 75.2886C451.809 75.9585 452.025 76.7207 452.025 77.5752C452.025 78.4229 451.809 79.1816 451.379 79.8516C450.948 80.5146 450.353 81.0342 449.594 81.4102C448.836 81.7793 447.985 81.9639 447.041 81.9639C446.091 81.9639 445.236 81.7793 444.478 81.4102C443.719 81.0342 443.121 80.5146 442.683 79.8516C442.253 79.1816 442.037 78.4229 442.037 77.5752C442.037 76.7207 442.253 75.9585 442.683 75.2886C443.121 74.6187 443.719 74.0991 444.478 73.73C445.236 73.354 446.091 73.166 447.041 73.166ZM447.041 75.0938C446.501 75.0938 446.019 75.1963 445.595 75.4014C445.178 75.6064 444.85 75.897 444.611 76.2729C444.379 76.6421 444.266 77.0762 444.273 77.5752C444.266 78.0742 444.379 78.5117 444.611 78.8877C444.85 79.2637 445.178 79.5576 445.595 79.7695C446.019 79.9746 446.501 80.0771 447.041 80.0771C447.574 80.0771 448.046 79.9746 448.456 79.7695C448.873 79.5645 449.198 79.2739 449.43 78.8979C449.67 78.5151 449.789 78.0742 449.789 77.5752C449.789 77.0762 449.673 76.6421 449.441 76.2729C449.208 75.897 448.883 75.6064 448.466 75.4014C448.049 75.1963 447.574 75.0938 447.041 75.0938ZM474.555 79.2158H461.717V72.8379H463.973V77.4111H474.555V79.2158ZM476.463 83.1738H459.523V81.3691H476.463V83.1738ZM474.678 90.2695H461.553V84.8145H463.83V88.4238H474.678V90.2695ZM493.059 75.75H482.067V73.9453H486.435V72.0791H488.711V73.9453H493.059V75.75ZM487.563 76.4678C488.452 76.4678 489.238 76.6079 489.921 76.8882C490.605 77.1685 491.135 77.5649 491.511 78.0776C491.894 78.5903 492.088 79.1816 492.095 79.8516C492.088 80.5215 491.894 81.1128 491.511 81.6255C491.135 82.1382 490.605 82.5347 489.921 82.8149C489.238 83.0952 488.452 83.2354 487.563 83.2354C486.674 83.2354 485.885 83.0952 485.194 82.8149C484.504 82.5347 483.967 82.1382 483.584 81.6255C483.202 81.1128 483.01 80.5215 483.01 79.8516C483.01 79.1816 483.202 78.5903 483.584 78.0776C483.967 77.5649 484.504 77.1685 485.194 76.8882C485.885 76.6079 486.674 76.4678 487.563 76.4678ZM487.563 78.1904C486.845 78.1904 486.274 78.3374 485.851 78.6313C485.434 78.9253 485.225 79.332 485.225 79.8516C485.225 80.3711 485.434 80.7744 485.851 81.0615C486.274 81.3486 486.845 81.4854 487.563 81.4717C488.281 81.4854 488.852 81.3486 489.275 81.0615C489.706 80.7744 489.921 80.3711 489.921 79.8516C489.921 79.332 489.706 78.9253 489.275 78.6313C488.852 78.3374 488.281 78.1904 487.563 78.1904ZM496.668 77.083H499.252V78.9492H496.668V83.7686H494.392V72.1611H496.668V77.083ZM496.668 90.7002H494.392V86.4551H484.323V84.6299H496.668V90.7002ZM505.664 75.6064C505.664 76.29 505.797 76.9531 506.064 77.5957C506.331 78.2383 506.734 78.8159 507.274 79.3286C507.821 79.8413 508.487 80.248 509.273 80.5488L508.063 82.292C507.257 81.9844 506.563 81.5503 505.982 80.9897C505.401 80.4292 504.939 79.7764 504.598 79.0312C504.242 79.8926 503.757 80.6548 503.142 81.3179C502.533 81.981 501.802 82.4902 500.947 82.8457L499.717 81.1025C500.53 80.7402 501.217 80.2617 501.778 79.667C502.338 79.0723 502.759 78.4263 503.039 77.729C503.319 77.0249 503.463 76.3174 503.47 75.6064V73.3096H505.664V75.6064ZM515.733 83.543H513.56V78.7236H511.714V82.9688H509.581V72.5303H511.714V76.8574H513.56V72.1816H515.733V83.543ZM509.478 83.8506C510.764 83.8506 511.881 83.9873 512.831 84.2607C513.789 84.5273 514.527 84.917 515.046 85.4297C515.566 85.9424 515.829 86.5508 515.836 87.2549C515.829 87.959 515.566 88.5674 515.046 89.0801C514.527 89.5996 513.789 89.9961 512.831 90.2695C511.881 90.543 510.764 90.6797 509.478 90.6797C508.18 90.6797 507.052 90.543 506.095 90.2695C505.138 89.9961 504.403 89.5996 503.89 89.0801C503.377 88.5674 503.121 87.959 503.121 87.2549C503.121 86.5508 503.377 85.9424 503.89 85.4297C504.403 84.917 505.138 84.5273 506.095 84.2607C507.052 83.9873 508.18 83.8506 509.478 83.8506ZM509.478 85.5732C508.186 85.5732 507.182 85.7202 506.464 86.0142C505.753 86.3013 505.397 86.7148 505.397 87.2549C505.397 87.8018 505.753 88.2188 506.464 88.5059C507.175 88.793 508.18 88.9365 509.478 88.9365C510.764 88.9365 511.762 88.793 512.473 88.5059C513.184 88.2188 513.539 87.8018 513.539 87.2549C513.539 86.7148 513.18 86.3013 512.462 86.0142C511.751 85.7202 510.757 85.5732 509.478 85.5732ZM527.128 82.5176H518.351V73.7607H527.128V82.5176ZM520.586 80.7129H524.893V75.5859H520.586V80.7129ZM532.337 77.5957H534.921V79.5029H532.337V85.6963H530.061V72.1611H532.337V77.5957ZM533.076 90.3311H520.463V84.3838H522.74V88.4854H533.076V90.3311ZM555.742 82.2715H553.466V78.3135H550.267V76.4268H553.466V72.1611H555.742V82.2715ZM545.796 84.9785H553.466V83.0508H555.742V90.4746H543.52V83.0508H545.796V84.9785ZM553.466 88.6289V86.7627H545.796V88.6289H553.466ZM550.862 74.9707H547.027C547.033 75.7295 547.204 76.4678 547.539 77.1855C547.881 77.9033 548.377 78.5493 549.026 79.1235C549.682 79.6978 550.472 80.1387 551.395 80.4463L550.246 82.21C549.235 81.8613 548.36 81.3555 547.621 80.6924C546.89 80.0225 546.316 79.2432 545.899 78.3545C545.475 79.3525 544.877 80.2207 544.104 80.959C543.339 81.6904 542.419 82.2373 541.346 82.5996L540.177 80.7949C541.127 80.4736 541.941 80.0122 542.617 79.4106C543.301 78.8091 543.817 78.1255 544.166 77.3599C544.521 76.5874 544.702 75.791 544.709 74.9707H540.854V73.1045H550.862V74.9707ZM567.712 73.6992C567.712 74.4785 567.985 75.2373 568.532 75.9756C569.086 76.7139 569.858 77.3462 570.849 77.8726C571.847 78.3989 572.989 78.7441 574.274 78.9082L573.372 80.7539C571.813 80.5215 570.432 80.043 569.229 79.3184C568.026 78.5869 567.12 77.6948 566.512 76.6421C565.904 77.6948 565.001 78.5869 563.805 79.3184C562.609 80.043 561.238 80.5215 559.693 80.7539L558.791 78.9082C560.062 78.7441 561.194 78.3989 562.185 77.8726C563.176 77.3462 563.945 76.7139 564.492 75.9756C565.039 75.2373 565.312 74.4785 565.312 73.6992V72.7559H567.712V73.6992ZM574.951 84.2402H567.589V90.7002H565.333V84.2402H558.052V82.3535H574.951V84.2402ZM584.931 76.9395H575.846V75.1143H579.291V72.6943H581.547V75.1143H584.931V76.9395ZM580.419 77.9238C581.198 77.9238 581.892 78.1084 582.501 78.4775C583.116 78.8398 583.594 79.3491 583.936 80.0054C584.285 80.6616 584.459 81.4033 584.459 82.2305C584.459 83.0713 584.285 83.8232 583.936 84.4863C583.594 85.1494 583.116 85.6689 582.501 86.0449C581.892 86.4141 581.198 86.5986 580.419 86.5986C579.647 86.5986 578.953 86.4141 578.338 86.0449C577.722 85.6689 577.24 85.1494 576.892 84.4863C576.543 83.8232 576.372 83.0713 576.379 82.2305C576.372 81.4033 576.543 80.6616 576.892 80.0054C577.24 79.3491 577.722 78.8398 578.338 78.4775C578.953 78.1084 579.647 77.9238 580.419 77.9238ZM580.419 79.8105C580.016 79.8105 579.66 79.9131 579.353 80.1182C579.045 80.3164 578.806 80.6001 578.635 80.9692C578.464 81.3315 578.382 81.752 578.389 82.2305C578.382 82.7227 578.464 83.1533 578.635 83.5225C578.806 83.8916 579.045 84.1753 579.353 84.3735C579.66 84.5649 580.016 84.6572 580.419 84.6504C580.816 84.6572 581.168 84.5649 581.475 84.3735C581.783 84.1753 582.022 83.8916 582.193 83.5225C582.364 83.1533 582.449 82.7227 582.449 82.2305C582.449 81.752 582.364 81.3315 582.193 80.9692C582.022 80.6001 581.783 80.3164 581.475 80.1182C581.168 79.9131 580.816 79.8105 580.419 79.8105ZM591.821 90.7002H589.648V81.6357H587.843V89.8594H585.71V72.5508H587.843V79.79H589.648V72.1611H591.821V90.7002ZM610.62 84.3428H603.257V90.6797H601.002V84.3428H593.721V82.4971H610.62V84.3428ZM609.061 75.0117H603.493C603.541 75.6885 603.832 76.3413 604.365 76.9702C604.898 77.5923 605.629 78.1255 606.559 78.5698C607.489 79.0142 608.548 79.3115 609.738 79.4619L608.918 81.2461C607.345 81.0273 605.968 80.5762 604.785 79.8926C603.609 79.209 602.738 78.3613 602.17 77.3496C601.603 78.3545 600.732 79.2021 599.556 79.8926C598.38 80.5762 597.016 81.0273 595.464 81.2461L594.603 79.4619C595.786 79.3115 596.838 79.0142 597.761 78.5698C598.691 78.1255 599.422 77.5923 599.956 76.9702C600.496 76.3413 600.793 75.6885 600.848 75.0117H595.28V73.207H609.061V75.0117ZM617.339 77.0215C617.339 78.0605 617.462 79.0688 617.708 80.0464C617.961 81.0239 618.354 81.9194 618.887 82.7329C619.42 83.5464 620.087 84.2061 620.887 84.7119L619.636 86.4551C618.829 85.9697 618.146 85.3203 617.585 84.5068C617.024 83.6865 616.583 82.7466 616.262 81.687C615.914 82.8423 615.438 83.8677 614.837 84.7632C614.235 85.6587 613.511 86.3662 612.663 86.8857L611.248 85.1836C612.116 84.6572 612.841 83.9668 613.422 83.1123C614.003 82.2578 614.434 81.3179 614.714 80.2925C615.001 79.2671 615.145 78.2109 615.145 77.124V73.8018H617.339V77.0215ZM627.552 90.7002H625.357V72.1611H627.552V90.7002ZM623.696 89.7979H621.543V80.4258H618.897V78.5391H621.543V72.4893H623.696V89.7979ZM646.33 88.4443H629.39V86.5781H633.307V81.8921C632.555 81.4546 631.971 80.9111 631.554 80.2617C631.143 79.6123 630.942 78.8809 630.949 78.0674C630.942 77.1035 631.232 76.249 631.82 75.5039C632.408 74.7588 633.225 74.1846 634.271 73.7812C635.317 73.3711 636.499 73.166 637.819 73.166C639.145 73.166 640.331 73.3711 641.377 73.7812C642.43 74.1846 643.25 74.7588 643.838 75.5039C644.433 76.2422 644.73 77.0967 644.73 78.0674C644.73 78.8604 644.528 79.5815 644.125 80.231C643.728 80.8735 643.164 81.4102 642.433 81.8408V86.5781H646.33V88.4443ZM637.819 74.9707C636.896 74.9707 636.082 75.0972 635.378 75.3501C634.681 75.5962 634.138 75.9517 633.748 76.4165C633.365 76.8813 633.177 77.4316 633.184 78.0674C633.177 78.6963 633.365 79.2432 633.748 79.708C634.138 80.1729 634.685 80.5317 635.389 80.7847C636.093 81.0376 636.903 81.1641 637.819 81.1641C638.735 81.1641 639.545 81.0376 640.249 80.7847C640.96 80.5317 641.51 80.1729 641.9 79.708C642.296 79.2432 642.495 78.6963 642.495 78.0674C642.495 77.4385 642.296 76.8916 641.9 76.4268C641.51 75.9551 640.963 75.5962 640.259 75.3501C639.555 75.0972 638.742 74.9707 637.819 74.9707ZM640.116 86.5781V82.7124C639.391 82.8696 638.625 82.9482 637.819 82.9482C637.046 82.9482 636.294 82.873 635.563 82.7227V86.5781H640.116ZM261.928 109.058C261.928 110.165 261.915 111.119 261.887 111.918C261.867 112.711 261.809 113.621 261.713 114.646C261.617 115.671 261.463 116.789 261.251 117.999L258.934 117.794C259.16 116.666 259.324 115.6 259.426 114.595C259.529 113.583 259.59 112.681 259.611 111.888C259.638 111.088 259.652 110.145 259.652 109.058V108.812H248.967V106.966H261.928V109.058ZM264.082 121.157H247.183V119.291H264.082V121.157ZM275.695 106.31C276.665 106.31 277.537 106.501 278.309 106.884C279.082 107.26 279.687 107.79 280.124 108.473C280.569 109.15 280.794 109.919 280.801 110.78C280.794 111.532 280.623 112.216 280.288 112.831C279.953 113.439 279.489 113.945 278.894 114.349C278.299 114.745 277.616 115.012 276.843 115.148V117.855C278.627 117.767 280.261 117.616 281.745 117.404L281.929 119.045C280.09 119.387 278.21 119.609 276.289 119.711C274.375 119.814 272.297 119.865 270.055 119.865L269.768 117.999C271.812 117.999 273.412 117.982 274.567 117.948V115.159C273.794 115.022 273.107 114.752 272.506 114.349C271.911 113.945 271.446 113.439 271.111 112.831C270.776 112.216 270.609 111.532 270.609 110.78C270.609 109.919 270.828 109.15 271.265 108.473C271.709 107.79 272.318 107.26 273.09 106.884C273.863 106.501 274.731 106.31 275.695 106.31ZM275.695 108.278C275.155 108.278 274.669 108.381 274.239 108.586C273.808 108.784 273.47 109.075 273.224 109.458C272.984 109.833 272.865 110.274 272.865 110.78C272.865 111.286 272.988 111.73 273.234 112.113C273.48 112.489 273.815 112.783 274.239 112.995C274.669 113.2 275.155 113.303 275.695 113.303C276.242 113.303 276.73 113.2 277.161 112.995C277.599 112.783 277.94 112.486 278.186 112.103C278.439 111.72 278.566 111.279 278.566 110.78C278.566 110.274 278.439 109.833 278.186 109.458C277.94 109.075 277.599 108.784 277.161 108.586C276.73 108.381 276.242 108.278 275.695 108.278ZM285.128 123.721H282.852V105.161H285.128V123.721ZM303.201 108.75H292.209V106.945H296.577V105.079H298.854V106.945H303.201V108.75ZM297.705 109.468C298.594 109.468 299.38 109.608 300.064 109.888C300.747 110.168 301.277 110.565 301.653 111.078C302.036 111.59 302.231 112.182 302.238 112.852C302.231 113.521 302.036 114.113 301.653 114.625C301.277 115.138 300.747 115.535 300.064 115.815C299.38 116.095 298.594 116.235 297.705 116.235C296.817 116.235 296.027 116.095 295.337 115.815C294.646 115.535 294.11 115.138 293.727 114.625C293.344 114.113 293.153 113.521 293.153 112.852C293.153 112.182 293.344 111.59 293.727 111.078C294.11 110.565 294.646 110.168 295.337 109.888C296.027 109.608 296.817 109.468 297.705 109.468ZM297.705 111.19C296.988 111.19 296.417 111.337 295.993 111.631C295.576 111.925 295.367 112.332 295.367 112.852C295.367 113.371 295.576 113.774 295.993 114.062C296.417 114.349 296.988 114.485 297.705 114.472C298.423 114.485 298.994 114.349 299.418 114.062C299.848 113.774 300.064 113.371 300.064 112.852C300.064 112.332 299.848 111.925 299.418 111.631C298.994 111.337 298.423 111.19 297.705 111.19ZM306.811 110.083H309.395V111.949H306.811V116.769H304.534V105.161H306.811V110.083ZM306.811 123.7H304.534V119.455H294.465V117.63H306.811V123.7ZM315.806 108.606C315.806 109.29 315.94 109.953 316.206 110.596C316.473 111.238 316.876 111.816 317.416 112.329C317.963 112.841 318.63 113.248 319.416 113.549L318.206 115.292C317.399 114.984 316.705 114.55 316.124 113.99C315.543 113.429 315.082 112.776 314.74 112.031C314.384 112.893 313.899 113.655 313.284 114.318C312.675 114.981 311.944 115.49 311.09 115.846L309.859 114.103C310.673 113.74 311.36 113.262 311.92 112.667C312.481 112.072 312.901 111.426 313.181 110.729C313.462 110.025 313.605 109.317 313.612 108.606V106.31H315.806V108.606ZM325.876 116.543H323.702V111.724H321.856V115.969H319.723V105.53H321.856V109.857H323.702V105.182H325.876V116.543ZM319.621 116.851C320.906 116.851 322.024 116.987 322.974 117.261C323.931 117.527 324.669 117.917 325.189 118.43C325.708 118.942 325.971 119.551 325.978 120.255C325.971 120.959 325.708 121.567 325.189 122.08C324.669 122.6 323.931 122.996 322.974 123.27C322.024 123.543 320.906 123.68 319.621 123.68C318.322 123.68 317.194 123.543 316.237 123.27C315.28 122.996 314.545 122.6 314.032 122.08C313.52 121.567 313.263 120.959 313.263 120.255C313.263 119.551 313.52 118.942 314.032 118.43C314.545 117.917 315.28 117.527 316.237 117.261C317.194 116.987 318.322 116.851 319.621 116.851ZM319.621 118.573C318.329 118.573 317.324 118.72 316.606 119.014C315.895 119.301 315.54 119.715 315.54 120.255C315.54 120.802 315.895 121.219 316.606 121.506C317.317 121.793 318.322 121.937 319.621 121.937C320.906 121.937 321.904 121.793 322.615 121.506C323.326 121.219 323.681 120.802 323.681 120.255C323.681 119.715 323.322 119.301 322.605 119.014C321.894 118.72 320.899 118.573 319.621 118.573ZM344.756 116.563H327.858V114.738H344.756V116.563ZM342.849 123.331H329.949V117.938H332.226V121.485H342.849V123.331ZM336.286 105.756C337.626 105.756 338.798 105.906 339.803 106.207C340.808 106.508 341.584 106.942 342.131 107.509C342.685 108.07 342.965 108.736 342.972 109.509C342.965 110.288 342.685 110.965 342.131 111.539C341.584 112.106 340.808 112.544 339.803 112.852C338.798 113.152 337.626 113.303 336.286 113.303C334.946 113.303 333.771 113.152 332.759 112.852C331.754 112.544 330.975 112.106 330.421 111.539C329.874 110.965 329.601 110.288 329.601 109.509C329.601 108.736 329.874 108.07 330.421 107.509C330.975 106.942 331.754 106.508 332.759 106.207C333.771 105.906 334.946 105.756 336.286 105.756ZM336.286 107.581C334.933 107.581 333.873 107.752 333.108 108.094C332.349 108.429 331.973 108.9 331.98 109.509C331.973 109.919 332.14 110.271 332.482 110.565C332.831 110.859 333.326 111.081 333.969 111.231C334.618 111.375 335.391 111.443 336.286 111.437C337.647 111.45 338.706 111.29 339.465 110.955C340.231 110.613 340.613 110.131 340.613 109.509C340.613 108.894 340.231 108.418 339.465 108.083C338.706 107.749 337.647 107.581 336.286 107.581ZM364.982 110.37H367.587V112.257H364.982V118.573H362.706V105.161H364.982V110.37ZM359.445 108.524H353.396V113.569H353.785C355.453 113.569 356.817 113.528 357.876 113.446C358.943 113.364 359.992 113.214 361.024 112.995L361.271 114.841C360.088 115.073 358.871 115.23 357.62 115.312C356.369 115.395 354.708 115.436 352.637 115.436H351.14V106.699H359.445V108.524ZM365.721 123.331H353.108V117.158H355.385V121.485H365.721V123.331ZM378.551 108.401C378.551 109.618 378.52 110.77 378.459 111.857C378.404 112.937 378.264 114.178 378.039 115.579L375.783 115.395C375.981 114.137 376.111 113.002 376.172 111.99C376.241 110.979 376.278 109.953 376.285 108.914H369.015V107.089H378.551V108.401ZM373.875 117.855C375.981 117.773 377.847 117.63 379.474 117.425L379.597 119.127C376.74 119.578 373.24 119.804 369.097 119.804H368.256L368.031 117.979C369.63 117.965 370.827 117.948 371.62 117.927V112.38H373.875V117.855ZM382.735 112.708H385.421V114.636H382.735V123.7H380.438V105.161H382.735V112.708ZM400.357 106.699C400.357 107.479 400.63 108.237 401.177 108.976C401.731 109.714 402.503 110.346 403.494 110.873C404.493 111.399 405.634 111.744 406.919 111.908L406.017 113.754C404.458 113.521 403.077 113.043 401.874 112.318C400.671 111.587 399.765 110.695 399.157 109.642C398.549 110.695 397.646 111.587 396.45 112.318C395.254 113.043 393.883 113.521 392.338 113.754L391.436 111.908C392.707 111.744 393.839 111.399 394.83 110.873C395.821 110.346 396.59 109.714 397.137 108.976C397.684 108.237 397.957 107.479 397.957 106.699V105.756H400.357V106.699ZM407.596 117.24H400.234V123.7H397.978V117.24H390.698V115.354H407.596V117.24ZM413.679 105.981C414.472 105.975 415.2 106.115 415.864 106.402C416.527 106.682 417.08 107.082 417.525 107.602C417.976 108.114 418.277 108.709 418.427 109.386H421.78V105.161H424.056V115.107H421.78V111.231H418.448C418.297 111.922 417.996 112.53 417.545 113.057C417.101 113.583 416.544 113.993 415.874 114.287C415.204 114.574 414.472 114.718 413.679 114.718C412.743 114.718 411.902 114.53 411.157 114.154C410.412 113.778 409.827 113.258 409.404 112.595C408.987 111.925 408.778 111.17 408.778 110.329C408.778 109.495 408.987 108.747 409.404 108.083C409.827 107.42 410.412 106.904 411.157 106.535C411.902 106.159 412.743 105.975 413.679 105.981ZM413.679 107.889C413.146 107.889 412.675 107.988 412.264 108.186C411.854 108.384 411.533 108.668 411.301 109.037C411.068 109.406 410.952 109.837 410.952 110.329C410.952 110.814 411.068 111.245 411.301 111.621C411.533 111.99 411.854 112.277 412.264 112.482C412.681 112.688 413.153 112.79 413.679 112.79C414.192 112.79 414.65 112.688 415.053 112.482C415.464 112.277 415.782 111.99 416.007 111.621C416.24 111.245 416.359 110.814 416.366 110.329C416.359 109.837 416.24 109.406 416.007 109.037C415.782 108.668 415.467 108.384 415.064 108.186C414.66 107.988 414.199 107.889 413.679 107.889ZM414.09 117.938H421.78V115.969H424.056V123.475H411.834V115.969H414.09V117.938ZM421.78 121.629V119.701H414.09V121.629H421.78ZM435.78 115.518H427.002V106.761H435.78V115.518ZM429.238 113.713H433.544V108.586H429.238V113.713ZM440.988 110.596H443.572V112.503H440.988V118.696H438.712V105.161H440.988V110.596ZM441.727 123.331H429.114V117.384H431.391V121.485H441.727V123.331ZM465.788 114.39H448.869V112.585H465.788V114.39ZM463.778 111.396H451.023V105.633H463.614V107.458H453.299V109.591H463.778V111.396ZM463.655 120.316H453.114V121.731H464.168V123.516H450.879V118.676H461.42V117.384H450.858V115.661H463.655V120.316ZM475.132 106.207C476.431 106.207 477.607 106.426 478.66 106.863C479.712 107.294 480.54 107.906 481.141 108.699C481.743 109.492 482.044 110.404 482.044 111.437C482.044 112.482 481.743 113.405 481.141 114.205C480.54 114.998 479.712 115.613 478.66 116.051C477.614 116.488 476.438 116.707 475.132 116.707C473.834 116.707 472.661 116.488 471.615 116.051C470.569 115.613 469.746 114.998 469.144 114.205C468.549 113.405 468.255 112.482 468.262 111.437C468.255 110.404 468.549 109.492 469.144 108.699C469.746 107.906 470.569 107.294 471.615 106.863C472.661 106.426 473.834 106.207 475.132 106.207ZM475.132 108.053C474.244 108.046 473.444 108.183 472.733 108.463C472.022 108.743 471.465 109.143 471.062 109.663C470.658 110.175 470.457 110.767 470.457 111.437C470.457 112.12 470.658 112.722 471.062 113.241C471.465 113.754 472.019 114.15 472.723 114.431C473.434 114.704 474.237 114.841 475.132 114.841C476.035 114.841 476.838 114.704 477.542 114.431C478.253 114.15 478.807 113.754 479.203 113.241C479.606 112.722 479.808 112.12 479.808 111.437C479.808 110.767 479.606 110.175 479.203 109.663C478.807 109.143 478.253 108.743 477.542 108.463C476.831 108.183 476.028 108.046 475.132 108.053ZM483.643 121.362H466.704V119.496H483.643V121.362ZM500.083 123.721H497.786V115.415H494.136V113.508H497.786V110.862H494.136V108.996H497.786V105.161H500.083V123.721ZM491.388 109.611C491.388 110.78 491.565 111.912 491.921 113.005C492.283 114.099 492.81 115.07 493.5 115.917C494.197 116.765 495.024 117.404 495.981 117.835L494.607 119.66C493.575 119.154 492.687 118.426 491.941 117.476C491.203 116.519 490.632 115.412 490.229 114.154C489.812 115.459 489.224 116.608 488.465 117.599C487.713 118.59 486.821 119.346 485.789 119.865L484.354 118.061C485.331 117.603 486.172 116.933 486.876 116.051C487.587 115.169 488.127 114.167 488.496 113.046C488.872 111.925 489.063 110.78 489.07 109.611V106.658H491.388V109.611ZM517.425 115.395H511.929V119.64H519.312V121.506H502.372V119.64H509.673V115.395H504.423V106.535H517.282V108.36H506.7V113.59H517.425V115.395ZM541.774 115.948H534.432V117.456C536.114 117.551 537.412 117.866 538.328 118.399C539.251 118.932 539.716 119.653 539.723 120.562C539.716 121.226 539.46 121.79 538.954 122.254C538.448 122.726 537.717 123.082 536.76 123.321C535.803 123.56 534.651 123.68 533.304 123.68C531.951 123.68 530.788 123.56 529.818 123.321C528.854 123.082 528.116 122.726 527.603 122.254C527.097 121.79 526.844 121.226 526.844 120.562C526.844 119.653 527.305 118.932 528.228 118.399C529.158 117.866 530.474 117.551 532.176 117.456V115.948H524.875V114.164H541.774V115.948ZM534.432 106.884H540.113V108.688H534.617C534.726 109.201 535.04 109.669 535.56 110.093C536.086 110.51 536.804 110.862 537.713 111.149C538.622 111.43 539.696 111.614 540.933 111.703L540.236 113.426C538.581 113.296 537.156 112.981 535.96 112.482C534.77 111.983 533.885 111.334 533.304 110.534C532.723 111.334 531.834 111.983 530.638 112.482C529.442 112.981 528.02 113.296 526.372 113.426L525.675 111.703C526.906 111.614 527.975 111.43 528.885 111.149C529.794 110.862 530.508 110.51 531.028 110.093C531.547 109.669 531.865 109.201 531.981 108.688H526.536V106.884H532.176V105.202H534.432V106.884ZM533.304 119.127C531.93 119.127 530.894 119.247 530.197 119.486C529.5 119.725 529.155 120.084 529.161 120.562C529.155 121.034 529.5 121.39 530.197 121.629C530.901 121.861 531.937 121.978 533.304 121.978C534.644 121.978 535.666 121.861 536.37 121.629C537.081 121.39 537.44 121.034 537.447 120.562C537.44 120.084 537.084 119.725 536.38 119.486C535.676 119.247 534.651 119.127 533.304 119.127ZM559.629 116.584H552.471V119.783H550.216V116.584H542.689V114.759H559.629V116.584ZM557.762 123.331H544.74V118.225H546.996V121.485H557.762V123.331ZM547.16 107.848H555.158V105.756H557.414V113.303H544.904V105.756H547.16V107.848ZM555.158 111.498V109.55H547.16V111.498H555.158ZM575.166 109.734H577.75V111.621H575.166V115.989H572.89V105.161H575.166V109.734ZM565.445 118.327H572.89V116.728H575.166V123.475H563.19V116.728H565.445V118.327ZM572.89 121.67V120.091H565.445V121.67H572.89ZM571.557 108.709H560.565V106.884H564.933V105.018H567.209V106.884H571.557V108.709ZM566.061 109.345C566.949 109.345 567.736 109.481 568.419 109.755C569.103 110.021 569.633 110.401 570.008 110.893C570.391 111.385 570.586 111.956 570.593 112.605C570.586 113.255 570.391 113.826 570.008 114.318C569.633 114.81 569.103 115.193 568.419 115.466C567.736 115.733 566.949 115.866 566.061 115.866C565.165 115.866 564.372 115.733 563.682 115.466C562.998 115.193 562.465 114.81 562.082 114.318C561.699 113.826 561.508 113.255 561.508 112.605C561.508 111.956 561.699 111.385 562.082 110.893C562.465 110.401 562.998 110.021 563.682 109.755C564.372 109.481 565.165 109.345 566.061 109.345ZM566.061 111.026C565.35 111.026 564.782 111.167 564.359 111.447C563.935 111.727 563.723 112.113 563.723 112.605C563.723 113.104 563.931 113.494 564.348 113.774C564.772 114.048 565.343 114.185 566.061 114.185C566.779 114.185 567.349 114.044 567.773 113.764C568.204 113.484 568.419 113.098 568.419 112.605C568.419 112.12 568.204 111.737 567.773 111.457C567.342 111.17 566.772 111.026 566.061 111.026ZM593.841 123.7H591.586V105.161H593.841V123.7ZM581.701 117.097C584.579 117.049 587.32 116.769 589.924 116.256L590.212 118.163C588.673 118.484 587.149 118.713 585.638 118.85C584.134 118.98 582.603 119.045 581.045 119.045H579.445V106.966H581.701V117.097ZM610.732 112.195H613.583V114.062H610.732V123.721H608.456V105.161H610.732V112.195ZM605.647 108.771H599.248V117.281C600.745 117.281 602.095 117.237 603.298 117.148C604.502 117.059 605.722 116.905 606.959 116.687L607.226 118.614C605.886 118.847 604.56 119 603.247 119.076C601.941 119.151 600.362 119.188 598.51 119.188H596.972V106.925H605.647V108.771Z" fill="white"/>
</g>
<defs>
<linearGradient id="paint0_linear_1199_3529" x1="157" y1="7.39073e-06" x2="24" y2="860" gradientUnits="userSpaceOnUse">
<stop stop-color="#E8E8E8"/>
<stop offset="0.3" stop-color="#15587D"/>
<stop offset="0.74591" stop-color="#797878"/>
<stop offset="1" stop-color="#701E1E"/>
</linearGradient>
<clipPath id="clip0_1199_3529">
<rect width="157" height="860" fill="white" transform="translate(0 157.875) rotate(-90)"/>
</clipPath>
</defs>
</svg>
