<svg width="860" height="269" viewBox="0 0 860 269" fill="none" xmlns="http://www.w3.org/2000/svg">
<g clip-path="url(#clip0_1199_1584)">
<rect width="269" height="860" transform="translate(0 269) rotate(-90)" fill="url(#paint0_linear_1199_1584)"/>
<rect width="269" height="860" transform="translate(0 269) rotate(-90)" fill="#FAF8EB"/>
<path d="M213.84 177.977C217.004 177.977 219.09 179.477 219.114 181.82C219.09 184.141 217.004 185.664 213.84 185.664C210.676 185.664 208.567 184.141 208.567 181.82C208.567 179.477 210.676 177.977 213.84 177.977ZM213.84 179.383C211.754 179.383 210.325 180.344 210.325 181.82C210.325 183.273 211.754 184.258 213.84 184.258C215.95 184.258 217.356 183.273 217.379 181.82C217.356 180.344 215.95 179.383 213.84 179.383ZM223.965 177.062V192.906H222.137V177.062H223.965ZM206.926 187.258C210.84 187.258 216.09 187.234 220.59 186.578L220.731 187.938C218.891 188.254 216.969 188.453 215.082 188.57V192.18H213.254V188.664C211.075 188.77 209 188.781 207.207 188.781L206.926 187.258ZM224.575 195.906V197.453H209.903V191.453H211.731V195.906H224.575ZM244.558 177.062V197.945H242.73V186.461H238.324V184.938H242.73V177.062H244.558ZM237.972 178.984V180.508H230.097V184.844H237.058V186.344H230.097V191.383C233.929 191.383 236.367 191.254 239.238 190.75L239.449 192.273C236.425 192.766 233.871 192.906 229.84 192.906H228.246V178.984H237.972ZM258.05 180.133C258.05 183.695 262.128 186.883 265.761 187.562L264.917 189.109C261.776 188.383 258.46 186.145 257.112 183.062C255.765 186.133 252.46 188.371 249.308 189.109L248.464 187.562C252.073 186.859 256.128 183.719 256.128 180.133V178.539H258.05V180.133ZM266.745 193.539V195.062H247.667V193.539H266.745ZM284.62 178.023V179.547C284.62 181.129 284.62 182.992 284.127 185.43H287.034V186.906H278.432V189.133H284.784V193.961H272.174V196.141H285.51V197.617H270.346V192.578H282.955V190.562H270.299V189.133H276.627V186.906H268.073V185.43H282.276C282.475 184.469 282.592 183.602 282.674 182.805L270.205 183.344L269.971 181.867L282.768 181.492C282.791 180.812 282.791 180.168 282.791 179.547V179.5H270.463V178.023H284.62ZM297.924 177.438C302.564 177.438 305.283 178.703 305.283 181.023C305.283 183.391 302.564 184.656 297.924 184.68C293.283 184.656 290.541 183.391 290.541 181.023C290.541 178.703 293.283 177.438 297.924 177.438ZM297.924 178.82C294.455 178.82 292.439 179.664 292.463 181.023C292.439 182.477 294.455 183.273 297.924 183.273C301.369 183.273 303.408 182.477 303.408 181.023C303.408 179.664 301.369 178.82 297.924 178.82ZM307.416 186.086V187.586H288.431V186.086H307.416ZM304.978 189.391V194.055H292.603V196.211H305.611V197.664H290.775V192.695H303.174V190.797H290.728V189.391H304.978ZM330.602 177.062V185.312H334.094V186.859H330.602V197.945H328.774V177.062H330.602ZM325.118 179.102V180.625H317.219V191.172C320.993 191.172 323.665 190.996 326.758 190.422L326.993 192.016C323.735 192.602 320.993 192.719 317.032 192.719H315.391V179.102H325.118ZM352.156 177.062V197.945H350.305V188.195H343.976V186.672H350.305V183.461H343.976V181.961H350.305V177.062H352.156ZM337.859 179.383V191.5C341.246 191.488 343.836 191.371 346.765 190.773L346.953 192.297C343.859 192.906 341.211 193.094 337.601 193.094H336.008V179.383H337.859ZM372.07 186.836V188.336H365.624V193.727H374.32V195.273H355.241V193.727H363.82V188.336H357.679V178.773H371.859V180.273H359.53V186.836H372.07ZM379.045 194.43L377.217 200.805H375.483L376.772 194.43H379.045ZM399.536 179.312V180.812H387.115V179.312H392.411V176.969H394.24V179.312H399.536ZM393.325 181.891C396.325 181.914 398.318 183.367 398.341 185.664C398.318 187.938 396.325 189.414 393.325 189.414C390.325 189.414 388.286 187.938 388.31 185.664C388.286 183.367 390.325 181.914 393.325 181.891ZM393.325 183.32C391.357 183.344 390.044 184.258 390.068 185.664C390.044 187.047 391.357 187.938 393.325 187.938C395.271 187.938 396.583 187.047 396.607 185.664C396.583 184.258 395.271 183.344 393.325 183.32ZM403.357 177.062V182.852H406.497V184.398H403.357V190.094H401.529V177.062H403.357ZM403.357 191.242V197.898H401.529V192.742H389.716V191.242H403.357ZM424.63 177.086V192.906H422.778V190.75H418.465V189.414H422.778V177.086H424.63ZM425.145 195.906V197.453H410.333V191.359H412.184V195.906H425.145ZM407.333 186.742C411.223 186.719 416.426 186.695 420.903 186.133L421.02 187.469C419.157 187.762 417.212 187.949 415.301 188.055V192.18H413.45V188.148C411.34 188.242 409.337 188.254 407.59 188.242L407.333 186.742ZM414.176 177.93C417.223 177.93 419.309 179.383 419.333 181.562C419.309 183.789 417.223 185.172 414.176 185.172C411.106 185.172 409.02 183.789 409.02 181.562C409.02 179.383 411.106 177.93 414.176 177.93ZM414.176 179.336C412.137 179.312 410.755 180.227 410.778 181.562C410.755 182.922 412.137 183.812 414.176 183.812C416.145 183.812 417.551 182.922 417.575 181.562C417.551 180.227 416.145 179.312 414.176 179.336ZM437.324 177.438C441.965 177.438 444.684 178.703 444.684 181.023C444.684 183.391 441.965 184.656 437.324 184.68C432.684 184.656 429.941 183.391 429.941 181.023C429.941 178.703 432.684 177.438 437.324 177.438ZM437.324 178.82C433.855 178.82 431.84 179.664 431.863 181.023C431.84 182.477 433.855 183.273 437.324 183.273C440.77 183.273 442.809 182.477 442.809 181.023C442.809 179.664 440.77 178.82 437.324 178.82ZM446.816 186.086V187.586H427.832V186.086H446.816ZM444.379 189.391V194.055H432.004V196.211H445.012V197.664H430.176V192.695H442.574V190.797H430.129V189.391H444.379ZM470.003 177.062V185.312H473.495V186.859H470.003V197.945H468.175V177.062H470.003ZM464.518 179.102V180.625H456.62V191.172C460.393 191.172 463.065 190.996 466.159 190.422L466.393 192.016C463.135 192.602 460.393 192.719 456.432 192.719H454.792V179.102H464.518ZM491.557 177.062V197.945H489.705V188.195H483.377V186.672H489.705V183.461H483.377V181.961H489.705V177.062H491.557ZM477.26 179.383V191.5C480.647 191.488 483.236 191.371 486.166 190.773L486.354 192.297C483.26 192.906 480.611 193.094 477.002 193.094H475.408V179.383H477.26ZM511.47 186.836V188.336H505.025V193.727H513.72V195.273H494.642V193.727H503.22V188.336H497.08V178.773H511.259V180.273H498.931V186.836H511.47ZM518.446 194.43L516.618 200.805H514.884L516.173 194.43H518.446ZM538.023 179.383V180.461C538 182.102 538 184.867 537.414 188.734L535.562 188.57C536.125 185.078 536.171 182.547 536.171 180.883H527.429V179.383H538.023ZM532.562 185.336V191.664C534.871 191.582 537.238 191.43 539.406 191.172L539.5 192.555C535.117 193.234 530.218 193.328 526.492 193.305L526.257 191.781C527.628 191.77 529.152 191.758 530.757 191.711V185.336H532.562ZM542.546 177.062V185.781H545.921V187.375H542.546V197.898H540.718V177.062H542.546ZM553.671 178.422C556.952 178.445 559.272 180.414 559.272 183.32C559.272 185.945 557.374 187.809 554.585 188.125V191.688C556.647 191.582 558.745 191.406 560.725 191.102L560.866 192.461C556.108 193.352 550.975 193.375 547.225 193.375L546.968 191.828C548.667 191.828 550.647 191.828 552.733 191.758V188.125C549.944 187.797 548.022 185.945 548.046 183.32C548.022 180.414 550.39 178.445 553.671 178.422ZM553.671 180.039C551.444 180.039 549.827 181.375 549.85 183.32C549.827 185.266 551.444 186.625 553.671 186.602C555.874 186.625 557.468 185.266 557.468 183.32C557.468 181.375 555.874 180.039 553.671 180.039ZM563.936 177.062V197.945H562.108V177.062H563.936ZM586.287 186.742V188.195H567.209V186.742H586.287ZM583.897 189.859V194.289H571.381V196.281H584.576V197.617H569.53V193.023H582.069V191.242H569.506V189.859H583.897ZM583.826 177.695V182.008H571.522V183.836H584.201V185.172H569.694V180.742H581.975V179.031H569.623V177.695H583.826ZM609.567 177.062V182.102H612.708V183.648H609.567V189.25H607.739V177.062H609.567ZM595.974 178.258V181.445H602.044V178.258H603.872V187.938H594.169V178.258H595.974ZM595.974 186.461H602.044V182.922H595.974V186.461ZM609.731 190.422V191.898H598.317V196.117H610.13V197.617H596.489V190.422H609.731ZM619.239 178.68C622.309 178.703 624.489 181.516 624.512 185.945C624.489 190.375 622.309 193.188 619.239 193.188C616.145 193.188 613.989 190.375 613.989 185.945C613.989 181.516 616.145 178.703 619.239 178.68ZM619.239 180.32C617.176 180.344 615.723 182.547 615.723 185.945C615.723 189.344 617.176 191.547 619.239 191.547C621.325 191.547 622.731 189.344 622.731 185.945C622.731 182.547 621.325 180.344 619.239 180.32ZM629.785 177.062V185.383H633.278V186.977H629.785V197.898H627.957V177.062H629.785ZM650.871 186.836V188.336H644.425V193.727H653.121V195.273H634.043V193.727H642.621V188.336H636.48V178.773H650.66V180.273H638.332V186.836H650.871ZM227.179 211.344C227.156 214.32 229.265 216.945 232.336 217.977L231.304 219.406C229.008 218.539 227.203 216.852 226.312 214.648C225.41 217.145 223.5 219.09 220.992 220.039L219.984 218.539C223.195 217.414 225.328 214.648 225.351 211.414V209.258H227.179V211.344ZM237.281 208.062V220.414H235.429V214.062H230.789V212.539H235.429V208.062H237.281ZM230.367 221.023C234.703 221.023 237.351 222.453 237.351 224.961C237.351 227.445 234.703 228.852 230.367 228.852C226.031 228.852 223.383 227.445 223.383 224.961C223.383 222.453 226.031 221.023 230.367 221.023ZM230.367 222.477C227.179 222.477 225.187 223.414 225.211 224.961C225.187 226.461 227.179 227.375 230.367 227.375C233.554 227.375 235.523 226.461 235.523 224.961C235.523 223.414 233.554 222.477 230.367 222.477ZM247.632 211.906C247.632 214.625 249.718 217.203 252.765 218.258L251.804 219.711C249.448 218.867 247.632 217.121 246.741 214.977C245.839 217.379 243.917 219.301 241.444 220.203L240.483 218.75C243.554 217.648 245.78 214.859 245.78 211.93V211.016H241.069V209.516H252.296V211.016H247.632V211.906ZM257.663 221.656V228.898H255.812V223.18H243.648V221.656H257.663ZM257.663 208.062V220.555H255.812V215.07H251.64V213.523H255.812V208.062H257.663ZM277.952 208.062V228.945H276.1V208.062H277.952ZM266.866 209.68C269.959 209.703 272.186 212.516 272.186 216.945C272.186 221.375 269.959 224.188 266.866 224.188C263.748 224.188 261.545 221.375 261.545 216.945C261.545 212.516 263.748 209.703 266.866 209.68ZM266.866 211.32C264.78 211.344 263.327 213.547 263.327 216.945C263.327 220.344 264.78 222.547 266.866 222.547C268.952 222.547 270.405 220.344 270.405 216.945C270.405 213.547 268.952 211.344 266.866 211.32ZM296.31 209.422C300.739 209.445 303.927 211.602 303.927 214.883C303.927 217.988 301.161 220.051 297.2 220.297V224.68H305.896V226.227H286.818V224.68H295.396V220.297C291.446 220.039 288.693 217.977 288.693 214.883C288.693 211.602 291.88 209.445 296.31 209.422ZM296.31 210.945C292.935 210.945 290.474 212.539 290.474 214.883C290.474 217.297 292.935 218.844 296.31 218.867C299.685 218.844 302.146 217.297 302.146 214.883C302.146 212.539 299.685 210.945 296.31 210.945ZM326.278 224.727V226.273H307.2V224.727H326.278ZM323.864 209.656V215.961H311.418V219.383H324.356V220.859H309.59V214.461H322.059V211.18H309.543V209.656H323.864ZM335.035 214.461C335.035 218 337.613 221.586 340.683 222.922L339.652 224.375C337.215 223.262 335.105 220.859 334.144 217.977C333.16 221.035 331.062 223.695 328.683 224.891L327.582 223.438C330.558 222.008 333.16 218.07 333.183 214.461V211.742H328.262V210.219H340.004V211.742H335.035V214.461ZM344.762 208.062V228.898H342.91V208.062H344.762ZM359.44 209.258C362.557 209.258 364.854 211.25 364.854 214.062C364.854 216.898 362.557 218.867 359.44 218.891C356.323 218.867 354.003 216.898 354.026 214.062C354.003 211.25 356.323 209.258 359.44 209.258ZM359.44 210.805C357.401 210.805 355.807 212.188 355.831 214.062C355.807 215.984 357.401 217.367 359.44 217.367C361.503 217.367 363.049 215.984 363.049 214.062C363.049 212.188 361.503 210.805 359.44 210.805ZM369.917 208.062V212.773H373.057V214.297H369.917V218.492H368.088V208.062H369.917ZM357.635 220.742V226.812C358.842 226.777 360.448 226.602 361.924 226.109L362.206 227.586C360.167 228.266 358.198 228.336 356.838 228.336H355.854V220.742H357.635ZM372.003 220.836V222.266H361.479V220.836H365.862V218.984H367.667V220.836H372.003ZM366.729 222.969C369.003 222.969 370.62 224.117 370.643 225.922C370.62 227.727 369.003 228.852 366.729 228.852C364.432 228.852 362.838 227.727 362.862 225.922C362.838 224.117 364.432 222.969 366.729 222.969ZM366.729 224.305C365.44 224.305 364.503 224.961 364.503 225.922C364.503 226.906 365.44 227.539 366.729 227.539C368.042 227.539 368.956 226.906 368.956 225.922C368.956 224.961 368.042 224.305 366.729 224.305ZM390.861 214.391V215.867H376.588V208.836H378.416V214.391H390.861ZM393.064 218.703V220.203H373.986V218.703H393.064ZM390.978 226.859V228.383H376.471V222.336H378.299V226.859H390.978ZM410.517 208.062V216.312H414.009V217.859H410.517V228.945H408.689V208.062H410.517ZM405.033 210.102V211.625H397.134V222.172C400.908 222.172 403.579 221.996 406.673 221.422L406.908 223.016C403.65 223.602 400.908 223.719 396.947 223.719H395.306V210.102H405.033ZM425.321 209.891V211.742H430.196V208.086H432.048V223.297H430.196V217.742H425.321V219.617H415.758V209.891H425.321ZM417.587 211.414V218.141H423.516V211.414H417.587ZM432.516 226.906V228.453H418.571V221.938H420.423V226.906H432.516ZM425.321 216.219H430.196V213.289H425.321V216.219ZM459.874 219.102V220.602H451.39V224.68H449.562V220.602H440.796V219.102H459.874ZM457.742 226.906V228.453H443.234V222.758H445.062V226.906H457.742ZM445.179 208.742V211.414H455.492V208.742H457.32V217.062H443.351V208.742H445.179ZM445.179 215.562H455.492V212.82H445.179V215.562ZM478.475 208.062V220.414H476.624V217.133H471.749V218.914H462.186V209.656H471.749V211.461H476.624V208.062H478.475ZM464.014 211.156V217.414H469.944V211.156H464.014ZM471.561 221.023C475.897 221.023 478.546 222.453 478.546 224.961C478.546 227.445 475.897 228.852 471.561 228.852C467.225 228.852 464.577 227.445 464.577 224.961C464.577 222.453 467.225 221.023 471.561 221.023ZM471.561 222.453C468.374 222.477 466.382 223.391 466.405 224.961C466.382 226.461 468.374 227.398 471.561 227.398C474.749 227.398 476.718 226.461 476.718 224.961C476.718 223.391 474.749 222.477 471.561 222.453ZM471.749 215.586H476.624V212.984H471.749V215.586ZM506.302 218.727V220.25H497.818V224.516H495.99V220.25H487.224V218.727H506.302ZM503.818 209.094V216.336H489.708V209.094H503.818ZM491.513 210.547V214.859H501.99V210.547H491.513ZM504.169 226.906V228.453H489.662V222.453H491.513V226.906H504.169ZM525.442 208.062V228.898H523.684V208.062H525.442ZM521.223 208.578V227.82H519.489V217.086H515.973V215.586H519.489V208.578H521.223ZM513.747 214.016C513.747 217.625 515.364 221.211 518.247 222.875L517.122 224.234C515.071 223.004 513.618 220.754 512.903 218.094C512.141 220.965 510.63 223.414 508.544 224.727L507.372 223.344C510.278 221.609 511.966 217.812 511.966 214.016V212.047H507.958V210.523H517.567V212.047H513.747V214.016ZM544.137 208.062V216.547H547.512V218.094H544.137V228.898H542.309V208.062H544.137ZM538.746 210.312C538.746 216.219 535.981 221.586 529.184 224.938L528.152 223.484C533.543 220.801 536.473 216.793 536.895 211.859H529.113V210.312H538.746ZM561.112 222.055C561.112 223.895 562.097 225.852 564.089 226.977C566.057 225.746 567.112 223.672 567.112 222.055V220.906H568.917V222.055C568.917 224.188 570.487 226.344 573.159 227.258L572.245 228.617C570.159 227.879 568.694 226.426 567.979 224.68C567.335 226.367 566.057 227.961 564.136 228.781C562.108 228.008 560.819 226.473 560.198 224.727C559.46 226.414 558.018 227.867 556.026 228.617L555.089 227.258C557.714 226.273 559.307 224.047 559.331 222.055V220.906H561.112V222.055ZM571.261 208.086V219.992H569.432V208.086H571.261ZM560.011 209.305C563.175 209.305 565.472 211.273 565.472 214.18C565.472 217.039 563.175 219.008 560.011 219.008C556.847 219.008 554.55 217.039 554.55 214.18C554.55 211.273 556.847 209.305 560.011 209.305ZM560.011 210.875C557.878 210.852 556.331 212.234 556.354 214.18C556.331 216.102 557.878 217.461 560.011 217.484C562.12 217.461 563.667 216.102 563.667 214.18C563.667 212.234 562.12 210.852 560.011 210.875ZM578.682 220.578V223.016H589.088V220.578H590.94V228.617H576.854V220.578H578.682ZM578.682 227.141H589.088V224.469H578.682V227.141ZM593.424 217.578V219.102H574.44V217.578H593.424ZM584.893 209.281C584.893 211.859 588.69 214.156 592.346 214.625L591.666 216.102C588.432 215.621 585.268 213.969 583.955 211.625C582.619 213.98 579.432 215.621 576.221 216.102L575.518 214.625C579.221 214.133 582.994 211.93 582.994 209.281V208.297H584.893V209.281ZM612.002 208.062V228.898H610.173V208.062H612.002ZM597.986 210.125V221.938C601.162 221.926 604.455 221.668 607.947 220.93L608.205 222.5C604.502 223.273 601.197 223.531 597.869 223.531H596.181V210.125H597.986ZM631.329 208.062V216.312H634.821V217.859H631.329V228.945H629.501V208.062H631.329ZM625.845 210.102V211.625H617.946V222.172C621.72 222.172 624.392 221.996 627.485 221.422L627.72 223.016C624.462 223.602 621.72 223.719 617.759 223.719H616.118V210.102H625.845ZM637.789 227.141C636.969 227.141 636.266 226.461 636.289 225.617C636.266 224.797 636.969 224.117 637.789 224.117C638.61 224.117 639.289 224.797 639.289 225.617C639.289 226.461 638.61 227.141 637.789 227.141Z" fill="#0B0B0B"/>
<path d="M229.798 56.9062C229.759 61.8672 233.275 66.2422 238.392 67.9609L236.673 70.3438C232.845 68.8984 229.837 66.0859 228.353 62.4141C226.849 66.5742 223.666 69.8164 219.486 71.3984L217.806 68.8984C223.158 67.0234 226.712 62.4141 226.752 57.0234V53.4297H229.798V56.9062ZM246.634 51.4375V72.0234H243.548V61.4375H235.814V58.8984H243.548V51.4375H246.634ZM235.111 73.0391C242.337 73.0391 246.752 75.4219 246.752 79.6016C246.752 83.7422 242.337 86.0859 235.111 86.0859C227.884 86.0859 223.47 83.7422 223.47 79.6016C223.47 75.4219 227.884 73.0391 235.111 73.0391ZM235.111 75.4609C229.798 75.4609 226.478 77.0234 226.517 79.6016C226.478 82.1016 229.798 83.625 235.111 83.625C240.423 83.625 243.705 82.1016 243.705 79.6016C243.705 77.0234 240.423 75.4609 235.111 75.4609ZM263.886 57.8438C263.886 62.375 267.362 66.6719 272.441 68.4297L270.839 70.8516C266.913 69.4453 263.886 66.5352 262.402 62.9609C260.898 66.9648 257.695 70.168 253.573 71.6719L251.972 69.25C257.089 67.4141 260.8 62.7656 260.8 57.8828V56.3594H252.948V53.8594H271.659V56.3594H263.886V57.8438ZM280.605 74.0938V86.1641H277.519V76.6328H257.245V74.0938H280.605ZM280.605 51.4375V72.2578H277.519V63.1172H270.566V60.5391H277.519V51.4375H280.605ZM312.934 51.4375V62.0234H318.169V64.6016H312.934V77.0625H309.887V51.4375H312.934ZM314.536 82.8438V85.4219H291.216V74.4062H294.223V82.8438H314.536ZM295.552 53.8984C300.747 53.8984 304.653 57.4141 304.692 62.4531C304.653 67.4922 300.747 71.0078 295.552 71.0078C290.356 71.0078 286.411 67.4922 286.45 62.4531C286.411 57.4141 290.356 53.8984 295.552 53.8984ZM295.552 56.5938C292.114 56.5938 289.419 59.0156 289.458 62.4531C289.419 65.8906 292.114 68.3125 295.552 68.3125C299.067 68.3125 301.684 65.8906 301.684 62.4531C301.684 59.0156 299.067 56.5938 295.552 56.5938ZM335.577 53.7031C342.959 53.7422 348.272 57.3359 348.272 62.8047C348.272 67.9805 343.662 71.418 337.061 71.8281V79.1328H351.553V81.7109H319.756V79.1328H334.053V71.8281C327.471 71.3984 322.881 67.9609 322.881 62.8047C322.881 57.3359 328.194 53.7422 335.577 53.7031ZM335.577 56.2422C329.952 56.2422 325.85 58.8984 325.85 62.8047C325.85 66.8281 329.952 69.4062 335.577 69.4453C341.202 69.4062 345.303 66.8281 345.303 62.8047C345.303 58.8984 341.202 56.2422 335.577 56.2422ZM385.523 79.2109V81.7891H353.727V79.2109H385.523ZM381.5 54.0938V64.6016H360.758V70.3047H382.32V72.7656H357.711V62.1016H378.492V56.6328H357.633V54.0938H381.5ZM415.783 61.9844V64.4453H391.994V52.7266H395.041V61.9844H415.783ZM419.455 69.1719V71.6719H387.658V69.1719H419.455ZM415.978 82.7656V85.3047H391.798V75.2266H394.845V82.7656H415.978ZM448.528 54.6797C448.528 59.5625 454.934 63.8203 461.184 64.6797L459.934 67.1797C454.544 66.2812 449.212 63.293 446.966 59.0156C444.739 63.3125 439.387 66.2812 433.997 67.1797L432.747 64.6797C438.997 63.8203 445.364 59.6406 445.364 54.6797V52.6875H448.528V54.6797ZM462.747 71.0078V73.5859H448.372V86.1641H445.364V73.5859H431.106V71.0078H462.747ZM474.647 53.0781C479.315 53.0391 482.85 55.7539 483.514 59.7578H490.78V51.4375H493.866V70.0703H490.78V62.2969H483.553C482.928 66.3984 479.354 69.1328 474.647 69.1328C469.373 69.1328 465.623 65.8516 465.623 61.0859C465.623 56.3594 469.373 53.0391 474.647 53.0781ZM474.647 55.6953C471.092 55.6562 468.553 57.8828 468.553 61.0859C468.553 64.25 471.092 66.5547 474.647 66.5547C478.162 66.5547 480.662 64.25 480.662 61.0859C480.662 57.8828 478.162 55.6562 474.647 55.6953ZM474.569 71.8281V76.2422H490.78V71.8281H493.866V85.6953H471.483V71.8281H474.569ZM474.569 83.1953H490.78V78.7031H474.569V83.1953ZM516.586 54.6016V70.5781H500.531V54.6016H516.586ZM503.539 57.1016V68.1172H513.617V57.1016H503.539ZM526.195 51.4375V62.0234H531.43V64.6016H526.195V76.9062H523.148V51.4375H526.195ZM527.797 82.8438V85.4219H504.477V74.4844H507.484V82.8438H527.797ZM574.136 66.0469V68.5078H542.456V66.0469H574.136ZM570.347 60.6953V63.1953H546.675V52.6484H569.995V55.1094H549.761V60.6953H570.347ZM570.034 71.6328V79.6797H549.409V83.2734H571.089V85.7734H546.362V77.375H567.027V74.0156H546.284V71.6328H570.034ZM592.247 53.7031C599.512 53.7031 604.942 57.4922 604.942 63.2344C604.942 69.0156 599.512 72.8047 592.247 72.7656C584.981 72.8047 579.552 69.0156 579.552 63.2344C579.552 57.4922 584.981 53.7031 592.247 53.7031ZM592.247 56.2031C586.661 56.1641 582.442 59.0938 582.481 63.2344C582.442 67.4531 586.661 70.2656 592.247 70.2656C597.794 70.2656 601.973 67.4531 601.973 63.2344C601.973 59.0938 597.794 56.1641 592.247 56.2031ZM608.223 78.9766V81.5547H576.427V78.9766H608.223ZM627.623 54.9141V59.7969H636.139V51.4375H639.186V86.2422H636.139V71.9062H627.623V77.375H611.803V54.9141H627.623ZM614.85 57.3359V74.9141H624.655V57.3359H614.85ZM627.623 69.3672H636.139V62.3359H627.623V69.3672ZM279.784 105.898V110.312H258.534V105.898H266.347V102.734H271.972V105.898H279.784ZM269.159 111.211C274.394 111.211 278.066 113.945 278.066 117.852C278.066 121.836 274.394 124.531 269.159 124.531C263.964 124.531 260.175 121.836 260.214 117.852C260.175 113.945 263.964 111.211 269.159 111.211ZM269.159 115.43C267.089 115.43 265.683 116.211 265.683 117.852C265.683 119.531 267.089 120.273 269.159 120.273C271.269 120.273 272.714 119.531 272.714 117.852C272.714 116.211 271.269 115.43 269.159 115.43ZM287.128 102.891V111.992H291.777V116.562H287.128V125.391H281.503V102.891H287.128ZM287.128 126.758V138.75H281.503V131.25H262.792V126.758H287.128ZM323.169 102.93V129.961H317.505V127.383H310.825V123.594H317.505V102.93H323.169ZM323.911 133.672V138.164H296.802V127.383H301.723V122.852C298.638 122.969 295.688 123.008 293.052 123.008L292.427 118.594C298.989 118.516 307.778 118.438 315.317 117.5L315.63 121.484C312.934 121.953 310.141 122.285 307.388 122.5V129.219H302.427V133.672H323.911ZM304.028 104.062C309.263 104.062 313.013 106.758 313.013 110.547C313.013 114.414 309.263 116.914 304.028 116.914C298.716 116.914 295.005 114.414 295.005 110.547C295.005 106.758 298.716 104.062 304.028 104.062ZM304.028 108.164C301.802 108.164 300.317 108.945 300.317 110.547C300.317 112.109 301.802 112.891 304.028 112.891C306.138 112.891 307.661 112.109 307.7 110.547C307.661 108.945 306.138 108.164 304.028 108.164ZM356.631 102.891V138.828H350.967V102.891H356.631ZM333.858 105.703V114.18H340.616V105.703H346.163V130.547H328.194V105.703H333.858ZM333.858 125.977H340.616V118.516H333.858V125.977ZM378.805 105.781V123.203H361.422V105.781H378.805ZM366.969 110.234V118.828H373.258V110.234H366.969ZM389.039 102.93V113.047H393.688V117.656H389.039V129.023H383.414V102.93H389.039ZM390.211 133.672V138.164H365.523V126.406H371.148V133.672H390.211ZM433.777 102.891V138.75H428.425V121.016H425.613V137.031H420.378V103.438H425.613V116.523H428.425V102.891H433.777ZM409.753 106.758V125.234C412.429 125.156 415.378 124.902 418.542 124.297L419.089 129.141C414.363 129.961 410.261 130.195 406.628 130.156H404.128V106.758H409.753ZM466.536 105.82V109.18C466.536 113.672 466.536 118.789 465.091 126.523L459.387 125.938C460.755 119.375 460.852 114.395 460.911 110.273H440.13V105.82H466.536ZM469.466 130.039V134.57H436.77V130.039H448.137V117.852H453.723V130.039H469.466ZM492.406 125.547C492.406 128.34 493.48 131.211 496.234 133.164C499.008 131.113 500.141 128.184 500.18 125.547V124.57H505.727V125.547C505.688 129.336 507.445 132.695 512.25 134.141L509.555 138.203C506.176 137.109 504.008 135.02 502.758 132.305C501.566 135.02 499.516 137.305 496.352 138.516C493.031 137.344 490.961 135.117 489.789 132.422C488.5 135.02 486.371 137.09 483.148 138.203L480.375 134.141C485.141 132.539 486.898 129.062 486.938 125.547V124.57H492.406V125.547ZM509.203 102.93V123.125H503.578V102.93H509.203ZM489.477 104.648C495.102 104.688 499.398 108.281 499.398 113.359C499.398 118.359 495.102 121.992 489.477 121.992C483.852 121.992 479.516 118.359 479.555 113.359C479.516 108.281 483.852 104.688 489.477 104.648ZM489.477 109.375C486.859 109.375 485.023 110.781 485.023 113.359C485.023 115.859 486.859 117.344 489.477 117.344C492.016 117.344 493.812 115.859 493.812 113.359C493.812 110.781 492.016 109.375 489.477 109.375ZM546.298 116.25V120.82H541.494V138.633H535.869V102.891H541.494V116.25H546.298ZM519.697 106.289V125.352C524.072 125.254 528.818 124.824 533.759 123.867L534.345 128.516C528.408 129.727 522.509 130 517.275 130H514.072V106.289H519.697ZM579.8 130.117V134.688H547.027V130.117H554.097V121.602C551.421 119.902 549.8 117.363 549.8 114.219C549.8 108.359 555.542 104.492 563.355 104.492C571.167 104.492 576.987 108.359 576.987 114.219C576.987 117.305 575.405 119.805 572.808 121.484V130.117H579.8ZM563.355 108.906C558.472 108.867 555.347 110.781 555.386 114.219C555.347 117.617 558.472 119.609 563.355 119.609C568.198 119.609 571.402 117.617 571.402 114.219C571.402 110.781 568.198 108.867 563.355 108.906ZM559.644 130.117H567.105V123.633C565.913 123.848 564.663 123.945 563.355 123.945C562.046 123.945 560.816 123.848 559.644 123.633V130.117ZM587.442 125.82C587.442 121.094 588.653 119.648 590.88 118.242C592.598 117.148 593.927 116.055 593.927 114.336C593.927 112.617 592.559 111.523 590.88 111.523C589.239 111.523 587.716 112.695 587.677 114.648H581.466C581.544 108.906 585.802 106.328 590.919 106.328C596.583 106.328 600.684 109.062 600.684 114.023C600.684 117.305 598.927 119.336 596.309 120.898C594.2 122.148 593.184 123.32 593.184 125.82V126.367H587.442V125.82ZM590.411 135.391C588.458 135.391 586.856 133.828 586.895 131.836C586.856 129.922 588.458 128.359 590.411 128.359C592.286 128.359 593.927 129.922 593.966 131.836C593.927 133.828 592.286 135.391 590.411 135.391Z" fill="#0B0B0B"/>
</g>
<defs>
<linearGradient id="paint0_linear_1199_1584" x1="134.5" y1="0" x2="134.5" y2="860" gradientUnits="userSpaceOnUse">
<stop stop-color="#1E4770"/>
<stop offset="0.3" stop-color="#071B26"/>
<stop offset="0.8" stop-color="#701E1E"/>
<stop offset="1" stop-color="#240E03"/>
</linearGradient>
<clipPath id="clip0_1199_1584">
<rect width="269" height="860" fill="white" transform="translate(0 269) rotate(-90)"/>
</clipPath>
</defs>
</svg>
