<svg width="860" height="123" viewBox="0 0 860 123" fill="none" xmlns="http://www.w3.org/2000/svg">
<g clip-path="url(#clip0_1199_1920)">
<rect width="123" height="860" transform="translate(0 123) rotate(-90)" fill="url(#paint0_linear_1199_1920)"/>
<rect width="123" height="860" transform="translate(0 123) rotate(-90)" fill="#D8D1BE"/>
<path d="M179.811 71.75V65.9062H173.967V62H179.811V56.1562H183.717V62H189.561V65.9062H183.717V71.75H179.811ZM221.914 47.4375V58.5625H226.101V61.8438H221.914V75.875H217.976V47.4375H221.914ZM216.039 51.6875V54.875H199.32V51.6875H205.757V47.875H209.757V51.6875H216.039ZM207.757 56.4688C211.914 56.4688 215.007 59.2812 215.007 63.25C215.007 67.2188 211.914 70.0312 207.757 70.0312C203.57 70.0312 200.476 67.2188 200.476 63.25C200.476 59.2812 203.57 56.4688 207.757 56.4688ZM207.757 59.6875C205.757 59.7188 204.289 61.0625 204.289 63.25C204.289 65.4688 205.757 66.7812 207.757 66.75C209.757 66.7812 211.195 65.4688 211.195 63.25C211.195 61.0625 209.757 59.7188 207.757 59.6875ZM249.653 48.3125V56.7812H233.746V59.1562H250.309V62.3438H229.715V53.7812H245.559V51.5312H229.621V48.3125H249.653ZM252.653 64.4688V67.6562H241.59V75.9375H237.59V67.6562H226.621V64.4688H252.653ZM278.485 47.4375V75.875H274.673V47.4375H278.485ZM272.548 47.8438V74.5625H268.798V61.125H266.516C266.141 66.7188 263.766 70.0938 260.266 70.0938C256.516 70.0938 254.079 66.1562 254.079 59.75C254.079 53.375 256.516 49.4688 260.266 49.4688C263.688 49.4688 266.032 52.6562 266.485 57.9688H268.798V47.8438H272.548ZM260.266 53.2188C258.673 53.2188 257.735 55.4062 257.766 59.75C257.735 64.125 258.673 66.2812 260.266 66.25C261.891 66.2812 262.86 64.125 262.86 59.75C262.86 55.4062 261.891 53.2188 260.266 53.2188ZM304.192 60.1562V63.3125H295.942V69.375H307.036V72.625H281.005V69.375H291.974V63.3125H284.067V49.4375H303.974V52.625H288.067V60.1562H304.192ZM330.17 49.6562C330.17 53 333.576 56.7188 340.107 57.5312L338.545 60.75C333.576 60.0312 329.936 57.7344 328.076 54.6562C326.201 57.7344 322.592 60.0312 317.67 60.75L316.076 57.5312C322.545 56.7188 325.982 53 325.982 49.6562V48.2812H330.17V49.6562ZM341.014 62.9062V66.1562H329.951V75.875H326.014V66.1562H315.076V62.9062H341.014ZM353.159 50.9375C353.128 54.2812 355.19 57.625 359.846 58.9688L357.94 62.0625C354.659 61.0938 352.393 59.125 351.096 56.5938C349.815 59.3438 347.471 61.5156 344.065 62.5312L342.159 59.4062C346.909 58 349.003 54.4062 349.003 50.9375V48.2812H353.159V50.9375ZM366.065 47.4375V62.7188H362.065V47.4375H366.065ZM350.971 63.9688V66.625H362.096V63.9688H366.065V75.5625H347.034V63.9688H350.971ZM350.971 72.3438H362.096V69.7188H350.971V72.3438ZM393.397 47.4688V68.25H389.429V58.9688H384.335V55.6875H389.429V47.4688H393.397ZM384.585 49.5625C384.585 57.1875 379.741 62.8125 371.429 65.4062L369.804 62.25C375.694 60.4062 379.491 57.0156 380.241 52.8125H371.272V49.5625H384.585ZM394.116 72.1875V75.375H374.647V66.1562H378.71V72.1875H394.116ZM421.011 65.3125V75.875H417.011V68.4688H400.667V65.3125H421.011ZM421.011 47.4375V64H417.011V47.4375H421.011ZM404.042 50.875C404.042 53.3594 404.386 56.2656 406.042 58.5C407.621 56.2812 407.98 53.4062 408.011 50.875V49.0625H411.73V50.875C411.73 54.375 412.636 58.1562 415.949 60.125L413.792 62.9375C411.824 61.7656 410.605 59.9375 409.886 57.7812C409.199 60.0156 408.027 62.0156 406.042 63.2812C404.042 62.0156 402.855 60.0156 402.167 57.75C401.433 59.9062 400.23 61.7656 398.292 62.9375L396.105 60.125C399.449 58.0938 400.292 54.25 400.292 50.875V49.0625H404.042V50.875ZM454.645 64.875V75.5625H435.645V64.875H454.645ZM439.582 68.0312V72.375H450.739V68.0312H439.582ZM436.207 48.9375V59.25C439.77 59.2031 443.426 58.9219 447.239 58.1562L447.645 61.5C443.145 62.4062 438.895 62.625 434.645 62.625H432.27V48.9375H436.207ZM454.645 47.4375V63.6875H450.676V55.4375H443.614V52.2188H450.676V47.4375H454.645ZM481.853 47.4375V75.9375H477.884V65.0938H472.978V61.875H477.884V59.25H472.978V55.9688H477.884V47.4375H481.853ZM468.509 56.3438C468.509 60.4688 470.759 65.125 475.415 67.1562L473.228 70.1875C470.04 68.8438 467.79 66.0938 466.54 62.8438C465.321 66.2812 463.071 69.1719 459.821 70.5625L457.728 67.5C462.29 65.4688 464.509 60.625 464.54 56.3438V55.25H458.634V52.0625H464.54V48.0625H468.54V52.0625H474.29V55.25H468.509V56.3438ZM511.497 58.2188V61.4688H507.466V75.8125H503.466V47.4375H507.466V58.2188H511.497ZM489.904 50.1562V65.5625C493.544 65.5156 497.451 65.1719 501.56 64.3438L501.966 67.6562C497.216 68.625 492.591 68.875 488.404 68.875H485.935V50.1562H489.904ZM535.299 55.1875V58.3125H515.424V48.4375H519.392V55.1875H535.299ZM538.205 61.375V64.5H512.174V61.375H538.205ZM535.486 72.0625V75.25H515.174V66.8125H519.174V72.0625H535.486ZM572.276 63.25V66.4688H566.182V75.875H562.12V66.4688H556.307V75.875H552.214V66.4688H546.245V63.25H572.276ZM559.182 48.375C565.276 48.375 569.557 50.9062 569.557 54.8125C569.557 58.6562 565.276 61.0625 559.182 61.0625C553.089 61.0625 548.839 58.6562 548.87 54.8125C548.839 50.9062 553.089 48.375 559.182 48.375ZM559.182 51.5625C555.37 51.5625 552.932 52.7188 552.964 54.8125C552.932 56.8125 555.37 57.9375 559.182 57.9375C563.026 57.9375 565.432 56.8125 565.432 54.8125C565.432 52.7188 563.026 51.5625 559.182 51.5625ZM599.452 64.25V67.5H593.452V75.875H589.421V67.5H583.484V75.875H579.515V67.5H573.421V64.25H599.452ZM596.671 59.0938V62.25H576.702V48.5938H596.359V51.7188H580.609V53.8125H595.765V56.9062H580.609V59.0938H596.671ZM626.66 69.1875V72.4375H600.629V69.1875H626.66ZM607.379 49.25V53.9688H619.785V49.25H623.754V64.4375H603.379V49.25H607.379ZM607.379 61.3125H619.785V57.0625H607.379V61.3125ZM659.294 50.375V53.5938H635.95V50.375H645.669V47.4062H649.638V50.375H659.294ZM660.731 65.8125V69.0625H649.638V75.9062H645.669V69.0625H634.7V65.8125H660.731ZM647.669 54.6875C653.763 54.6875 657.45 56.4062 657.481 59.5625C657.45 62.7188 653.763 64.4375 647.669 64.4375C641.513 64.4375 637.825 62.7188 637.856 59.5625C637.825 56.4062 641.513 54.6875 647.669 54.6875ZM647.669 57.625C643.856 57.6562 641.981 58.25 641.981 59.5625C641.981 60.8438 643.856 61.4688 647.669 61.4688C651.419 61.4688 653.325 60.8438 653.325 59.5625C653.325 58.25 651.419 57.6562 647.669 57.625ZM685.783 47.4375V75.875H681.751V47.4375H685.783ZM677.251 50.4062C677.251 59.0312 674.22 66.1875 664.064 71L661.97 67.8125C669.314 64.3438 672.548 59.8438 673.189 53.5312H663.501V50.4062H677.251Z" fill="#0B0B0B"/>
</g>
<defs>
<linearGradient id="paint0_linear_1199_1920" x1="61.5" y1="0" x2="61.5" y2="860" gradientUnits="userSpaceOnUse">
<stop stop-color="#1E4770"/>
<stop offset="0.3" stop-color="#071B26"/>
<stop offset="0.8" stop-color="#701E1E"/>
<stop offset="1" stop-color="#240E03"/>
</linearGradient>
<clipPath id="clip0_1199_1920">
<rect width="123" height="860" fill="white" transform="translate(0 123) rotate(-90)"/>
</clipPath>
</defs>
</svg>
